<?xml version="1.0" encoding="UTF-8"?>
<svg id="Layer_4" data-name="Layer 4" xmlns="http://www.w3.org/2000/svg" xmlns:xlink="http://www.w3.org/1999/xlink" viewBox="0 0 1547.82 945.4">
  <defs>
    <style>
      .cls-1, .cls-2 {
        fill: none;
      }

      .cls-3 {
        font-size: 34.83px;
      }

      .cls-3, .cls-4, .cls-5, .cls-6 {
        font-family: Arial-BoldMT, Arial;
        font-weight: 700;
      }

      .cls-7, .cls-4, .cls-5, .cls-6 {
        isolation: isolate;
      }

      .cls-4 {
        fill: #010101;
        font-size: 60px;
      }

      .cls-2 {
        stroke: #000;
        stroke-miterlimit: 10;
      }

      .cls-5 {
        fill: #fff;
        font-size: 36.78px;
      }

      .cls-8 {
        letter-spacing: -.09em;
      }

      .cls-6 {
        font-size: 36.76px;
      }

      .cls-9 {
        letter-spacing: -.02em;
      }

      .cls-10 {
        letter-spacing: -.02em;
      }

      .cls-11 {
        letter-spacing: -.02em;
      }

      .cls-12 {
        letter-spacing: -.02em;
      }

      .cls-13 {
        letter-spacing: -.04em;
      }

      .cls-14 {
        letter-spacing: -.04em;
      }

      .cls-15 {
        letter-spacing: -.04em;
      }

      .cls-16 {
        fill: #d2242a;
      }

      .cls-17 {
        clip-path: url(#clippath);
      }
    </style>
    <clipPath id="clippath">
      <polygon class="cls-1" points="0 74.75 1547.82 21.75 1547.82 892.4 0 945.4 0 74.75"/>
    </clipPath>
  </defs>
  <g class="cls-7">
    <text class="cls-4" transform="translate(442.29 51.47)"><tspan x="0" y="0">PROMOTIONS 2026/27</tspan></text>
  </g>
  <g class="cls-17">
    <g>
      <rect class="cls-16" x="577.53" y="223.87" width="928.69" height="223.28"/>
      <line class="cls-2" x1="577.53" y1="223.87" x2="577.53" y2="110.54"/>
      <line class="cls-2" x1="732.31" y1="223.87" x2="732.31" y2="110.54"/>
      <line class="cls-2" x1="887.09" y1="223.87" x2="887.09" y2="110.54"/>
      <line class="cls-2" x1="1041.88" y1="223.87" x2="1041.88" y2="110.54"/>
      <line class="cls-2" x1="1196.66" y1="223.87" x2="1196.66" y2="110.54"/>
      <line class="cls-2" x1="1351.44" y1="223.87" x2="1351.44" y2="110.54"/>
      <line class="cls-2" x1="35.79" y1="224.35" x2="577.53" y2="224.35"/>
      <line class="cls-2" x1="577.53" y1="224.35" x2="732.31" y2="224.35"/>
      <line class="cls-2" x1="577.53" y1="335.67" x2="577.53" y2="224.83"/>
      <line class="cls-2" x1="732.31" y1="224.35" x2="887.09" y2="224.35"/>
      <line class="cls-2" x1="732.31" y1="335.67" x2="732.31" y2="224.83"/>
      <line class="cls-2" x1="887.09" y1="224.35" x2="1041.88" y2="224.35"/>
      <line class="cls-2" x1="887.09" y1="335.67" x2="887.09" y2="224.83"/>
      <line class="cls-2" x1="1041.88" y1="224.35" x2="1196.66" y2="224.35"/>
      <line class="cls-2" x1="1041.88" y1="335.67" x2="1041.88" y2="224.83"/>
      <line class="cls-2" x1="1196.66" y1="224.35" x2="1351.44" y2="224.35"/>
      <line class="cls-2" x1="1196.66" y1="335.67" x2="1196.66" y2="224.83"/>
      <line class="cls-2" x1="1351.44" y1="224.35" x2="1506.7" y2="224.35"/>
      <line class="cls-2" x1="1351.44" y1="335.67" x2="1351.44" y2="224.83"/>
      <line class="cls-2" x1="1506.22" y1="335.67" x2="1506.22" y2="224.83"/>
      <line class="cls-2" x1="35.79" y1="336.15" x2="577.53" y2="336.15"/>
      <line class="cls-2" x1="577.53" y1="336.15" x2="732.31" y2="336.15"/>
      <line class="cls-2" x1="732.31" y1="336.15" x2="887.09" y2="336.15"/>
      <line class="cls-2" x1="887.09" y1="336.15" x2="1041.88" y2="336.15"/>
      <line class="cls-2" x1="1041.88" y1="336.15" x2="1196.66" y2="336.15"/>
      <line class="cls-2" x1="1196.66" y1="336.15" x2="1351.44" y2="336.15"/>
      <line class="cls-2" x1="1351.44" y1="336.15" x2="1506.7" y2="336.15"/>
      <line class="cls-2" x1="34.83" y1="110.06" x2="577.53" y2="110.06"/>
      <line class="cls-2" x1="35.31" y1="224.35" x2="35.31" y2="110.54"/>
      <line class="cls-2" x1="577.53" y1="110.06" x2="732.31" y2="110.06"/>
      <line class="cls-2" x1="732.31" y1="110.06" x2="887.09" y2="110.06"/>
      <line class="cls-2" x1="887.09" y1="110.06" x2="1041.88" y2="110.06"/>
      <line class="cls-2" x1="1041.88" y1="110.06" x2="1196.66" y2="110.06"/>
      <line class="cls-2" x1="1196.66" y1="110.06" x2="1351.44" y2="110.06"/>
      <line class="cls-2" x1="1351.44" y1="110.06" x2="1506.7" y2="110.06"/>
      <line class="cls-2" x1="1506.22" y1="223.87" x2="1506.22" y2="110.54"/>
      <line class="cls-2" x1="35.31" y1="336.15" x2="35.31" y2="224.35"/>
      <g class="cls-7">
        <text class="cls-6" transform="translate(136.89 180.59)"><tspan x="0" y="0">SKU DESCRIPTION</tspan></text>
      </g>
      <g class="cls-7">
        <text class="cls-6" transform="translate(614.09 180.59)"><tspan x="0" y="0">AUG</tspan></text>
      </g>
      <g class="cls-7">
        <text class="cls-6" transform="translate(773.26 180.59)"><tspan x="0" y="0">SE</tspan><tspan class="cls-11" x="49.04" y="0">P</tspan></text>
      </g>
      <g class="cls-7">
        <text class="cls-6" transform="translate(925.71 180.59)"><tspan x="0" y="0">OCT</tspan></text>
      </g>
      <g class="cls-7">
        <text class="cls-6" transform="translate(1079.44 180.59)"><tspan x="0" y="0">NOV</tspan></text>
      </g>
      <g class="cls-7">
        <text class="cls-6" transform="translate(1235.23 180.59)"><tspan x="0" y="0">DEC</tspan></text>
      </g>
      <g class="cls-7">
        <text class="cls-6" transform="translate(1392.05 180.59)"><tspan x="0" y="0">JAN</tspan></text>
      </g>
      <line class="cls-2" x1="577.53" y1="446.67" x2="577.53" y2="335.83"/>
      <line class="cls-2" x1="732.31" y1="446.67" x2="732.31" y2="335.83"/>
      <line class="cls-2" x1="887.09" y1="446.67" x2="887.09" y2="335.83"/>
      <line class="cls-2" x1="1041.88" y1="446.67" x2="1041.88" y2="335.83"/>
      <line class="cls-2" x1="1196.66" y1="446.67" x2="1196.66" y2="335.83"/>
      <line class="cls-2" x1="1351.44" y1="446.67" x2="1351.44" y2="335.83"/>
      <line class="cls-2" x1="1506.22" y1="446.67" x2="1506.22" y2="335.83"/>
      <line class="cls-2" x1="35.79" y1="447.15" x2="577.53" y2="447.15"/>
      <line class="cls-2" x1="577.53" y1="447.15" x2="732.31" y2="447.15"/>
      <line class="cls-2" x1="732.31" y1="447.15" x2="887.09" y2="447.15"/>
      <line class="cls-2" x1="887.09" y1="447.15" x2="1041.88" y2="447.15"/>
      <line class="cls-2" x1="1041.88" y1="447.15" x2="1196.66" y2="447.15"/>
      <line class="cls-2" x1="1196.66" y1="447.15" x2="1351.44" y2="447.15"/>
      <line class="cls-2" x1="1351.44" y1="447.15" x2="1506.7" y2="447.15"/>
      <line class="cls-2" x1="35.31" y1="447.15" x2="35.31" y2="335.35"/>
    </g>
  </g>
  <g class="cls-7">
    <text class="cls-5" transform="translate(605.92 294.58)"><tspan x="0" y="0">LPED</tspan></text>
  </g>
  <g class="cls-7">
    <text class="cls-5" transform="translate(605.92 398.75)"><tspan x="0" y="0">LPED</tspan></text>
  </g>
  <g class="cls-7">
    <text class="cls-5" transform="translate(761.01 293.49)"><tspan x="0" y="0">LPED</tspan></text>
  </g>
  <g class="cls-7">
    <text class="cls-5" transform="translate(761.01 397.66)"><tspan x="0" y="0">LPED</tspan></text>
  </g>
  <g class="cls-7">
    <text class="cls-5" transform="translate(921.15 293.71)"><tspan x="0" y="0">LPED</tspan></text>
  </g>
  <g class="cls-7">
    <text class="cls-5" transform="translate(921.15 397.88)"><tspan x="0" y="0">LPED</tspan></text>
  </g>
  <g class="cls-7">
    <text class="cls-5" transform="translate(1076.75 292.62)"><tspan x="0" y="0">LPED</tspan></text>
  </g>
  <g class="cls-7">
    <text class="cls-5" transform="translate(1076.75 396.79)"><tspan x="0" y="0">LPED</tspan></text>
  </g>
  <g class="cls-7">
    <text class="cls-5" transform="translate(1223.99 293.71)"><tspan x="0" y="0">LPED</tspan></text>
  </g>
  <g class="cls-7">
    <text class="cls-5" transform="translate(1223.99 397.88)"><tspan x="0" y="0">LPED</tspan></text>
  </g>
  <g class="cls-7">
    <text class="cls-5" transform="translate(1379.59 292.62)"><tspan x="0" y="0">LPED</tspan></text>
  </g>
  <g class="cls-7">
    <text class="cls-5" transform="translate(1379.59 396.78)"><tspan x="0" y="0">LPED</tspan></text>
  </g>
  <text class="cls-3" transform="translate(62.46 269.94)"><tspan x="0" y="0">J/BEL</tspan><tspan class="cls-8" x="98.71" y="0">L</tspan><tspan class="cls-9" x="116.79" y="0">Y</tspan><tspan x="139.39" y="0" xml:space="preserve"> HANG 3D GE</tspan><tspan class="cls-10" x="365.82" y="0">L</tspan><tspan x="386.46" y="0"> </tspan><tspan x="0" y="41.8">BGUM   1E</tspan><tspan class="cls-14" x="178.04" y="41.8">A</tspan></text>
  <polyline class="cls-16" points="1505.12 448.67 1505.12 671.95 576.43 671.95 576.43 448.67"/>
  <line class="cls-2" x1="576.43" y1="560.47" x2="576.43" y2="449.63"/>
  <line class="cls-2" x1="731.21" y1="560.47" x2="731.21" y2="449.63"/>
  <line class="cls-2" x1="885.99" y1="560.47" x2="885.99" y2="449.63"/>
  <line class="cls-2" x1="1040.78" y1="560.47" x2="1040.78" y2="449.63"/>
  <line class="cls-2" x1="1195.56" y1="560.47" x2="1195.56" y2="449.63"/>
  <line class="cls-2" x1="1350.34" y1="560.47" x2="1350.34" y2="449.63"/>
  <line class="cls-2" x1="1505.12" y1="560.47" x2="1505.12" y2="449.63"/>
  <line class="cls-2" x1="34.69" y1="560.95" x2="576.43" y2="560.95"/>
  <line class="cls-2" x1="576.43" y1="560.95" x2="731.21" y2="560.95"/>
  <line class="cls-2" x1="731.21" y1="560.95" x2="885.99" y2="560.95"/>
  <line class="cls-2" x1="885.99" y1="560.95" x2="1040.78" y2="560.95"/>
  <line class="cls-2" x1="1040.78" y1="560.95" x2="1195.56" y2="560.95"/>
  <line class="cls-2" x1="1195.56" y1="560.95" x2="1350.34" y2="560.95"/>
  <line class="cls-2" x1="1350.34" y1="560.95" x2="1505.6" y2="560.95"/>
  <line class="cls-2" x1="34.21" y1="560.95" x2="34.21" y2="449.15"/>
  <line class="cls-2" x1="576.43" y1="671.47" x2="576.43" y2="560.63"/>
  <line class="cls-2" x1="731.21" y1="671.47" x2="731.21" y2="560.63"/>
  <line class="cls-2" x1="885.99" y1="671.47" x2="885.99" y2="560.63"/>
  <line class="cls-2" x1="1040.78" y1="671.47" x2="1040.78" y2="560.63"/>
  <line class="cls-2" x1="1195.56" y1="671.47" x2="1195.56" y2="560.63"/>
  <line class="cls-2" x1="1350.34" y1="671.47" x2="1350.34" y2="560.63"/>
  <line class="cls-2" x1="1505.12" y1="671.47" x2="1505.12" y2="560.63"/>
  <line class="cls-2" x1="34.69" y1="671.95" x2="576.43" y2="671.95"/>
  <line class="cls-2" x1="576.43" y1="671.95" x2="731.21" y2="671.95"/>
  <line class="cls-2" x1="731.21" y1="671.95" x2="885.99" y2="671.95"/>
  <line class="cls-2" x1="885.99" y1="671.95" x2="1040.78" y2="671.95"/>
  <line class="cls-2" x1="1040.78" y1="671.95" x2="1195.56" y2="671.95"/>
  <line class="cls-2" x1="1195.56" y1="671.95" x2="1350.34" y2="671.95"/>
  <line class="cls-2" x1="1350.34" y1="671.95" x2="1505.6" y2="671.95"/>
  <line class="cls-2" x1="34.21" y1="671.95" x2="34.21" y2="560.15"/>
  <g class="cls-7">
    <text class="cls-5" transform="translate(605.91 517.38)"><tspan x="0" y="0">LPED</tspan></text>
  </g>
  <g class="cls-7">
    <text class="cls-5" transform="translate(605.92 623.55)"><tspan x="0" y="0">LPED</tspan></text>
  </g>
  <g class="cls-7">
    <text class="cls-5" transform="translate(761.01 518.29)"><tspan x="0" y="0">LPED</tspan></text>
  </g>
  <g class="cls-7">
    <text class="cls-5" transform="translate(761.01 622.46)"><tspan x="0" y="0">LPED</tspan></text>
  </g>
  <g class="cls-7">
    <text class="cls-5" transform="translate(921.15 518.51)"><tspan x="0" y="0">LPED</tspan></text>
  </g>
  <g class="cls-7">
    <text class="cls-5" transform="translate(921.15 622.68)"><tspan x="0" y="0">LPED</tspan></text>
  </g>
  <g class="cls-7">
    <text class="cls-5" transform="translate(1076.75 517.42)"><tspan x="0" y="0">LPED</tspan></text>
  </g>
  <g class="cls-7">
    <text class="cls-5" transform="translate(1076.75 621.59)"><tspan x="0" y="0">LPED</tspan></text>
  </g>
  <g class="cls-7">
    <text class="cls-5" transform="translate(1223.99 518.51)"><tspan x="0" y="0">LPED</tspan></text>
  </g>
  <g class="cls-7">
    <text class="cls-5" transform="translate(1223.99 622.68)"><tspan x="0" y="0">LPED</tspan></text>
  </g>
  <g class="cls-7">
    <text class="cls-5" transform="translate(1379.59 517.42)"><tspan x="0" y="0">LPED</tspan></text>
  </g>
  <g class="cls-7">
    <text class="cls-5" transform="translate(1379.59 621.59)"><tspan x="0" y="0">LPED</tspan></text>
  </g>
  <text class="cls-3" transform="translate(56.43 496.3)"><tspan x="0" y="0">J/BEL</tspan><tspan class="cls-8" x="98.71" y="0">L</tspan><tspan class="cls-9" x="116.79" y="0">Y</tspan><tspan x="139.39" y="0" xml:space="preserve"> HANG 3D GE</tspan><tspan class="cls-12" x="365.82" y="0">L</tspan><tspan x="386.46" y="0"> </tspan><tspan x="0" y="41.8">CHER</tspan><tspan class="cls-14" x="98.69" y="41.8">R</tspan><tspan class="cls-9" x="122.55" y="41.8">Y</tspan><tspan x="145.15" y="41.8" xml:space="preserve"> 1E</tspan><tspan class="cls-13" x="197.43" y="41.8">A</tspan></text>
  <text class="cls-3" transform="translate(56.23 381.75)"><tspan x="0" y="0">J/BEL</tspan><tspan class="cls-8" x="98.71" y="0">L</tspan><tspan class="cls-9" x="116.79" y="0">Y</tspan><tspan x="139.39" y="0" xml:space="preserve"> HANG 3D GE</tspan><tspan class="cls-12" x="365.82" y="0">L</tspan><tspan x="386.46" y="0"> </tspan><tspan x="0" y="41.8">T/FRTI 1E</tspan><tspan class="cls-14" x="160.61" y="41.8">A</tspan></text>
  <text class="cls-3" transform="translate(63.05 608.77)"><tspan x="0" y="0">J/BEL</tspan><tspan class="cls-8" x="98.71" y="0">L</tspan><tspan class="cls-10" x="116.79" y="0">Y</tspan><tspan x="139.39" y="0" xml:space="preserve"> HANG 3D GE</tspan><tspan class="cls-12" x="365.82" y="0">L</tspan><tspan x="386.46" y="0"> </tspan><tspan x="0" y="41.8">BLUB</tspan><tspan class="cls-15" x="96.74" y="41.8">R</tspan><tspan class="cls-10" x="120.6" y="41.8">Y</tspan><tspan x="143.2" y="41.8" xml:space="preserve"> 1E</tspan><tspan class="cls-13" x="195.48" y="41.8">A</tspan></text>
</svg>