<?xml version="1.0" encoding="UTF-8"?>
<svg id="Layer_2" data-name="Layer 2" xmlns="http://www.w3.org/2000/svg" xmlns:xlink="http://www.w3.org/1999/xlink" viewBox="0 0 1547.82 915.17">
  <defs>
    <style>
      .cls-1, .cls-2 {
        fill: none;
      }

      .cls-3 {
        letter-spacing: 0em;
      }

      .cls-4 {
        font-size: 34.83px;
      }

      .cls-4, .cls-5, .cls-6, .cls-7, .cls-8 {
        font-family: Arial-BoldMT, Arial;
        font-weight: 700;
      }

      .cls-5 {
        fill: #fff;
      }

      .cls-5, .cls-7 {
        font-size: 36.76px;
      }

      .cls-2 {
        stroke: #000;
        stroke-miterlimit: 10;
      }

      .cls-6 {
        font-size: 37.73px;
      }

      .cls-9 {
        letter-spacing: -.02em;
      }

      .cls-10 {
        letter-spacing: -.04em;
      }

      .cls-11 {
        letter-spacing: -.04em;
      }

      .cls-12 {
        fill: #d2242a;
      }

      .cls-13 {
        clip-path: url(#clippath);
      }

      .cls-8 {
        fill: #010101;
        font-size: 60px;
      }
    </style>
    <clipPath id="clippath">
      <rect class="cls-1" y="44.52" width="1547.82" height="870.65"/>
    </clipPath>
  </defs>
  <text class="cls-8" transform="translate(441.11 51.47)"><tspan x="0" y="0">PROMOTIONS 2026/27</tspan></text>
  <g class="cls-13">
    <path class="cls-12" d="M1351.44,478.53h154.78v98.67h-154.78v-98.67ZM1196.66,478.53h154.78v98.67h-154.78v-98.67ZM1041.88,478.53h154.78v98.67h-154.78v-98.67ZM887.09,478.53h154.78v98.67h-154.78v-98.67ZM732.31,478.53h154.78v98.67h-154.78v-98.67ZM577.53,478.53h154.78v98.67h-154.78v-98.67ZM1351.44,383.73h154.78v94.8h-154.78v-94.8ZM1196.66,383.73h154.78v94.8h-154.78v-94.8ZM1041.88,383.73h154.78v94.8h-154.78v-94.8ZM887.09,383.73h154.78v94.8h-154.78v-94.8ZM732.31,383.73h154.78v94.8h-154.78v-94.8ZM577.53,383.73h154.78v94.8h-154.78v-94.8Z"/>
    <line class="cls-2" x1="577.53" y1="193.64" x2="577.53" y2="80.31"/>
    <line class="cls-2" x1="732.31" y1="193.64" x2="732.31" y2="80.31"/>
    <line class="cls-2" x1="887.09" y1="193.64" x2="887.09" y2="80.31"/>
    <line class="cls-2" x1="1041.88" y1="193.64" x2="1041.88" y2="80.31"/>
    <line class="cls-2" x1="1196.66" y1="193.64" x2="1196.66" y2="80.31"/>
    <line class="cls-2" x1="1351.44" y1="193.64" x2="1351.44" y2="80.31"/>
    <line class="cls-2" x1="35.79" y1="194.12" x2="577.53" y2="194.12"/>
    <line class="cls-2" x1="577.53" y1="194.12" x2="732.31" y2="194.12"/>
    <line class="cls-2" x1="577.53" y1="288.44" x2="577.53" y2="194.6"/>
    <line class="cls-2" x1="732.31" y1="194.12" x2="887.09" y2="194.12"/>
    <line class="cls-2" x1="732.31" y1="288.44" x2="732.31" y2="194.6"/>
    <line class="cls-2" x1="887.09" y1="194.12" x2="1041.88" y2="194.12"/>
    <line class="cls-2" x1="887.09" y1="288.44" x2="887.09" y2="194.6"/>
    <line class="cls-2" x1="1041.88" y1="194.12" x2="1196.66" y2="194.12"/>
    <line class="cls-2" x1="1041.88" y1="288.44" x2="1041.88" y2="194.6"/>
    <line class="cls-2" x1="1196.66" y1="194.12" x2="1351.44" y2="194.12"/>
    <line class="cls-2" x1="1196.66" y1="288.44" x2="1196.66" y2="194.6"/>
    <line class="cls-2" x1="1351.44" y1="194.12" x2="1506.7" y2="194.12"/>
    <line class="cls-2" x1="1351.44" y1="288.44" x2="1351.44" y2="194.6"/>
    <line class="cls-2" x1="1506.22" y1="288.44" x2="1506.22" y2="194.6"/>
    <line class="cls-2" x1="35.79" y1="288.92" x2="577.53" y2="288.92"/>
    <line class="cls-2" x1="577.53" y1="288.92" x2="732.31" y2="288.92"/>
    <line class="cls-2" x1="577.53" y1="383.24" x2="577.53" y2="289.41"/>
    <line class="cls-2" x1="732.31" y1="288.92" x2="887.09" y2="288.92"/>
    <line class="cls-2" x1="732.31" y1="383.24" x2="732.31" y2="289.41"/>
    <line class="cls-2" x1="887.09" y1="288.92" x2="1041.88" y2="288.92"/>
    <line class="cls-2" x1="887.09" y1="383.24" x2="887.09" y2="289.41"/>
    <line class="cls-2" x1="1041.88" y1="288.92" x2="1196.66" y2="288.92"/>
    <line class="cls-2" x1="1041.88" y1="383.24" x2="1041.88" y2="289.41"/>
    <line class="cls-2" x1="1196.66" y1="288.92" x2="1351.44" y2="288.92"/>
    <line class="cls-2" x1="1196.66" y1="383.24" x2="1196.66" y2="289.41"/>
    <line class="cls-2" x1="1351.44" y1="288.92" x2="1506.7" y2="288.92"/>
    <line class="cls-2" x1="1351.44" y1="383.24" x2="1351.44" y2="289.41"/>
    <line class="cls-2" x1="1506.22" y1="383.24" x2="1506.22" y2="289.41"/>
    <line class="cls-2" x1="35.79" y1="383.73" x2="578.01" y2="383.73"/>
    <line class="cls-2" x1="577.53" y1="478.05" x2="577.53" y2="384.21"/>
    <line class="cls-2" x1="732.31" y1="478.05" x2="732.31" y2="384.21"/>
    <line class="cls-2" x1="887.09" y1="478.05" x2="887.09" y2="384.21"/>
    <line class="cls-2" x1="1041.88" y1="478.05" x2="1041.88" y2="384.21"/>
    <line class="cls-2" x1="1196.66" y1="478.05" x2="1196.66" y2="384.21"/>
    <line class="cls-2" x1="1351.44" y1="478.05" x2="1351.44" y2="384.21"/>
    <line class="cls-2" x1="35.79" y1="478.53" x2="577.53" y2="478.53"/>
    <line class="cls-2" x1="577.53" y1="478.53" x2="732.31" y2="478.53"/>
    <line class="cls-2" x1="577.53" y1="576.72" x2="577.53" y2="479.02"/>
    <line class="cls-2" x1="732.31" y1="478.53" x2="887.09" y2="478.53"/>
    <line class="cls-2" x1="732.31" y1="576.72" x2="732.31" y2="479.02"/>
    <line class="cls-2" x1="887.09" y1="478.53" x2="1041.88" y2="478.53"/>
    <line class="cls-2" x1="887.09" y1="576.72" x2="887.09" y2="479.02"/>
    <line class="cls-2" x1="1041.88" y1="478.53" x2="1196.66" y2="478.53"/>
    <line class="cls-2" x1="1041.88" y1="576.72" x2="1041.88" y2="479.02"/>
    <line class="cls-2" x1="1196.66" y1="478.53" x2="1351.44" y2="478.53"/>
    <line class="cls-2" x1="1196.66" y1="576.72" x2="1196.66" y2="479.02"/>
    <line class="cls-2" x1="1351.44" y1="478.53" x2="1505.74" y2="478.53"/>
    <line class="cls-2" x1="1351.44" y1="576.72" x2="1351.44" y2="479.02"/>
    <line class="cls-2" x1="35.79" y1="577.21" x2="577.53" y2="577.21"/>
    <line class="cls-2" x1="577.53" y1="577.21" x2="732.31" y2="577.21"/>
    <line class="cls-2" x1="577.53" y1="661.85" x2="577.53" y2="577.69"/>
    <line class="cls-2" x1="732.31" y1="577.21" x2="887.09" y2="577.21"/>
    <line class="cls-2" x1="732.31" y1="661.85" x2="732.31" y2="577.69"/>
    <line class="cls-2" x1="887.09" y1="577.21" x2="1041.88" y2="577.21"/>
    <line class="cls-2" x1="887.09" y1="661.85" x2="887.09" y2="577.69"/>
    <line class="cls-2" x1="1041.88" y1="577.21" x2="1196.66" y2="577.21"/>
    <line class="cls-2" x1="1041.88" y1="661.85" x2="1041.88" y2="577.69"/>
    <line class="cls-2" x1="1196.66" y1="577.21" x2="1351.44" y2="577.21"/>
    <line class="cls-2" x1="1196.66" y1="661.85" x2="1196.66" y2="577.69"/>
    <line class="cls-2" x1="1351.44" y1="577.21" x2="1506.7" y2="577.21"/>
    <line class="cls-2" x1="1351.44" y1="661.85" x2="1351.44" y2="577.69"/>
    <line class="cls-2" x1="1506.22" y1="661.85" x2="1506.22" y2="577.69"/>
    <line class="cls-2" x1="35.79" y1="662.34" x2="577.53" y2="662.34"/>
    <line class="cls-2" x1="577.53" y1="662.34" x2="732.31" y2="662.34"/>
    <line class="cls-2" x1="577.53" y1="767.78" x2="577.53" y2="662.82"/>
    <line class="cls-2" x1="732.31" y1="662.34" x2="887.09" y2="662.34"/>
    <line class="cls-2" x1="732.31" y1="767.78" x2="732.31" y2="662.82"/>
    <line class="cls-2" x1="887.09" y1="662.34" x2="1041.88" y2="662.34"/>
    <line class="cls-2" x1="887.09" y1="767.78" x2="887.09" y2="662.82"/>
    <line class="cls-2" x1="1041.88" y1="662.34" x2="1196.66" y2="662.34"/>
    <line class="cls-2" x1="1041.88" y1="767.78" x2="1041.88" y2="662.82"/>
    <line class="cls-2" x1="1196.66" y1="662.34" x2="1351.44" y2="662.34"/>
    <line class="cls-2" x1="1196.66" y1="767.78" x2="1196.66" y2="662.82"/>
    <line class="cls-2" x1="1351.44" y1="662.34" x2="1506.7" y2="662.34"/>
    <line class="cls-2" x1="1351.44" y1="767.78" x2="1351.44" y2="662.82"/>
    <line class="cls-2" x1="1506.22" y1="767.78" x2="1506.22" y2="662.82"/>
    <line class="cls-2" x1="34.83" y1="79.83" x2="577.53" y2="79.83"/>
    <line class="cls-2" x1="35.31" y1="194.12" x2="35.31" y2="80.31"/>
    <line class="cls-2" x1="577.53" y1="79.83" x2="732.31" y2="79.83"/>
    <line class="cls-2" x1="732.31" y1="79.83" x2="887.09" y2="79.83"/>
    <line class="cls-2" x1="887.09" y1="79.83" x2="1041.88" y2="79.83"/>
    <line class="cls-2" x1="1041.88" y1="79.83" x2="1196.66" y2="79.83"/>
    <line class="cls-2" x1="1196.66" y1="79.83" x2="1351.44" y2="79.83"/>
    <line class="cls-2" x1="1351.44" y1="79.83" x2="1506.7" y2="79.83"/>
    <line class="cls-2" x1="1506.22" y1="193.64" x2="1506.22" y2="80.31"/>
    <line class="cls-2" x1="35.31" y1="288.92" x2="35.31" y2="194.12"/>
    <line class="cls-2" x1="35.31" y1="383.73" x2="35.31" y2="288.92"/>
    <line class="cls-2" x1="35.31" y1="478.53" x2="35.31" y2="383.73"/>
    <line class="cls-2" x1="578.01" y1="383.73" x2="732.31" y2="383.73"/>
    <line class="cls-2" x1="732.31" y1="383.73" x2="887.09" y2="383.73"/>
    <line class="cls-2" x1="887.09" y1="383.73" x2="1041.88" y2="383.73"/>
    <line class="cls-2" x1="1041.88" y1="383.73" x2="1196.66" y2="383.73"/>
    <line class="cls-2" x1="1196.66" y1="383.73" x2="1351.44" y2="383.73"/>
    <line class="cls-2" x1="1351.44" y1="383.73" x2="1506.7" y2="383.73"/>
    <line class="cls-2" x1="1506.22" y1="478.53" x2="1506.22" y2="384.21"/>
    <line class="cls-2" x1="35.31" y1="577.21" x2="35.31" y2="478.53"/>
    <line class="cls-2" x1="1506.22" y1="576.72" x2="1506.22" y2="478.53"/>
    <line class="cls-2" x1="35.31" y1="662.34" x2="35.31" y2="577.21"/>
    <line class="cls-2" x1="35.31" y1="767.78" x2="35.31" y2="662.34"/>
    <line class="cls-2" x1="34.83" y1="768.26" x2="577.53" y2="768.26"/>
    <line class="cls-2" x1="577.53" y1="768.26" x2="732.31" y2="768.26"/>
    <line class="cls-2" x1="732.31" y1="768.26" x2="887.09" y2="768.26"/>
    <line class="cls-2" x1="887.09" y1="768.26" x2="1041.88" y2="768.26"/>
    <line class="cls-2" x1="1041.88" y1="768.26" x2="1196.66" y2="768.26"/>
    <line class="cls-2" x1="1196.66" y1="768.26" x2="1351.44" y2="768.26"/>
    <line class="cls-2" x1="1351.44" y1="768.26" x2="1506.7" y2="768.26"/>
    <text class="cls-7" transform="translate(136.89 150.36)"><tspan x="0" y="0">SKU DESCRIPTION</tspan></text>
    <text class="cls-7" transform="translate(614.09 150.36)"><tspan x="0" y="0">AUG</tspan></text>
    <text class="cls-7" transform="translate(773.26 150.36)"><tspan x="0" y="0">SEP</tspan></text>
    <text class="cls-7" transform="translate(925.71 150.36)"><tspan x="0" y="0">OCT</tspan></text>
    <text class="cls-7" transform="translate(1079.44 150.36)"><tspan x="0" y="0">NOV</tspan></text>
    <text class="cls-7" transform="translate(1235.23 150.36)"><tspan x="0" y="0">DEC</tspan></text>
    <text class="cls-7" transform="translate(1392.05 150.36)"><tspan x="0" y="0">JAN</tspan></text>
    <text class="cls-4" transform="translate(68.07 254.2)"><tspan x="0" y="0">EVEREAD</tspan><tspan class="cls-9" x="168.36" y="0">Y</tspan><tspan x="191" y="0" xml:space="preserve"> BLACK</tspan><tspan class="cls-11" x="322.55" y="0"> </tspan><tspan x="330.97" y="0">A</tspan><tspan class="cls-11" x="356.12" y="0">A</tspan><tspan x="380.02" y="0" xml:space="preserve"> 24PK</tspan></text>
    <text class="cls-6" transform="translate(617.17 255.26)"><tspan x="0" y="0">30%</tspan></text>
    <text class="cls-6" transform="translate(771.96 255.26)"><tspan x="0" y="0">30%</tspan></text>
    <text class="cls-6" transform="translate(926.76 255.26)"><tspan x="0" y="0">30%</tspan></text>
    <text class="cls-6" transform="translate(1081.56 255.26)"><tspan x="0" y="0">30%</tspan></text>
    <text class="cls-6" transform="translate(1236.36 255.26)"><tspan x="0" y="0">30%</tspan></text>
    <text class="cls-6" transform="translate(1391.16 255.26)"><tspan x="0" y="0">30%</tspan></text>
    <text class="cls-4" transform="translate(55.5 349)"><tspan x="0" y="0">EVEREAD</tspan><tspan class="cls-9" x="168.36" y="0">Y</tspan><tspan x="191" y="0" xml:space="preserve"> BLACK</tspan><tspan class="cls-11" x="322.55" y="0"> </tspan><tspan x="330.97" y="0">AA</tspan><tspan class="cls-11" x="381.27" y="0">A</tspan><tspan x="405.17" y="0" xml:space="preserve"> 24PK</tspan></text>
    <text class="cls-6" transform="translate(617.17 350.06)"><tspan x="0" y="0">30%</tspan></text>
    <text class="cls-6" transform="translate(771.96 350.06)"><tspan x="0" y="0">30%</tspan></text>
    <text class="cls-6" transform="translate(926.76 350.06)"><tspan x="0" y="0">30%</tspan></text>
    <text class="cls-6" transform="translate(1081.56 350.06)"><tspan x="0" y="0">30%</tspan></text>
    <text class="cls-6" transform="translate(1236.36 350.06)"><tspan x="0" y="0">30%</tspan></text>
    <text class="cls-6" transform="translate(1391.16 350.06)"><tspan x="0" y="0">30%</tspan></text>
    <text class="cls-4" transform="translate(75.82 443.81)"><tspan x="0" y="0">EVEREAD</tspan><tspan class="cls-9" x="168.36" y="0">Y</tspan><tspan x="191" y="0" xml:space="preserve"> GOLD</tspan><tspan class="cls-10" x="301.28" y="0"> </tspan><tspan class="cls-3" x="309.67" y="0">AA</tspan><tspan class="cls-11" x="359.97" y="0">A</tspan><tspan x="383.86" y="0" xml:space="preserve"> 8PK</tspan></text>
    <text class="cls-5" transform="translate(605.9 444.51)"><tspan x="0" y="0">LPED</tspan></text>
    <text class="cls-5" transform="translate(760.7 444.51)"><tspan x="0" y="0">LPED</tspan></text>
    <text class="cls-5" transform="translate(915.5 444.51)"><tspan x="0" y="0">LPED</tspan></text>
    <text class="cls-5" transform="translate(1070.3 444.51)"><tspan x="0" y="0">LPED</tspan></text>
    <text class="cls-5" transform="translate(1225.1 444.51)"><tspan x="0" y="0">LPED</tspan></text>
    <text class="cls-5" transform="translate(1379.9 444.51)"><tspan x="0" y="0">LPED</tspan></text>
    <text class="cls-4" transform="translate(88.39 540.55)"><tspan x="0" y="0">EVEREAD</tspan><tspan class="cls-9" x="168.36" y="0">Y</tspan><tspan x="191" y="0" xml:space="preserve"> GOLD</tspan><tspan class="cls-10" x="301.28" y="0"> </tspan><tspan class="cls-3" x="309.67" y="0">A</tspan><tspan class="cls-11" x="334.81" y="0">A</tspan><tspan x="358.71" y="0" xml:space="preserve"> 8PK</tspan></text>
    <text class="cls-5" transform="translate(605.9 541.25)"><tspan x="0" y="0">LPED</tspan></text>
    <text class="cls-5" transform="translate(760.7 541.25)"><tspan x="0" y="0">LPED</tspan></text>
    <text class="cls-5" transform="translate(915.5 541.25)"><tspan x="0" y="0">LPED</tspan></text>
    <text class="cls-5" transform="translate(1070.3 541.25)"><tspan x="0" y="0">LPED</tspan></text>
    <text class="cls-5" transform="translate(1225.1 541.25)"><tspan x="0" y="0">LPED</tspan></text>
    <text class="cls-5" transform="translate(1379.9 541.25)"><tspan x="0" y="0">LPED</tspan></text>
    <text class="cls-4" transform="translate(66.13 632.45)"><tspan x="0" y="0">EVEREAD</tspan><tspan class="cls-9" x="168.36" y="0">Y</tspan><tspan x="191" y="0" xml:space="preserve"> GOLD</tspan><tspan class="cls-10" x="301.28" y="0"> </tspan><tspan class="cls-3" x="309.67" y="0">AA</tspan><tspan class="cls-11" x="359.97" y="0">A</tspan><tspan x="383.86" y="0" xml:space="preserve"> 16PK</tspan></text>
    <text class="cls-6" transform="translate(617.17 633.5)"><tspan x="0" y="0">50%</tspan></text>
    <text class="cls-6" transform="translate(771.96 633.5)"><tspan x="0" y="0">50%</tspan></text>
    <text class="cls-6" transform="translate(926.76 633.5)"><tspan x="0" y="0">50%</tspan></text>
    <text class="cls-6" transform="translate(1081.56 633.5)"><tspan x="0" y="0">50%</tspan></text>
    <text class="cls-6" transform="translate(1236.36 633.5)"><tspan x="0" y="0">50%</tspan></text>
    <text class="cls-6" transform="translate(1391.16 633.5)"><tspan x="0" y="0">50%</tspan></text>
    <text class="cls-4" transform="translate(78.71 727.98)"><tspan x="0" y="0">EVEREAD</tspan><tspan class="cls-9" x="168.36" y="0">Y</tspan><tspan x="191" y="0" xml:space="preserve"> GOLD</tspan><tspan class="cls-10" x="301.28" y="0"> </tspan><tspan class="cls-3" x="309.67" y="0">A</tspan><tspan class="cls-11" x="334.81" y="0">A</tspan><tspan x="358.71" y="0" xml:space="preserve"> 16PK</tspan></text>
    <text class="cls-6" transform="translate(617.17 729.03)"><tspan x="0" y="0">50%</tspan></text>
    <text class="cls-6" transform="translate(771.96 729.03)"><tspan x="0" y="0">50%</tspan></text>
    <text class="cls-6" transform="translate(926.76 729.03)"><tspan x="0" y="0">50%</tspan></text>
    <text class="cls-6" transform="translate(1081.56 729.03)"><tspan x="0" y="0">50%</tspan></text>
    <text class="cls-6" transform="translate(1236.36 729.03)"><tspan x="0" y="0">50%</tspan></text>
    <text class="cls-6" transform="translate(1391.16 729.03)"><tspan x="0" y="0">50%</tspan></text>
  </g>
</svg>