<svg width="24" height="102" viewBox="0 0 24 102" fill="none" xmlns="http://www.w3.org/2000/svg">
<rect width="24" height="102" fill="#DA291C"/>
<path d="M5.728 82.9343C5.728 81.0143 6.88 79.4543 8.812 79.2383L8.812 81.0623C7.948 81.1943 7.312 81.9983 7.312 82.9343C7.312 84.4703 8.524 85.2623 10.252 85.2623C11.86 85.2623 13.12 84.5063 13.12 82.9343C13.12 81.8543 12.424 81.1463 11.2 80.9903L11.2 79.1663C13.36 79.3583 14.704 80.8583 14.704 82.9343C14.704 85.5503 12.76 87.1463 10.252 87.1463C7.72 87.1463 5.728 85.5863 5.728 82.9343ZM5.932 77.9098L5.932 76.2058L9.16 76.2058L9.16 76.1698C8.524 75.7858 8.128 75.0658 8.128 74.3458C8.128 72.7738 8.908 72.0898 10.624 72.0898L14.5 72.0898L14.5 73.7938L10.972 73.7938C9.964 73.7938 9.472 74.0938 9.472 74.8858C9.472 75.9298 10.156 76.2058 11.248 76.2058L14.5 76.2058L14.5 77.9098L5.932 77.9098ZM8.128 67.7905C8.128 65.9785 8.74 65.0785 9.892 65.0785L13.18 65.0785C13.672 65.0785 14.248 65.0185 14.5 64.8625L14.5 66.5905C14.308 66.6505 14.104 66.6985 13.9 66.7105C14.404 67.1905 14.668 67.9225 14.668 68.7985C14.668 70.0705 14.008 70.9105 12.808 70.9105C11.908 70.9105 11.32 70.4785 11.056 69.4825C10.888 68.8465 10.852 68.0425 10.744 67.5145C10.636 67.0105 10.468 66.7825 10.096 66.7825C9.388 66.7825 9.268 67.2985 9.268 67.8745C9.268 68.5825 9.556 68.9545 10.204 69.0145L10.204 70.7185C8.848 70.6465 8.128 69.5305 8.128 67.7905ZM12.736 69.2065C13.228 69.2065 13.528 68.9065 13.528 68.1625C13.528 67.2505 13.036 66.7825 12.124 66.7825L11.464 66.7825C11.608 66.9385 11.692 67.2385 11.764 67.8145C11.872 68.6905 12.088 69.2065 12.736 69.2065ZM6.436 63.1499L6.436 61.4459L8.296 61.4459L8.296 60.1979L9.436 60.1979L9.436 61.4459L12.508 61.4459C13.084 61.4459 13.228 61.3019 13.228 60.7259C13.228 60.5339 13.216 60.3419 13.18 60.1979L14.512 60.1979C14.56 60.4859 14.572 60.8699 14.572 61.2059C14.572 62.4899 14.176 63.1499 13.072 63.1499L9.436 63.1499L9.436 64.1819L8.296 64.1819L8.296 63.1499L6.436 63.1499ZM8.296 56.3233L8.296 54.5233L12.508 53.3833L12.508 53.3593L8.296 52.3273L8.296 50.6713L12.496 49.6153L12.496 49.5913L8.296 48.4513L8.296 46.6993L14.5 48.6553L14.5 50.4073L10.336 51.5113L10.336 51.5353L14.5 52.5913L14.5 54.3553L8.296 56.3233ZM5.932 45.7759L5.932 44.0719L7.336 44.0719L7.336 45.7759L5.932 45.7759ZM8.296 45.7759L8.296 44.0719L14.5 44.0719L14.5 45.7759L8.296 45.7759ZM6.436 42.1241L6.436 40.4201L8.296 40.4201L8.296 39.1721L9.436 39.1721L9.436 40.4201L12.508 40.4201C13.084 40.4201 13.228 40.2761 13.228 39.7001C13.228 39.5081 13.216 39.3161 13.18 39.1721L14.512 39.1721C14.56 39.4601 14.572 39.8441 14.572 40.1801C14.572 41.4641 14.176 42.1241 13.072 42.1241L9.436 42.1241L9.436 43.1561L8.296 43.1561L8.296 42.1241L6.436 42.1241ZM5.932 38.2114L5.932 36.5074L9.16 36.5074L9.16 36.4714C8.524 36.0874 8.128 35.3674 8.128 34.6474C8.128 33.0754 8.908 32.3914 10.624 32.3914L14.5 32.3914L14.5 34.0954L10.972 34.0954C9.964 34.0954 9.472 34.3954 9.472 35.1874C9.472 36.2314 10.156 36.5074 11.248 36.5074L14.5 36.5074L14.5 38.2114L5.932 38.2114ZM8.296 27.4583L8.296 25.7543L11.812 25.7543C12.76 25.7543 13.324 25.5023 13.324 24.6623C13.324 23.7263 12.784 23.3423 11.56 23.3423L8.296 23.3423L8.296 21.6383L14.5 21.6382L14.5 23.2583L13.636 23.2583L13.636 23.2943C14.332 23.7263 14.668 24.4463 14.668 25.2023C14.668 26.8223 13.852 27.4583 12.148 27.4583L8.296 27.4583ZM8.128 17.651C8.128 15.971 8.824 15.023 10.108 14.915L10.108 16.535C9.508 16.583 9.268 16.991 9.268 17.699C9.268 18.359 9.472 18.647 9.844 18.647C10.24 18.647 10.444 18.275 10.636 17.315C10.888 16.055 11.08 15.599 11.392 15.227C11.68 14.903 12.04 14.747 12.508 14.747C14.104 14.747 14.668 16.127 14.668 17.579C14.668 19.271 13.948 20.447 12.484 20.495L12.484 18.875C13.18 18.875 13.528 18.275 13.528 17.567C13.528 16.991 13.276 16.451 12.736 16.451C12.28 16.451 12.064 16.979 11.788 18.323C11.488 19.763 10.996 20.351 10.12 20.351C8.8 20.351 8.128 19.391 8.128 17.651Z" fill="white"/>
</svg>
