<svg width="48" height="48" viewBox="0 0 48 48" fill="none" xmlns="http://www.w3.org/2000/svg">
<path fill-rule="evenodd" clip-rule="evenodd" d="M36.4998 13.7068L36.2353 13.55L24 6.30005L11.7646 13.55L11.4998 13.7069L7.54547 16.05H8.9998H11.4998V16.6129V18.55V25V27.5H13.9998H33.9998H36.4998V25V18.55V16.6127V16.05H38.9998H40.4544L36.4998 13.7068ZM24 9.20598L33.9998 15.1313V16.05V25H13.9998V16.05V15.1315L24 9.20598ZM16.6416 31.467C17.1143 31.311 17.8085 31.216 18.5604 31.2613C19.3112 31.3066 20.0269 31.4862 20.5785 31.796C21.5606 32.3476 22.7891 32.5824 23.7776 32.694C24.7908 32.8085 25.7084 32.8085 26.1453 32.8085H26.1527C26.8374 32.8085 27.5863 32.9836 28.1206 33.2858C28.3816 33.4334 28.5449 33.5795 28.6434 33.718H20.5555V36.218H29.1666C30.1149 36.218 31.0216 35.8532 31.722 35.4639C32.4387 35.0657 33.0679 34.5699 33.4904 34.1516C34.1644 33.4845 35.1302 33.2008 36.1564 33.2494C36.7008 33.2752 37.2072 33.3924 37.6324 33.5573C36.2854 35.0908 34.5579 36.6524 32.3624 37.7513C29.6805 39.0936 26.2285 39.7825 21.7744 38.7805L21.7606 38.7774L21.7467 38.7746C19.4352 38.3093 16.6813 38.3172 14.2666 38.4263C13.1815 38.4753 12.142 38.5461 11.225 38.6086L11.2248 38.6086L10.896 38.631C10.479 38.6592 10.0962 38.6844 9.75002 38.7043L9.75002 37.6294L9.75 34.6061C9.8664 34.5069 10.0485 34.3756 10.3073 34.2168C10.9286 33.8356 11.7972 33.4127 12.7244 33.0056C14.5699 32.1952 16.4698 31.5237 16.6416 31.467ZM29.3515 31.1098C30.0388 31.4985 30.7124 32.1014 31.0514 32.9359C31.3294 32.7396 31.5657 32.5392 31.7317 32.3749C33.0295 31.0903 34.7498 30.68 36.2747 30.7522C37.7755 30.8233 39.2825 31.369 40.2578 32.2594C40.2991 32.2971 40.3396 32.3355 40.3793 32.3749L41.1715 33.159L40.4828 34.0355C38.9172 36.0281 36.6501 38.4009 33.4813 39.9869C30.2879 41.5852 26.2515 42.347 21.24 41.2227C19.2481 40.824 16.7579 40.8163 14.3793 40.9237C13.3248 40.9713 12.3145 41.0402 11.3951 41.1028L11.3948 41.1028L11.065 41.1253C10.0775 41.1922 9.17593 41.25 8.50003 41.25H7.25004L7.25003 40L8.50003 40L7.25003 40V39.9998V39.9992V39.9968L7.25003 39.9873L7.25003 39.95L7.25003 39.8075L7.25003 39.2892L7.25002 37.6295L7.25 34.3C7.25 33.589 7.71556 33.0901 7.9496 32.8649C8.24521 32.5805 8.62048 32.3188 8.99969 32.086C9.76772 31.6147 10.7599 31.1378 11.7192 30.7165C13.6466 29.8702 15.6216 29.171 15.8583 29.0929C16.6773 28.8227 17.6945 28.7046 18.7107 28.7658C19.7279 28.8271 20.8368 29.0737 21.8028 29.6163C22.3383 29.9171 23.1603 30.1084 24.0582 30.2098C24.9256 30.3078 25.7255 30.3085 26.1527 30.3085C27.1903 30.3085 28.3788 30.5596 29.3515 31.1098ZM9.62208 34.7335C9.62096 34.7336 9.62669 34.725 9.64262 34.7075C9.63116 34.7247 9.62319 34.7334 9.62208 34.7335Z" fill="#0D5257"/>
</svg>
