<svg width="35" height="20" viewBox="0 0 35 20" fill="none" xmlns="http://www.w3.org/2000/svg">
<path d="M31.9273 0.5C33.2494 0.5 34.3255 1.43605 34.3255 2.58611V17.4149C34.3255 18.5649 33.2494 19.5 31.9273 19.5H2.72281C1.40074 19.501 0.325684 18.5649 0.325684 17.4149V2.58611C0.325684 1.43605 1.40074 0.5 2.72281 0.5H31.9273ZM28.8772 10.4805H26.8971L26.7381 10.4865C26.018 10.5395 25.611 10.9505 25.611 11.4906C25.611 12.0956 26.064 12.4486 26.7681 12.4486H27.6531L27.7331 12.4546C27.8831 12.4786 27.9821 12.5716 27.9821 12.7056C27.9821 12.8616 27.8481 12.9627 27.6531 12.9627H25.724V13.6927H27.6581L27.8151 13.6867C28.5272 13.6347 28.9442 13.2287 28.9442 12.6506C28.9442 12.0636 28.5222 11.7196 27.7871 11.7196H26.9021L26.8241 11.7136C26.6741 11.6896 26.5731 11.5966 26.5731 11.4636C26.5731 11.3116 26.7121 11.2106 26.9021 11.2106H28.5022L28.8772 10.4805ZM18.2896 10.4805V13.6917H19.2517V12.5676H19.6017L20.6968 13.6917H21.8898L20.6968 12.5316L20.8308 12.4996C21.3508 12.3556 21.6588 11.9836 21.6588 11.5176C21.6588 10.9035 21.1648 10.4815 20.3727 10.4815L18.2896 10.4805ZM25.207 10.4805H22.1628V13.6917H25.207V12.9617H23.1239V12.4486H25.156V11.7196H23.1239V11.2096H25.207V10.4815V10.4805ZM14.4834 10.4805V13.6917H15.4455V12.6456H16.5615L16.7105 12.6406C17.4356 12.5876 17.8786 12.1486 17.8786 11.5636C17.8786 10.9215 17.3846 10.4815 16.5925 10.4815L14.4834 10.4805ZM32.4134 10.4805H30.4333L30.2743 10.4865C29.5552 10.5395 29.1472 10.9505 29.1472 11.4906C29.1472 12.0956 29.6002 12.4486 30.3043 12.4486H31.1893L31.2693 12.4546C31.4193 12.4786 31.5193 12.5716 31.5193 12.7056C31.5193 12.8616 31.3843 12.9627 31.1893 12.9627H29.2602V13.6927H31.1943L31.3513 13.6867C32.0634 13.6347 32.4804 13.2287 32.4804 12.6506C32.4804 12.0636 32.0584 11.7196 31.3233 11.7196H30.4383L30.3603 11.7136C30.2113 11.6896 30.1092 11.5966 30.1092 11.4636C30.1092 11.3116 30.2483 11.2106 30.4393 11.2106H32.0384L32.4134 10.4805ZM9.78818 10.4805H6.74202V13.6917H9.78718V12.9617H7.70407V12.4486H9.73518V11.7196H7.70407V11.2096H9.78618V10.4815L9.78818 10.4805ZM11.2123 10.4805H9.95619L11.5413 12.0686L9.92619 13.6907H11.1503L12.1323 12.6726L13.1144 13.6907H14.3694L12.7443 12.0486L14.3074 10.4805H13.0834L12.1473 11.4476L11.2113 10.4805H11.2123ZM16.4795 11.2106C16.7675 11.2106 16.9116 11.3706 16.9116 11.5686C16.9116 11.7606 16.7675 11.9166 16.4795 11.9166H15.4455V11.2106H16.4795ZM20.2597 11.2106C20.5477 11.2106 20.6918 11.3616 20.6918 11.5366C20.6918 11.7146 20.5477 11.8566 20.2597 11.8566H19.2517V11.2106H20.2597ZM20.6358 6.35031H19.6737V9.56048H20.6358V6.35031ZM15.8015 6.35031V9.56048H16.7625V8.43742H17.1126L18.2066 9.56048H19.4007L18.2066 8.40042L18.3416 8.36941C18.8617 8.22441 19.1687 7.85239 19.1687 7.38736C19.1687 6.77233 18.6746 6.35031 17.8826 6.35031H15.8015ZM24.0919 6.35031H22.9399L22.7569 6.35631C21.6898 6.42231 21.1448 7.07635 21.1448 7.92339V7.98739L21.1508 8.1414C21.2188 9.04145 21.8898 9.56148 22.8939 9.56148H23.2229L23.6089 8.83144H23.0429L22.9129 8.82644C22.4128 8.78644 22.1068 8.49942 22.1068 7.98339V7.92339L22.1118 7.81538C22.1548 7.39536 22.4518 7.10235 23.0219 7.10235H24.0919V6.35031ZM4.97393 6.35031H3.72786L2.13878 9.56048H3.19883L3.50185 8.91044H5.16794L5.47695 9.56048H6.56201L4.97293 6.35031H4.97393ZM8.2551 6.35031H6.74202V9.56048H7.68807V7.25035L8.64012 9.56148H9.49417L10.4452 7.25035V9.56048H11.3913V6.35031H9.89619L9.07614 8.37341L8.2541 6.35031H8.2551ZM15.1725 6.35031H12.1283V9.56048H15.1725V8.83144H13.0894V8.31841H15.1215V7.58837H13.0894V7.08035H15.1725V6.35031ZM26.5041 6.35031H25.259L23.6699 9.56048H24.73L25.033 8.91044H26.6991L27.0081 9.56048H28.0931L26.5041 6.35031ZM29.4872 6.35031H28.2732V9.56048H29.2302V7.53037L30.7423 9.56148H31.9043V6.35031H30.9533V8.30841L29.4862 6.35031H29.4872ZM4.33589 7.13035L4.83992 8.2034H3.83087L4.33589 7.13035ZM25.867 7.13035L26.3701 8.2034H25.362L25.866 7.13035H25.867ZM17.7706 7.08035C18.0586 7.08035 18.2026 7.23035 18.2026 7.40536C18.2026 7.58437 18.0586 7.72538 17.7706 7.72538H16.7625V7.08035H17.7706Z" fill="#A6BFBF"/>
</svg>
