<svg width="33" height="34" viewBox="0 0 33 34" fill="none" xmlns="http://www.w3.org/2000/svg">
<path d="M17.6239 19.3585C18.0206 19.4462 18.3669 19.6869 18.5878 20.0285C18.7632 20.3023 18.8275 20.6329 18.7677 20.9527C18.6925 21.2731 18.4999 21.5534 18.2281 21.7382C18.0599 21.8513 17.871 21.93 17.6723 21.9696C17.4736 22.0093 17.2691 22.0092 17.0705 21.9693C16.468 21.8631 15.9046 21.5984 15.4379 21.2022C15.02 20.8454 14.6955 20.3917 14.4924 19.8807C14.2974 19.3636 14.2417 18.8042 14.331 18.2588C14.4292 17.6326 14.6865 17.0422 15.0781 16.5444C15.387 16.1494 15.7433 15.794 16.1389 15.4863C16.5847 15.1258 17.0367 14.7669 17.4948 14.4096C17.9529 14.0523 18.3772 13.6857 18.7677 13.3098C19.1245 12.9877 19.4077 12.592 19.5978 12.15C19.7608 11.7538 19.7723 11.3112 19.6301 10.907C19.3859 10.3597 18.9824 9.89909 18.4725 9.58546L18.2788 9.52076L18.0482 9.45607C17.1269 9.49539 16.2346 9.78969 15.4701 10.3063C14.6967 10.8214 14.0141 11.4616 13.4501 12.2008C13.2122 12.5304 12.8543 12.7528 12.454 12.82C12.2922 12.8478 12.1265 12.843 11.9665 12.8061C11.8065 12.7692 11.6554 12.7008 11.522 12.605C11.3886 12.5091 11.2755 12.3877 11.1893 12.2477C11.103 12.1078 11.0454 11.952 11.0197 11.7896C10.9872 11.5875 10.995 11.381 11.0425 11.182C11.09 10.983 11.1762 10.7953 11.2964 10.6298C11.7588 10.0426 12.2779 9.50239 12.846 9.01709C13.4305 8.50304 14.0765 8.06377 14.7691 7.7094C15.4344 7.36763 16.1414 7.11442 16.8722 6.9562C17.55 6.80948 18.2513 6.80948 18.9291 6.9562C19.5998 7.10664 20.2217 7.42455 20.7369 7.88037C21.3571 8.45842 21.8314 9.17588 22.1205 9.97361C22.3514 10.5092 22.4526 11.0919 22.4157 11.6741C22.3722 12.2143 22.2398 12.7437 22.0236 13.2405C21.8028 13.7452 21.5057 14.2128 21.1428 14.6268C20.7644 15.0593 20.3493 15.4582 19.9022 15.819C19.6472 16.0249 19.3809 16.2162 19.1043 16.3919C18.7186 16.6467 18.3532 16.9309 18.0113 17.2422C17.6895 17.5275 17.4099 17.8573 17.1812 18.2218C17.0881 18.3623 17.0321 18.5242 17.0184 18.6922C17.0047 18.8603 17.0337 19.0291 17.1028 19.1829C17.1443 19.2291 17.1765 19.2476 17.1996 19.2476C17.2622 19.2902 17.3361 19.3128 17.4118 19.3123C17.4845 19.3163 17.5561 19.3319 17.6239 19.3585ZM14.8844 25.3055C14.8826 25.069 14.9277 24.8344 15.0172 24.6155C15.1068 24.3966 15.2388 24.1977 15.4058 24.0304C15.5727 23.8631 15.7713 23.7308 15.9897 23.6411C16.2082 23.5514 16.4424 23.5062 16.6785 23.508C16.9169 23.5045 17.1536 23.5489 17.3746 23.6386C17.5956 23.7283 17.7964 23.8614 17.9652 24.0302C18.139 24.1933 18.2767 24.391 18.3697 24.6106C18.4626 24.8303 18.5086 25.067 18.5048 25.3055C18.5048 25.7957 18.3104 26.2659 17.9645 26.6125C17.6185 26.9591 17.1493 27.1539 16.66 27.1539C16.4223 27.1507 16.1878 27.0977 15.9717 26.9982C15.7557 26.8987 15.5628 26.755 15.4056 26.5763C15.2394 26.4093 15.1078 26.2111 15.0184 25.993C14.9289 25.7749 14.8834 25.5413 14.8844 25.3055Z" fill="#4A4A4A"/>
<path fill-rule="evenodd" clip-rule="evenodd" d="M16.5 2.61538C8.5556 2.61538 2.11538 9.0556 2.11538 17C2.11538 24.9444 8.5556 31.3846 16.5 31.3846C24.4444 31.3846 30.8846 24.9444 30.8846 17C30.8846 9.0556 24.4444 2.61538 16.5 2.61538ZM0 17C0 7.8873 7.3873 0.5 16.5 0.5C25.6127 0.5 33 7.8873 33 17C33 26.1127 25.6127 33.5 16.5 33.5C7.3873 33.5 0 26.1127 0 17Z" fill="#4A4A4A"/>
</svg>
