<svg width="51" height="48" viewBox="0 0 51 48" fill="none" xmlns="http://www.w3.org/2000/svg">
<path fill-rule="evenodd" clip-rule="evenodd" d="M34 9.25C32.9776 9.25 32.0013 9.91771 31.5352 10.9791C33.683 11.6375 35.25 13.6398 35.25 16V17.25H24.75V16C24.75 13.4561 26.5563 11.3436 28.9458 10.856C29.5534 8.53996 31.5157 6.75 34 6.75C37.0076 6.75 39.25 9.37339 39.25 12.3777V25.8099H43.2499V30.6891C43.2499 32.5774 42.6692 34.4096 41.2964 35.7697C40.2865 36.7703 38.9311 37.4332 37.2651 37.715V40H34.7651V37.8693H17.8447V40H15.3447V37.7996C13.3973 37.5867 11.834 36.8898 10.7035 35.7697C9.33078 34.4096 8.75 32.5774 8.75 30.6891V25.8099H36.75V12.3777C36.75 10.537 35.4194 9.25 34 9.25ZM27.5498 14.75H32.4479C31.991 13.8612 31.0638 13.25 30 13.25C28.9332 13.25 28.0056 13.8587 27.5498 14.75ZM11.25 30.6891V28.3099H40.7499V30.6891C40.7499 32.0743 40.3307 33.2072 39.5368 33.9938C38.746 34.7773 37.4297 35.3693 35.3333 35.3693H16.6667C14.5702 35.3693 13.2539 34.7773 12.4631 33.9938C11.6692 33.2072 11.25 32.0743 11.25 30.6891ZM24.6667 18.6666V22.6666H27.1667V18.6666H24.6667ZM28.6667 24V20H31.1667V24H28.6667ZM32.6667 18.6666V22.6666H35.1667V18.6666H32.6667Z" fill="#0D5257"/>
</svg>
