<?xml version="1.0" encoding="utf-8"?>
<!-- Generator: Adobe Illustrator 26.0.0, SVG Export Plug-In . SVG Version: 6.00 Build 0)  -->
<svg version="1.1" id="Layer_1" xmlns="http://www.w3.org/2000/svg" xmlns:xlink="http://www.w3.org/1999/xlink" x="0px" y="0px"
	 viewBox="0 0 16 18" style="enable-background:new 0 0 16 18;" xml:space="preserve">
<style type="text/css">
	.st0{fill:#ABBEBF;}
</style>
<path class="st0" d="M13.5,14.5h-2.3v-3.6c0-0.9,0-2-1.2-2s-1.4,0.9-1.4,1.9v3.7H6.3V7h2.2v1h0c0.3-0.6,1.1-1.2,2.2-1.2
	c2.4,0,2.8,1.6,2.8,3.6L13.5,14.5L13.5,14.5z M3.6,6C2.9,6,2.3,5.4,2.3,4.7s0.6-1.3,1.3-1.3S5,3.9,5,4.7S4.4,6,3.6,6 M4.8,14.5H2.5
	V7h2.3C4.8,7,4.8,14.5,4.8,14.5z M14.7,1.1H1.3c-0.6,0-1.2,0.5-1.2,1.1v13.4c0,0.6,0.5,1.1,1.2,1.1h13.4c0.6,0,1.2-0.5,1.2-1.1V2.3
	C15.8,1.7,15.3,1.1,14.7,1.1"/>
</svg>
