<svg width="97" height="26" viewBox="0 0 97 26" fill="none" xmlns="http://www.w3.org/2000/svg">
<path fill-rule="evenodd" clip-rule="evenodd" d="M16.9728 17.318C16.734 17.6971 16.4267 17.9805 16.0499 18.1679C15.6734 18.3557 15.1535 18.4494 14.4901 18.4494H12.1867V10.2544H13.4786C14.2283 10.2544 14.7764 10.3029 15.1234 10.3992C15.6156 10.5291 16.0069 10.7705 16.2978 11.1233C16.5886 11.4762 16.734 11.8924 16.734 12.371C16.734 12.6832 16.6684 12.9666 16.5369 13.2209C16.4044 13.4752 16.1905 13.7137 15.8938 13.9366C16.3908 14.1706 16.755 14.4634 16.9851 14.814C17.2152 15.1652 17.3305 15.5805 17.3305 16.0591C17.3305 16.5199 17.211 16.9396 16.9728 17.318ZM20.0892 14.7671V16.918H22.9843L26.8714 7.72836L8.59978 0L0.871094 18.2713L19.1427 26L22.3367 18.4494H18.5459V10.2544H23.0237V11.7861H20.0892V13.2587H23.0234V14.7671H20.0892ZM14.9435 13.229C15.1322 13.0693 15.2259 12.8518 15.2259 12.5762C15.2259 12.3196 15.1367 12.1157 14.9577 11.9651C14.7787 11.8145 14.5062 11.7389 14.1408 11.7389H13.7297V13.4687H14.0781C14.4665 13.4687 14.7547 13.3889 14.9435 13.229ZM15.3962 15.1678C15.128 14.9633 14.682 14.8602 14.0584 14.8602H13.7297V16.9648H14.1265C14.7841 16.9648 15.2272 16.8828 15.456 16.7192C15.6848 16.5557 15.7991 16.3173 15.7991 16.0044C15.7991 15.6513 15.6647 15.3721 15.3962 15.1675V15.1678ZM27.487 12.4347L26.3728 15.258H28.5902L27.487 12.4347ZM26.7021 10.2544H28.2719L31.4152 18.4494H29.7946L29.1593 16.7658H25.8002L25.1458 18.4494H23.5243L26.7021 10.2544ZM32.2851 10.2547H33.8514V15.5495C33.8514 16.0057 33.8914 16.3282 33.9709 16.517C34.0511 16.7063 34.1829 16.8576 34.3671 16.9707C34.5513 17.0838 34.7733 17.14 35.0334 17.14C35.3084 17.14 35.5453 17.0773 35.7444 16.9513C35.9431 16.8249 36.0808 16.6646 36.1573 16.4698C36.2333 16.2749 36.2717 15.903 36.2717 15.3546V10.2544H37.8377V15.1358C37.8377 15.9599 37.7915 16.5312 37.6988 16.8501C37.6054 17.1694 37.4283 17.4774 37.1656 17.7743C36.9038 18.0716 36.602 18.2907 36.2601 18.4335C35.9182 18.5764 35.5201 18.6481 35.0671 18.6481C34.4725 18.6481 33.9548 18.5114 33.514 18.239C33.0736 17.9663 32.7588 17.625 32.5691 17.215C32.3794 16.8046 32.2848 16.1121 32.2848 15.1358V10.2544M40.1821 10.2544H41.6705L43.5794 15.9702L45.4972 10.2544H47.007L48.3781 18.4494H46.8732L45.9991 13.2739L44.2631 18.4494H42.8875L41.1593 13.2739L40.2519 18.4494H38.7454L40.1821 10.2544ZM53.1923 11.587C52.4316 11.587 51.7921 11.8498 51.2744 12.3755C50.7561 12.9013 50.4976 13.5695 50.4976 14.3806C50.4976 15.2838 50.8233 15.998 51.4758 16.5234C51.9828 16.9345 52.5641 17.14 53.2201 17.14C53.9617 17.14 54.5935 16.8734 55.1157 16.3405C55.6372 15.8073 55.898 15.1504 55.898 14.3693C55.898 13.5915 55.6353 12.9339 55.1095 12.3949C54.5844 11.8565 53.9452 11.587 53.1923 11.587ZM53.2143 10.0553C54.3731 10.0553 55.3693 10.4748 56.2024 11.3124C57.0361 12.1503 57.453 13.1724 57.453 14.3768C57.453 15.5708 57.042 16.5813 56.2195 17.4079C55.3975 18.2345 54.3993 18.6481 53.2256 18.6481C51.9963 18.6481 50.9752 18.2238 50.1622 17.3749C49.3495 16.5254 48.9423 15.5168 48.9423 14.349C48.9423 13.567 49.1317 12.8473 49.5104 12.191C49.8891 11.535 50.41 11.0148 51.0728 10.6312C51.7359 10.2476 52.4494 10.0553 53.2143 10.0553ZM58.6641 10.2544H60.1315L63.68 15.6471V10.2544H65.2227V18.4494H63.745L60.2075 13.0729V18.4494H58.6641V10.2544ZM66.0047 10.2544H70.5291V11.7974H69.0326V18.4494H67.4544V11.7974H66.0047V10.2544Z" fill="white"/>
<path fill-rule="evenodd" clip-rule="evenodd" d="M73.4219 10.2539H77.9462V11.7969H76.4494V18.4489H74.8715V11.7969H73.4219V10.2539ZM78.6316 18.4489H80.1743V10.2539H78.6316V18.4489ZM81.6333 10.2539H83.1764V16.9644H85.4791V18.4489H81.6333V10.2539ZM86.3926 10.2539H90.8701V11.7853H87.9356V13.2582H90.8701V14.7666H87.9356V16.9175H90.8701V18.4489H86.3926V10.2539ZM96.3455 11.3743L95.188 12.3931C94.7815 11.8322 94.3676 11.5513 93.9465 11.5513C93.7416 11.5513 93.5739 11.6063 93.443 11.7155C93.3128 11.8244 93.2472 11.9478 93.2472 12.0849C93.2472 12.2222 93.2944 12.3518 93.3871 12.4739C93.5132 12.6371 93.8948 12.9871 94.5314 13.5241C95.1273 14.0208 95.4879 14.3336 95.6149 14.4632C95.9313 14.7818 96.1552 15.0862 96.2874 15.3774C96.4198 15.6682 96.4861 15.9859 96.4861 16.3307C96.4861 17.0009 96.2528 17.5547 95.7881 17.9916C95.3231 18.4295 94.7172 18.6476 93.9694 18.6476C93.3852 18.6476 92.8766 18.5048 92.4432 18.2182C92.0102 17.9315 91.6386 17.4814 91.3297 16.8677L92.6429 16.076C93.0368 16.8005 93.4912 17.1631 94.0047 17.1631C94.2729 17.1631 94.4981 17.0852 94.6807 16.9295C94.8626 16.7737 94.9544 16.5944 94.9544 16.3905C94.9544 16.2053 94.8852 16.0201 94.7479 15.8346C94.6102 15.6495 94.3068 15.3664 93.8376 14.9844C92.9444 14.258 92.3673 13.6983 92.1065 13.3034C91.8464 12.9089 91.7158 12.5153 91.7158 12.1223C91.7158 11.5559 91.933 11.0695 92.3666 10.664C92.8003 10.2581 93.3354 10.0552 93.972 10.0552C94.3818 10.0552 94.7718 10.1499 95.1418 10.3395C95.5128 10.5286 95.9141 10.8737 96.3455 11.3743Z" fill="white"/>
</svg>
