<svg width="51" height="48" viewBox="0 0 51 48" fill="none" xmlns="http://www.w3.org/2000/svg">
<path fill-rule="evenodd" clip-rule="evenodd" d="M12.374 9.41961C12.5665 9.2086 12.9044 9.19334 13.1128 9.3803L13.1152 9.3825L19.6297 15.1974L19.6305 15.1982C19.8418 15.3887 19.8564 15.7202 19.6711 15.9255L19.6659 15.9312L18.6762 17.0414C18.4837 17.2524 18.1458 17.2677 17.9375 17.0807L17.935 17.0785L11.4206 11.2636L11.4198 11.2629C11.2119 11.0755 11.1886 10.7502 11.3847 10.5294L12.374 9.41961ZM14.7812 7.51845C13.5419 6.4077 11.6272 6.51588 10.5164 7.74649L10.5113 7.75222L9.51751 8.86697C8.4109 10.1104 8.51151 12.0121 9.75091 13.1243L9.75337 13.1265L16.2678 18.9414L16.269 18.9425C17.2882 19.8561 18.7645 19.9451 19.8745 19.2633L22.9564 22.549L22.0194 27.4327L19.6562 36.0286L39.6599 41.1729L39.6831 41.178C40.878 41.4373 41.9963 40.9759 42.652 40.1538C43.3174 39.3195 43.5093 38.0863 42.8018 37.0099L42.7983 37.0046L35.2971 25.7172L24.7675 26.3769L25.6518 21.7684L21.6299 17.4804C22.6366 16.2411 22.4961 14.4106 21.2994 13.3367L21.2969 13.3345L14.7825 7.51964L14.7812 7.51845ZM24.0037 29.6458L33.298 35.2363L34.5866 33.094L27.3181 28.722L34.0135 28.3025L40.7138 38.3848C40.7517 38.4432 40.7497 38.4731 40.7489 38.4841C40.7474 38.5041 40.7375 38.5448 40.6975 38.5949C40.6209 38.691 40.4629 38.7827 40.2308 38.7384L22.7405 34.2405L24.0037 29.6458Z" fill="#0D5257"/>
</svg>
