<svg width="57" height="24" viewBox="0 0 57 24" fill="none" xmlns="http://www.w3.org/2000/svg">
<g clip-path="url(#clip0_484_6880)">
<path d="M51.6669 5.83894C51.6724 5.93476 51.6778 6.0193 51.6778 6.11511C51.6778 8.36953 49.9164 10.19 47.7419 10.19C45.5674 10.19 43.8006 8.36389 43.8006 6.11511C43.8006 3.86069 45.5619 2.03461 47.7419 2.03461C49.2206 2.03461 50.509 2.88002 51.1831 4.13122L49.9708 5.24716C49.6283 4.31158 48.7639 3.64652 47.7419 3.64652C46.4263 3.64652 45.3608 4.75119 45.3608 6.11511C45.3608 7.47903 46.4263 8.5837 47.7419 8.5837C48.6824 8.5837 49.4924 8.0201 49.8838 7.19723L47.8343 7.20287V5.84458L51.6669 5.83894ZM41.115 2.16424H42.7133L42.7187 10.0096L37.2552 5.50078V10.004H35.6569L35.6624 2.16424L41.1204 6.66744V2.16424H41.115ZM30.1282 2.16424H31.7265L31.7319 10.0096L26.2684 5.50078V10.004H24.6701L24.6755 2.16424L30.1336 6.66744V2.16424H30.1282ZM34.4772 2.16424V10.004H32.879L32.8844 2.16424H34.4772ZM13.6561 2.16424H15.2489V7.04506C15.2489 8.75842 13.8246 10.1449 12.172 10.1449C10.5193 10.1449 9.09499 8.75842 9.09499 7.04506L9.10043 2.15861H10.6933V7.0507C10.6933 7.84538 11.4 8.49352 12.172 8.49352C12.9385 8.49352 13.6506 7.84538 13.6506 7.0507L13.6561 2.16424ZM21.903 2.16424H23.5013L23.5067 10.0096L18.0432 5.50078V10.004H16.4449L16.4504 2.16424L21.9084 6.66744V2.16424H21.903ZM54.6732 10.2069C53.6349 10.2069 52.7488 9.75036 52.2106 9.16985L53.0913 8.02009C53.4283 8.36953 53.9611 8.7866 54.7004 8.7866C55.1299 8.7866 55.5593 8.45407 55.5593 7.87356C55.5593 6.63926 52.3302 6.61108 52.3302 4.39612C52.3302 3.09983 53.3413 2.05152 54.5917 2.05152C55.5702 2.05152 56.2878 2.41223 56.826 2.99274L55.929 4.16504C55.5757 3.76488 55.1353 3.56198 54.6787 3.56198C54.2274 3.56762 53.8197 3.83815 53.8197 4.39612C53.8197 5.62477 57 5.46697 57 7.86229C57.0054 9.15858 55.9236 10.2069 54.6732 10.2069ZM0.891559 5.93476L0.00543634 6.5829L0 4.47502L0.891559 3.82124V0H5.15365C6.45293 0 7.50214 1.08212 7.50214 2.4235C7.50214 3.1111 7.23033 3.73106 6.78998 4.17067C7.66523 4.60465 8.26323 5.52896 8.26323 6.59981C8.26323 7.51285 7.82289 8.31881 7.15965 8.80351C6.73562 9.11349 5.47983 10.004 5.47983 10.004H1.74506L6.703 6.38001V4.27212L0.891559 8.51607V5.93476ZM0.179399 4.55956V6.23347L5.52875 2.32205H3.23462L0.179399 4.55956Z" fill="white"/>
<path d="M0.177734 6.23417V4.56027L3.23295 2.32275H5.52709L0.177734 6.23417Z" fill="#DA291C"/>
<path d="M5.72955 24.0039V15.0144H7.50723V12.1118H0.923828V15.0144H2.6254V24.0039H5.72955Z" fill="white"/>
<path fill-rule="evenodd" clip-rule="evenodd" d="M11.9225 17.6013V14.6706C12.776 14.6255 13.3849 15.0651 13.3849 16.1078C13.3849 16.8799 12.9445 17.6239 12.1237 17.6239L11.9225 17.6013ZM16.9892 24.0039L14.6787 19.0498C15.9128 18.5425 16.4564 17.3759 16.4564 16.0683C16.4564 12.929 14.5102 12.1118 11.8138 12.1118H8.81836V24.0039H11.9225V20.8364C11.9225 20.2503 11.8899 19.6698 11.879 19.0836L11.9116 19.0498L13.6295 24.0039H16.9892Z" fill="white"/>
<path fill-rule="evenodd" clip-rule="evenodd" d="M21.5391 19.9516L21.9631 17.1899C22.0827 16.4459 22.1588 15.6907 22.2512 14.9524H22.2893C22.3654 15.6963 22.4252 16.4516 22.5176 17.1899L22.8547 19.9516H21.5391ZM26.6547 24.0039L24.2192 12.1118H20.4301L17.6738 24.0039H20.8704L21.1313 22.4765H23.2135L23.4418 24.0039H26.6547Z" fill="white"/>
<path fill-rule="evenodd" clip-rule="evenodd" d="M30.9542 15.0764C32.3676 15.0764 32.6123 16.8743 32.6123 18.1706C32.6123 19.2921 32.3676 21.1182 30.9542 21.1351V15.0764ZM27.8555 24.0039H30.5628C32.4492 24.0039 35.7817 23.4966 35.7817 18.0128C35.7817 14.417 33.8789 12.1118 30.3507 12.1118H27.8555V24.0039Z" fill="white"/>
<path d="M37.168 24.0039H42.9359V21.1971H40.2721V19.3823H42.6587V16.5756H40.2721V14.9186H42.9359V12.1118H37.168V24.0039Z" fill="white"/>
</g>
<defs>
<clipPath id="clip0_484_6880">
<rect width="57" height="24" fill="white"/>
</clipPath>
</defs>
</svg>
