<svg width="24" height="24" viewBox="0 0 24 24" fill="none" xmlns="http://www.w3.org/2000/svg">
<g clip-path="url(#clip0_6973_26739)">
<path d="M12.0869 4.09668C11.7134 5.0813 11.3015 6.11926 10.9121 7.00195C10.5408 7.84366 10.1394 8.66411 9.77539 9.11914C9.5299 9.426 9.17498 9.67966 8.84277 9.88379C8.49106 10.0999 8.07469 10.3137 7.63184 10.5186C6.74484 10.9289 5.684 11.3372 4.67773 11.6953C4.38733 11.7987 4.0995 11.8971 3.82031 11.9922C4.06658 12.0755 4.31947 12.1635 4.5752 12.2539C5.56602 12.6041 6.61851 13.0079 7.51855 13.4248C8.36865 13.8186 9.24502 14.2947 9.73438 14.833C10.1902 15.3344 10.6337 16.1869 11.0225 17.0459C11.4289 17.9441 11.8345 18.9858 12.1924 19.9658C12.3057 20.2762 12.4124 20.5825 12.5156 20.877C12.6105 20.6133 12.7064 20.339 12.8096 20.0615C13.1672 19.0995 13.5716 18.0707 13.9756 17.165C14.3687 16.2838 14.7969 15.4363 15.2129 14.8955C15.7087 14.2511 16.608 13.7287 17.4707 13.3164C18.3821 12.8808 19.4441 12.4821 20.4395 12.1475C20.6229 12.0858 20.8053 12.0264 20.9844 11.9688C20.8188 11.913 20.65 11.8578 20.4805 11.7988C19.496 11.4564 18.4447 11.0558 17.5352 10.6309C16.6668 10.2252 15.7858 9.73421 15.2686 9.16992C14.781 8.63798 14.3221 7.77405 13.9229 6.89941C13.5085 5.99184 13.1059 4.95179 12.7559 3.97852C12.6498 3.68351 12.5484 3.39325 12.4521 3.11328C12.3353 3.43035 12.214 3.76152 12.0869 4.09668Z" fill="white" stroke="white" stroke-width="2"/>
</g>
<defs>
<clipPath id="clip0_6973_26739">
<rect width="24" height="24" fill="white"/>
</clipPath>
</defs>
</svg>