<svg xmlns="http://www.w3.org/2000/svg" width="51.16" height="14" viewBox="0 0 51.16 14"><defs><style>.a{fill:rgba(255,255,255,0);}.b{fill:#364045;}.b,.c{stroke:rgba(0,0,0,0);}.c{fill:#4050c6;}</style></defs><g transform="translate(-3 1)"><rect class="a" width="51.16" height="14" transform="translate(3 -1)"/><g transform="translate(-500 -474)"><g transform="translate(294.105 286.764)"><path class="b" d="M367.8,1703.531a3.724,3.724,0,0,1,1.151-2.965,3.433,3.433,0,0,1,2.227-.789,3.028,3.028,0,0,1,2.129.787,3.728,3.728,0,0,1,.936,2.824c0,.311-.024.758-.024.758h-4.608a1.866,1.866,0,0,0,.273.7,2.117,2.117,0,0,0,1.787.9,4.21,4.21,0,0,0,2.107-.569v1.51a6.193,6.193,0,0,1-2.4.552C370.3,1707.236,367.8,1706.875,367.8,1703.531Zm2-1.453a1.718,1.718,0,0,0-.175.778h3.005a1.862,1.862,0,0,0-.14-.771,1.384,1.384,0,0,0-1.313-.8A1.521,1.521,0,0,0,369.8,1702.077Zm6.384,4.4a3.558,3.558,0,0,1-1.04-2.832,3.968,3.968,0,0,1,1.107-3.113,3.292,3.292,0,0,1,2.193-.743,4.509,4.509,0,0,1,1.116.139l.131.035v-2.453l1.789-.494v9.6l-.047.018a8.439,8.439,0,0,1-2.9.577A3.5,3.5,0,0,1,376.183,1706.48Zm.878-2.935a2.183,2.183,0,0,0,.652,1.821,1.617,1.617,0,0,0,1.013.29h.06a3.03,3.03,0,0,0,.832-.139l.071-.024v-3.927l-.068-.025a2.461,2.461,0,0,0-.848-.16C377.7,1701.381,377.061,1702.19,377.061,1703.545Zm22.792,1.389c0-1.409,1.137-2.3,3.2-2.3a5.518,5.518,0,0,1,1.219.142,1.687,1.687,0,0,0-.239-1.092,1.617,1.617,0,0,0-1.227-.382,5.1,5.1,0,0,0-2.169.473h-.013v-1.484a5.088,5.088,0,0,1,2.265-.518c1.4,0,3.256.291,3.256,2.8v4.463h-1.736v-.392a3.547,3.547,0,0,1-2.057.571A2.337,2.337,0,0,1,399.853,1704.934Zm1.832-.022a.952.952,0,0,0,1.078.964,1.938,1.938,0,0,0,1.53-.583v-1.346a5.179,5.179,0,0,0-1.09-.1C402.469,1703.849,401.685,1704.128,401.685,1704.911Zm-19.165.022c0-1.409,1.137-2.3,3.2-2.3a5.518,5.518,0,0,1,1.219.142,1.682,1.682,0,0,0-.24-1.092,1.614,1.614,0,0,0-1.226-.382,5.1,5.1,0,0,0-2.169.473h-.013v-1.484a5.088,5.088,0,0,1,2.265-.518c1.4,0,3.256.291,3.256,2.8v4.463h-1.737v-.392a3.542,3.542,0,0,1-2.056.571A2.337,2.337,0,0,1,382.52,1704.934Zm1.832-.022a.952.952,0,0,0,1.079.964,1.938,1.938,0,0,0,1.53-.583v-1.346a5.179,5.179,0,0,0-1.09-.1C385.136,1703.849,384.351,1704.128,384.351,1704.911Zm12.72,2.143v-6.8l1.811-.551v7.355Zm-3.341,0v-9.544l1.811-.551v10.1Zm-3.37,0v-9.544l1.811-.551v10.1Zm-25.538,0v-6.3l-3.005,3.765h-.1l-2.978-3.738v6.275h-1.842v-9.544h1.678l3.208,4.216,3.208-4.216h1.678v9.544Z" transform="translate(-147 -1509)"/></g><path class="c" d="M577.78,188.515l1.3,1.319,1.3-1.3-1.3-1.3Z" transform="translate(-33.915 286.764)"/></g></g></svg>