<?xml version="1.0" encoding="utf-8"?>
<!-- Generator: Adobe Illustrator 23.0.1, SVG Export Plug-In . SVG Version: 6.00 Build 0)  -->
<svg version="1.1" id="Layer_1" xmlns="http://www.w3.org/2000/svg" xmlns:xlink="http://www.w3.org/1999/xlink" x="0px" y="0px"
	 viewBox="0 0 137 65.2" style="enable-background:new 0 0 137 65.2;" xml:space="preserve">
<style type="text/css">
	.st0{fill-rule:evenodd;clip-rule:evenodd;fill:#0D5358;}
	.st1{fill-rule:evenodd;clip-rule:evenodd;fill:#DB291C;}
	.st2{fill-rule:evenodd;clip-rule:evenodd;fill:#DA291C;stroke:#DC2C1C;stroke-width:0.4252;stroke-miterlimit:10;}
	.st3{fill:#DB291C;}
</style>
<g>
	<g>
		<g id="Header_12_">
			<g id="Logo_12_">
				<g id="Group-2_12_">
					<path id="Combined-shape-17475_12_" class="st0" d="M129.3,6.2c2.3,0,4,0.8,5.2,2.2l0,0l-2.1,2.7c-0.8-0.9-1.9-1.4-2.9-1.4
						c-1,0-2,0.6-2,1.9c0,2.8,7.5,2.4,7.5,7.9c0,3-2.5,5.4-5.5,5.4c-2.4,0-4.5-1-5.8-2.4l0,0l2.1-2.6c0.8,0.8,2,1.8,3.8,1.8
						c1,0,2-0.8,2-2.1c0-2.8-7.6-2.9-7.6-8C124,8.6,126.4,6.2,129.3,6.2z M113.3,6.1c3.5,0,6.5,1.9,8.1,4.8l-2.8,2.5
						c-0.8-2.1-2.8-3.7-5.2-3.7c-3.1,0-5.6,2.5-5.6,5.6c0,3.1,2.5,5.6,5.6,5.6c2.2,0,4.1-1.3,5-3.2l-4.8,0v-3.1h9c0,0.2,0,0.4,0,0.6
						c0,5.2-4.1,9.3-9.2,9.3s-9.2-4.2-9.2-9.3S108.2,6.1,113.3,6.1z M26.5,6.5v11.2c0,1.8,1.7,3.3,3.5,3.3c1.8,0,3.5-1.5,3.5-3.3
						V6.5h3.7v11.2c0,3.9-3.3,7.1-7.2,7.1c-3.9,0-7.2-3.2-7.2-7.1l0-11.2L26.5,6.5L26.5,6.5z M56.5,6.5l0,17.9L43.7,14.1v10.3H40
						l0-17.9l12.8,10.3V6.5H56.5z M75.8,6.5l0,17.9L63,14.1v10.3h-3.8l0-17.9L72,16.7V6.5H75.8z M101.5,6.5l0,17.9L88.7,14.1v10.3
						H85l0-17.9l12.8,10.3V6.5H101.5z M82.2,6.5v17.9h-3.8l0-17.9C78.5,6.5,82.2,6.5,82.2,6.5z M13.5,1.5C16.6,1.5,19,4,19,7
						c0,1.6-0.6,3-1.7,4c2,1,3.5,3.1,3.5,5.6c0,2.1-1,3.9-2.6,5c-1,0.7-3.9,2.7-3.9,2.7H5.5l11.6-8.3v-4.8L3.5,20.9V1.5H13.5z"/>
					<polygon id="Shape-3-copy_12_" class="st1" points="1.2,11.5 8.6,6.2 15.2,6.2 1.2,16.3 					"/>
				</g>
			</g>
		</g>
		<g>
			<polygon id="Fill-16_4_" class="st2" points="90,63 90,55.4 40.1,55.4 40.1,53.7 91.6,53.7 91.6,59.6 99.3,53.7 135.2,53.7 
				135.2,55.4 99.8,55.4 			"/>
		</g>
	</g>
	<g>
		<path class="st3" d="M45.5,41.3l3.5-8.5l3.5,8.5l3.3-7.6H58l-5.6,12L49,37.3l-3.5,8.4l-5.5-12h2.2L45.5,41.3z"/>
		<path class="st3" d="M58.3,39.3c0-3.3,2.6-6,5.9-6c3.3,0,5.9,2.7,5.9,6s-2.6,5.9-5.9,5.9C60.9,45.2,58.3,42.6,58.3,39.3z
			 M60.2,39.3c0,2.3,1.6,4.2,4,4.2s4-1.9,4-4.2c0-2.3-1.6-4.2-4-4.2C61.8,35.1,60.2,37,60.2,39.3z"/>
		<path class="st3" d="M74,34.9L74,34.9c0.7-0.9,1.3-1.5,2.5-1.5c0.7,0,1.2,0.2,1.7,0.5l-0.9,1.8c-0.4-0.3-0.7-0.5-1.2-0.5
			c-2.1,0-2.2,2.7-2.2,4.2v5.6h-1.9V33.7H74V34.9z"/>
		<path class="st3" d="M81.4,37.8l4.1-4.2H88l-4.8,4.8l5.7,6.5h-2.5l-4.5-5.1l-0.5,0.5v4.6h-1.9V28h1.9C81.4,28,81.4,37.8,81.4,37.8
			z"/>
		<path class="st3" d="M94.8,36.3c-0.3-0.6-0.8-1.2-1.5-1.2c-0.7,0-1.4,0.5-1.4,1.2c0,1,1.3,1.4,2.6,2s2.6,1.3,2.6,3.2
			c0,2.1-1.7,3.7-3.8,3.7c-1.9,0-3.4-1.1-4-2.8l1.7-0.7c0.5,1,1,1.8,2.3,1.8c1,0,1.8-0.7,1.8-1.7c0-2.5-5.1-1.7-5.1-5.2
			c0-1.9,1.5-3.2,3.3-3.2c1.3,0,2.5,0.9,3,2.1L94.8,36.3z"/>
		<path class="st3" d="M101.1,28v7l0.1,0c0.8-1.1,1.8-1.7,3.2-1.7c3.1,0,3.8,2.2,3.8,4.9v6.7h-1.9v-6.3c0-1.8-0.1-3.4-2.4-3.4
			c-2.6,0-2.8,2.4-2.8,4.5v5.3h-1.9V28H101.1z"/>
		<path class="st3" d="M110.2,39.3c0-3.3,2.6-6,5.9-6s5.9,2.7,5.9,6s-2.6,5.9-5.9,5.9C112.8,45.2,110.2,42.6,110.2,39.3z
			 M112.1,39.3c0,2.3,1.6,4.2,4,4.2s4-1.9,4-4.2c0-2.3-1.6-4.2-4-4.2S112.1,37,112.1,39.3z"/>
		<path class="st3" d="M125.9,35.3L125.9,35.3c1-1.2,2.4-1.9,3.9-1.9c3.3,0,5.4,2.8,5.4,6c0,3.2-2,5.9-5.4,5.9
			c-1.5,0-2.9-0.7-3.9-1.9h-0.1v7.3H124v-17h1.9V35.3z M125.8,39.2c0,2.2,1.3,4.3,3.7,4.3c2.5,0,3.8-2,3.8-4.3
			c0-2.2-1.4-4.1-3.8-4.1C127.2,35.1,125.8,37,125.8,39.2z"/>
	</g>
</g>
</svg>
