<svg width="106" height="16" viewBox="0 0 106 16" fill="none" xmlns="http://www.w3.org/2000/svg">
<path d="M0.0234375 14.5H5.57544C9.11144 14.5 11.6394 12.228 11.6394 8.64403C11.6394 4.21203 8.53544 2.43604 4.48744 2.43604H0.0234375V14.5ZM4.40744 6.21204H4.67944C6.27944 6.21204 7.25544 6.93203 7.25544 8.62804C7.25544 10.212 6.13544 10.884 4.67944 10.884H4.40744V6.21204Z" fill="white"/>
<path d="M15.7629 10.6758C14.5949 10.6758 13.3789 11.4279 13.3789 12.7078C13.3789 13.9718 14.5949 14.6918 15.7629 14.6918C16.9309 14.6918 18.1469 13.9718 18.1469 12.7078C18.1469 11.4279 16.9309 10.6758 15.7629 10.6758Z" fill="white"/>
<path d="M20.3145 14.5H24.6985V2.43604H20.3145V14.5Z" fill="white"/>
<path d="M29.2727 10.6758C28.1047 10.6758 26.8887 11.4279 26.8887 12.7078C26.8887 13.9718 28.1047 14.6918 29.2727 14.6918C30.4407 14.6918 31.6567 13.9718 31.6567 12.7078C31.6567 11.4279 30.4407 10.6758 29.2727 10.6758Z" fill="white"/>
<path d="M32.6719 2.43604L36.8799 9.30003V14.5H41.1679V9.30003L45.2959 2.43604H40.3679L39.5039 4.45203C39.3439 4.82003 39.2319 5.20404 39.1039 5.58804H38.9759L37.6319 2.43604H32.6719Z" fill="white"/>
<path d="M47.1086 10.6758C45.9406 10.6758 44.7246 11.4279 44.7246 12.7078C44.7246 13.9718 45.9406 14.6918 47.1086 14.6918C48.2766 14.6918 49.4926 13.9718 49.4926 12.7078C49.4926 11.4279 48.2766 10.6758 47.1086 10.6758Z" fill="white"/>
<path d="M65.6698 11.0758L67.0938 14.4998H68.5818L63.1578 1.85986L57.5898 14.4998H59.0618L60.5178 11.0758H65.6698ZM65.1418 9.82786H61.0618L63.1258 4.99586L65.1418 9.82786Z" fill="white"/>
<path d="M73.217 7.95629C74.801 7.95629 75.745 9.17229 75.745 10.6762C75.745 12.1962 74.881 13.5242 73.233 13.5242C71.633 13.5242 70.769 12.1322 70.769 10.6602C70.769 9.25229 71.729 7.95629 73.217 7.95629ZM75.681 14.5002H76.961V1.30029H75.681V8.05229H75.649C75.041 7.25229 74.081 6.77229 73.073 6.77229C70.817 6.77229 69.457 8.61229 69.457 10.7562C69.457 12.8362 70.849 14.7082 73.057 14.7082C74.081 14.7082 75.025 14.2762 75.649 13.4602H75.681V14.5002Z" fill="white"/>
<path d="M79.788 6.97998H78.332L82.0279 14.9959L85.708 6.97998H84.268L82.0279 12.0359L79.788 6.97998Z" fill="white"/>
<path d="M88.6575 6.97984H87.3775V14.4998H88.6575V6.97984ZM88.0175 3.23584C87.5215 3.23584 87.1055 3.65184 87.1055 4.14784C87.1055 4.65984 87.5215 5.05984 88.0175 5.05984C88.5135 5.05984 88.9295 4.65984 88.9295 4.14784C88.9295 3.65184 88.5135 3.23584 88.0175 3.23584Z" fill="white"/>
<path d="M97.1094 7.52397C96.4374 7.04397 95.6054 6.77197 94.7894 6.77197C92.5814 6.77197 90.7734 8.49997 90.7734 10.7399C90.7734 13.0119 92.5014 14.7079 94.7734 14.7079C95.6694 14.7079 96.4214 14.4359 97.1574 13.9399V12.2279H97.1254C96.5014 13.0439 95.7494 13.5239 94.6774 13.5239C93.1094 13.5239 92.0854 12.2279 92.0854 10.7399C92.0854 9.23597 93.1894 7.95597 94.7414 7.95597C95.7494 7.95597 96.4854 8.46797 97.0774 9.21997H97.1094V7.52397Z" fill="white"/>
<path d="M105.878 11.0119C106.006 8.77197 104.726 6.77197 102.31 6.77197C99.9581 6.77197 98.6621 8.61197 98.6621 10.8359C98.6621 12.9959 100.102 14.7079 102.342 14.7079C103.878 14.7079 105.094 13.9399 105.814 12.5959L104.726 11.9719C104.23 12.8679 103.526 13.5239 102.438 13.5239C100.982 13.5239 99.9901 12.4039 99.9741 11.0119H105.878ZM100.038 9.92397C100.198 8.83597 101.222 7.95597 102.326 7.95597C103.446 7.95597 104.358 8.83597 104.534 9.92397H100.038Z" fill="white"/>
</svg>
