<svg width="51" height="48" viewBox="0 0 51 48" fill="none" xmlns="http://www.w3.org/2000/svg">
<path fill-rule="evenodd" clip-rule="evenodd" d="M32.3075 10.7419C30.3183 8.75268 27.2559 8.75268 25.2667 10.7419L16.7196 19.289C18.4673 19.3983 20.1866 20.1349 21.5506 21.4989C22.9145 22.8629 23.6511 24.5821 23.7604 26.3298L32.3075 17.7828C34.2968 15.7935 34.2968 12.7312 32.3075 10.7419ZM12.7419 23.2667L12.7483 23.2604C14.7377 21.2774 17.7956 21.2795 19.7828 23.2667C21.772 25.2559 21.772 28.3182 19.7828 30.3075C17.795 32.2953 14.7356 32.2968 12.7462 30.3118L12.7419 30.3075C10.7527 28.3182 10.7527 25.2559 12.7419 23.2667ZM16.7196 34.2852C18.4673 34.1759 20.1866 33.4392 21.5506 32.0753L34.0753 19.5506C34.3606 19.2653 34.6184 18.9644 34.8488 18.651L37.3386 21.1408L20.3947 37.9602L16.7196 34.2852ZM10.9818 21.4913L10.9742 21.4989L10.9742 21.4989C8.00861 24.4645 8.00861 29.1097 10.9742 32.0753L10.9795 32.0806L20.3881 41.4892L22.504 39.3889L23.8854 40.8567L25.7059 39.1433L24.2789 37.6271L25.2665 36.6467L26.6381 38.104L28.4586 36.3906L27.0414 34.8849L28.0291 33.9045L29.3908 35.3514L31.2113 33.6379L29.804 32.1426L30.7916 31.1623L32.1435 32.5987L33.964 30.8853L32.5665 29.4004L33.5117 28.4622L34.9225 29.8731L36.6903 28.1053L35.2859 26.701L36.2745 25.7197L37.6752 27.1204L39.443 25.3527L38.0488 23.9585L39.0373 22.9772L40.4279 24.3677L42.1957 22.6L40.8116 21.2159L40.8807 21.1473L36.0156 16.2823C36.7345 13.7726 36.0878 10.9867 34.0753 8.97418C31.1097 6.00861 26.4645 6.00861 23.4989 8.97418L10.9818 21.4913ZM15.4478 26.7871C15.4478 26.728 15.4847 26.5481 15.7619 26.3378C16.0316 26.1333 16.451 25.9726 16.9505 25.9726V23.4726C15.9361 23.4726 14.9792 23.7936 14.251 24.3461C13.5303 24.8928 12.9478 25.7451 12.9478 26.7871C12.9478 27.8291 13.5303 28.6814 14.251 29.2281C14.9792 29.7806 15.9361 30.1016 16.9505 30.1016V27.6016C16.451 27.6016 16.0316 27.441 15.7619 27.2364C15.4847 27.0261 15.4478 26.8462 15.4478 26.7871Z" fill="#0D5257"/>
</svg>
