<svg width="36" height="18" viewBox="0 0 36 18" fill="none" xmlns="http://www.w3.org/2000/svg">
<g clip-path="url(#clip0_3850_20546)">
<path d="M0.915482 12.0241L1.22767 14.5675H12.1575L11.7999 11.6547H6.70361L6.65908 11.2938L11.3527 8.01394L11.0391 5.46582H0.110168L0.467825 8.37816H5.57251L5.61704 8.74238L0.915482 12.0241Z" fill="#A6BFBF"/>
<path d="M12.3089 5.46582L13.4269 14.5675H24.3647L23.2467 5.46582H12.3089Z" fill="#A6BFBF"/>
<path d="M35.8346 8.74243C35.5824 6.6968 33.9755 5.45696 31.7912 5.46587H24.5157L25.6332 14.5681H28.9065L28.6824 12.7474H32.146C34.8718 12.747 36.1191 11.0487 35.8346 8.74243ZM31.7921 10.1956L28.3702 10.1993L28.1021 8.01493L31.5432 8.01774C32.3522 8.02758 32.7662 8.48321 32.8332 9.10664C32.8744 9.50789 32.6907 10.1951 31.7921 10.1951V10.1956Z" fill="#A6BFBF"/>
<path d="M15.5767 4.25683C16.1524 3.63885 16.052 2.6097 15.3526 1.95818C14.6532 1.30665 13.6195 1.27946 13.0439 1.89744C12.4682 2.51542 12.5686 3.54456 13.268 4.19609C13.9674 4.84761 15.0011 4.87481 15.5767 4.25683Z" fill="#A6BFBF"/>
</g>
<defs>
<clipPath id="clip0_3850_20546">
<rect width="36" height="13.3594" fill="white" transform="translate(0 1.37109)"/>
</clipPath>
</defs>
</svg>
