<svg width="75" height="18" viewBox="0 0 75 18" fill="none" xmlns="http://www.w3.org/2000/svg">
<path d="M7.03935 10.1087C7.03935 8.83406 6.114 7.93872 4.97535 7.93872C3.83671 7.93872 2.91136 8.84938 2.91136 10.1087C2.91136 11.3534 3.83671 12.2787 4.97535 12.2787C6.114 12.2787 7.03935 11.384 7.03935 10.1087ZM7.05467 13.9027V12.9161C6.49334 13.5987 5.65867 14.0241 4.65733 14.0241C2.57801 14.0241 1 12.3547 1 10.1087C1 7.87806 2.63868 6.17871 4.70267 6.17871C5.674 6.17871 6.49334 6.60403 7.05467 7.27138V6.31537H8.92133V13.9027H7.05467Z" fill="#A6BFBF"/>
<path d="M17.9867 12.218C17.334 12.218 17.152 11.9754 17.152 11.338V7.96934H18.3507V6.31534H17.152V4.464H15.24V6.31534H12.7769V5.5605C12.7769 4.92317 13.0195 4.68049 13.6875 4.68049H14.1077V3.2085H13.1869C11.6088 3.2085 10.8649 3.72449 10.8649 5.3025V6.31534H9.80286V7.96934H10.8649V13.9027H12.7769V7.96934H15.24V11.6873C15.24 13.2353 15.832 13.9027 17.3793 13.9027H18.366V12.218H17.9867V12.218Z" fill="#A6BFBF"/>
<path d="M24.8463 9.42605C24.7097 8.44003 23.9057 7.84804 22.965 7.84804C22.0243 7.84804 21.2503 8.42471 21.053 9.42605H24.8463ZM21.037 10.61C21.1737 11.7327 21.9777 12.37 22.9943 12.37C23.7984 12.37 24.421 11.9907 24.785 11.3834H26.7424C26.287 12.9921 24.8457 14.0241 22.949 14.0241C20.6577 14.0241 19.049 12.4154 19.049 10.1241C19.049 7.83271 20.749 6.17871 22.9943 6.17871C25.2557 6.17871 26.8943 7.84804 26.8943 10.1241C26.8943 10.2907 26.879 10.458 26.8484 10.6094H21.037V10.61Z" fill="#A6BFBF"/>
<path d="M39.0552 10.1087C39.0552 8.8794 38.1292 7.93872 36.9912 7.93872C35.8532 7.93872 34.9272 8.84938 34.9272 10.1087C34.9272 11.3534 35.8532 12.2787 36.9912 12.2787C38.1292 12.2787 39.0552 11.3381 39.0552 10.1087ZM33.0458 17V6.31537H34.9125V7.30139C35.4738 6.60339 36.3085 6.17871 37.3098 6.17871C39.3585 6.17871 40.9672 7.86337 40.9672 10.094C40.9672 12.3247 39.3285 14.0241 37.2645 14.0241C36.3085 14.0241 35.5192 13.6447 34.9732 13.0074V17H33.0458V17Z" fill="#A6BFBF"/>
<path d="M47.692 10.1087C47.692 8.83406 46.7667 7.93872 45.628 7.93872C44.49 7.93872 43.564 8.84938 43.564 10.1087C43.564 11.3534 44.49 12.2787 45.628 12.2787C46.766 12.2787 47.692 11.384 47.692 10.1087ZM47.7067 13.9027V12.9161C47.1454 13.5987 46.3107 14.0241 45.3094 14.0241C43.2307 14.0241 41.652 12.3547 41.652 10.1087C41.652 7.87806 43.2907 6.17871 45.3547 6.17871C46.326 6.17871 47.1454 6.60403 47.7067 7.27138V6.31537H49.5734V13.9027H47.7067Z" fill="#A6BFBF"/>
<path d="M29.6818 7.05872C29.6818 7.05872 30.1569 6.17871 31.3205 6.17871C31.8179 6.17871 32.1398 6.34986 32.1398 6.34986V8.28549C32.1398 8.28549 31.4373 7.85187 30.793 7.93936C30.1486 8.02685 29.7405 8.61884 29.7425 9.41136V13.9034H27.8151V6.31537H29.6818V7.05872Z" fill="#A6BFBF"/>
<path d="M58.0057 6.31543L52.8284 17H50.6801L52.6145 13.0074L49.5734 6.31543H51.7766L53.7301 10.7966L55.865 6.31543H58.0057Z" fill="#A6BFBF"/>
<path d="M72.7732 5.73142L70.5662 4.46505L68.3279 3.18081C66.8444 2.32954 64.995 3.40049 64.995 5.11133V5.39934C64.995 5.55708 65.0793 5.70268 65.2159 5.78123L66.2543 6.37706C66.5423 6.54246 66.9019 6.33427 66.9019 6.00219V5.31952C66.9019 4.98169 67.2671 4.76967 67.5603 4.93827L69.6064 6.11203L71.6461 7.28261C71.9405 7.45184 71.9405 7.87652 71.6461 8.04575L69.6064 9.21632L67.5603 10.3901C67.2671 10.558 66.9012 10.3467 66.9019 10.0088V9.66974C66.9019 7.9589 65.0524 6.88795 63.5689 7.73922L61.3306 9.02346L59.1236 10.2898C57.633 11.1449 57.633 13.2951 59.1236 14.1509L61.3306 15.4172L63.5689 16.7015C65.0524 17.5528 66.9019 16.4818 66.9019 14.771V14.4817C66.9019 14.3239 66.8176 14.1783 66.6809 14.0998L65.6425 13.504C65.3545 13.3386 64.995 13.5467 64.995 13.8788V14.5621C64.995 14.9 64.6297 15.112 64.3365 14.9434L62.2904 13.7696L60.2507 12.599C59.9563 12.4298 59.9563 12.0051 60.2507 11.8359L62.2904 10.6653L64.3365 9.49156C64.6297 9.32361 64.995 9.53499 64.995 9.87281V10.2119C64.995 11.9228 66.8444 12.9937 68.3279 12.1424L70.5662 10.8582L72.7732 9.59183C74.2644 8.73673 74.2644 6.58652 72.7732 5.73142Z" fill="#A6BFBF"/>
</svg>
