<svg width="29" height="18" viewBox="0 0 29 18" fill="none" xmlns="http://www.w3.org/2000/svg">
<g clip-path="url(#clip0_3845_20434)">
<path fill-rule="evenodd" clip-rule="evenodd" d="M3.39297 0H26.4737C26.5696 0 26.6659 0 26.7619 0.000560562C26.8428 0.00113811 26.9237 0.00203841 27.005 0.00424668C27.1811 0.00901995 27.3591 0.0194328 27.5338 0.0507563C27.7106 0.0826234 27.8754 0.134603 28.0362 0.216445C28.1944 0.296809 28.3387 0.401923 28.4643 0.527353C28.5895 0.652783 28.6946 0.797221 28.7752 0.955418C28.8572 1.11616 28.9092 1.28099 28.9407 1.45819C28.9722 1.63253 28.9824 1.8105 28.9872 1.9868C28.9894 2.06773 28.9905 2.14865 28.9909 2.22956C28.9916 2.32572 28.9916 2.42181 28.9916 2.51815V15.482C28.9916 15.5784 28.9916 15.6743 28.9909 15.7706C28.9905 15.8516 28.9894 15.9325 28.9872 16.0134C28.9824 16.1896 28.9722 16.3675 28.9407 16.5418C28.9092 16.7191 28.8572 16.8838 28.7752 17.0446C28.6946 17.2028 28.5895 17.3474 28.4643 17.4727C28.3387 17.5983 28.1944 17.7034 28.0362 17.7836C27.8754 17.8656 27.7106 17.9176 27.5338 17.9495C27.3591 17.9806 27.1811 17.9912 27.005 17.996C26.9237 17.9978 26.8428 17.9989 26.7619 17.9993C26.6659 18 26.5696 18 26.4737 18H3.39297C3.29684 18 3.20055 18 3.10459 17.9993C3.02348 17.9989 2.94255 17.9978 2.86163 17.996C2.68514 17.9912 2.50713 17.9806 2.33285 17.9495C2.15578 17.9176 1.99101 17.8656 1.83026 17.7836C1.67223 17.7034 1.52756 17.5983 1.40218 17.4727C1.27675 17.3474 1.17164 17.2028 1.09129 17.0446C1.00943 16.8838 0.957416 16.7191 0.925769 16.5418C0.894278 16.3675 0.883795 16.1896 0.879039 16.0134C0.876864 15.9325 0.875932 15.8516 0.875404 15.7706C0.874955 15.6936 0.874985 15.6168 0.875015 15.5398L0.87503 15.482V2.51815L0.875015 2.46035C0.874985 2.38336 0.874955 2.30648 0.875404 2.22956C0.875932 2.14865 0.876864 2.06773 0.879039 1.9868C0.883795 1.8105 0.894278 1.63253 0.925769 1.45819C0.957416 1.28099 1.00943 1.11616 1.09129 0.955418C1.17164 0.797221 1.27675 0.652783 1.40218 0.527353C1.52756 0.401923 1.67223 0.296809 1.83026 0.216445C1.99101 0.134603 2.15578 0.0826234 2.33285 0.0507563C2.50713 0.0194328 2.68514 0.00901995 2.86163 0.00424668C2.94255 0.00203841 3.02348 0.00113811 3.10459 0.000560562C3.20055 0 3.29684 0 3.39297 0ZM8.91162 4.93575C8.95471 5.34891 8.79134 5.75322 8.5506 6.05434C8.30117 6.34701 7.90594 6.57906 7.51034 6.54474C7.45875 6.14891 7.65662 5.72767 7.88018 5.4696C8.12915 5.16825 8.55921 4.95328 8.91162 4.93575ZM8.90712 6.62184C8.55768 6.60103 8.24007 6.72617 7.98311 6.82741C7.81761 6.89261 7.67726 6.94791 7.56978 6.94791C7.45126 6.94791 7.30559 6.89034 7.14174 6.82558C6.92609 6.74036 6.67895 6.64268 6.42074 6.64741C5.8293 6.6561 5.28051 6.9905 4.98038 7.52236C4.36306 8.58634 4.81747 10.1646 5.41778 11.0311C5.7093 11.4599 6.06064 11.9319 6.52357 11.9149C6.72629 11.907 6.87188 11.8456 7.02268 11.782C7.19726 11.7083 7.37883 11.6317 7.66409 11.6317C7.93605 11.6317 8.10927 11.7059 8.27567 11.7772C8.43434 11.8452 8.58682 11.9106 8.81282 11.9064C9.29298 11.8978 9.59316 11.4774 9.88468 11.0483C10.2017 10.585 10.3413 10.1368 10.3622 10.0694L10.3646 10.0618C10.3641 10.0613 10.3601 10.0595 10.3532 10.0563L10.3532 10.0563L10.3529 10.0562L10.3529 10.0561C10.2454 10.0068 9.43822 9.63574 9.43024 8.64621C9.4221 7.81569 10.0657 7.39454 10.1714 7.32539C10.1781 7.32098 10.1826 7.318 10.1847 7.31644C9.77313 6.70773 9.13006 6.63909 8.90712 6.62184ZM16.0278 7.53998C16.0278 6.28682 15.1583 5.42609 13.9096 5.42609L11.4969 5.42609V11.8614H12.4958V9.66282H13.8783C15.1404 9.66282 16.0278 8.79762 16.0278 7.53998ZM13.6419 8.82437H12.4958V6.26902H13.6464C14.5116 6.26902 15.0065 6.73284 15.0065 7.54445C15.0065 8.35615 14.5116 8.82437 13.6419 8.82437ZM16.2886 10.5283C16.2886 9.70765 16.9175 9.20374 18.0325 9.14129L19.3168 9.0655V8.7043C19.3168 8.18249 18.9644 7.87032 18.3759 7.87032C17.8183 7.87032 17.4704 8.13785 17.3858 8.55711H16.476C16.5295 7.70972 17.2519 7.08537 18.4115 7.08537C19.5487 7.08537 20.2756 7.68744 20.2756 8.62843V11.8617H19.3524V11.0902H19.3302C19.0582 11.612 18.465 11.942 17.8496 11.942C16.9309 11.942 16.2886 11.3711 16.2886 10.5283ZM19.3168 10.1046V9.73449L18.1617 9.8058C17.5864 9.84597 17.2609 10.1002 17.2609 10.5015C17.2609 10.9118 17.5998 11.1794 18.1171 11.1794C18.7905 11.1794 19.3168 10.7156 19.3168 10.1046ZM21.1472 12.8071V13.5876C21.2184 13.6009 21.4593 13.6099 21.5396 13.6099C22.5118 13.6099 22.9757 13.2442 23.3769 12.1069L25.1341 7.17002H24.1173L22.9309 10.9876H22.9132L21.7268 7.17002H20.6833L22.378 11.8661C22.378 11.868 22.3634 11.9165 22.3464 11.9733C22.3223 12.0537 22.2932 12.1508 22.2932 12.156C22.1461 12.6376 21.9052 12.8249 21.4593 12.8249C21.3789 12.8249 21.2184 12.8249 21.1472 12.8071Z" fill="#A6BFBF"/>
</g>
<defs>
<clipPath id="clip0_3845_20434">
<rect width="28.1166" height="18" fill="white" transform="translate(0.875)"/>
</clipPath>
</defs>
</svg>
