<svg width="51" height="48" viewBox="0 0 51 48" fill="none" xmlns="http://www.w3.org/2000/svg">
<path fill-rule="evenodd" clip-rule="evenodd" d="M10.0573 7.99944L10.236 6.76283L10.2399 6.7634L10.2478 6.76457L10.2758 6.76874C10.2998 6.77235 10.3342 6.77762 10.3786 6.78459C10.4674 6.79853 10.5959 6.81931 10.7596 6.84733C11.0869 6.90335 11.5557 6.98843 12.1294 7.10587C13.2752 7.34039 14.8483 7.70569 16.5548 8.22924C19.8862 9.25135 24.0343 10.965 26.3041 13.7209C28.3746 16.2349 29.3393 18.7446 29.1353 21.2677C28.9337 23.761 27.6092 26.0246 25.6108 28.1081C26.242 29.7849 26.7876 31.5802 27.1854 33.4716C27.9782 32.0329 28.9542 30.7348 29.9507 29.6078C28.7086 27.1165 29.1096 23.9945 31.1187 21.9005C31.8388 21.1499 32.9538 20.6337 34.0206 20.2605C35.1308 19.8723 36.3802 19.5759 37.5312 19.3531C38.6876 19.1293 39.7745 18.9742 40.5704 18.8751C40.9691 18.8255 41.2968 18.7896 41.526 18.7661C41.6407 18.7543 41.7309 18.7456 41.7931 18.7398L41.8652 18.7332L41.8847 18.7314L41.8929 18.7307L43.3616 18.605L43.2456 20.0745L43.245 20.0827L43.2433 20.1028L43.237 20.1774C43.2315 20.242 43.2231 20.3357 43.2118 20.455C43.1893 20.6934 43.1549 21.0344 43.1074 21.4494C43.0123 22.278 42.8638 23.4089 42.6495 24.611C42.4362 25.8079 42.1529 27.1038 41.7827 28.2519C41.4278 29.3527 40.9374 30.5023 40.2193 31.2443C37.8407 33.7018 34.0427 33.8568 31.5071 31.6291C29.5275 33.9631 27.9236 36.8047 27.8785 39.8677C27.8787 39.91 27.8788 39.9523 27.8788 39.9946H27.8775C27.8775 39.9964 27.8775 39.9983 27.8775 40.0001H25.3775C25.3775 39.9521 25.3778 39.9041 25.3784 39.8563C25.3598 36.1645 24.5979 32.6973 23.4972 29.6059C21.5139 30.4727 19.2989 30.1972 17.3867 29.3848C14.8005 28.286 12.4599 26.1076 11.3434 23.8134C9.69337 20.8763 9.0877 16.8483 8.86772 13.6919C8.75544 12.0807 8.74078 10.644 8.75407 9.60973C8.76073 9.09196 8.77442 8.67342 8.78656 8.38239C8.79263 8.23684 8.79833 8.12307 8.80257 8.0446C8.8047 8.00536 8.80646 7.97494 8.80772 7.95377L8.80924 7.92902L8.80968 7.92195L8.80991 7.91848L10.0565 7.99994L8.96584 7.92856L8.96579 7.92856C8.81137 7.91843 8.80993 7.91834 8.80991 7.91847L8.89806 6.56952L10.236 6.76283C10.2358 6.76283 10.2356 6.76436 10.2135 6.91747L10.0573 7.99944ZM33.2209 29.8053C34.7531 31.0922 36.9881 30.988 38.4228 29.5056C38.7162 29.2025 39.0664 28.5297 39.4033 27.4847C39.725 26.4872 39.9849 25.3139 40.1883 24.1724C40.3721 23.1412 40.5058 22.1588 40.5971 21.392C39.8745 21.4864 38.9624 21.6225 38.0062 21.8076C36.9154 22.0187 35.7966 22.2879 34.846 22.6204C33.8521 22.968 33.214 23.3276 32.9227 23.6313C31.8777 24.7204 31.5276 26.2551 31.8736 27.6368C32.8708 26.7048 33.819 25.9403 34.5753 25.3715C35.0777 24.9937 35.4981 24.7003 35.7956 24.4996C35.9445 24.3992 36.0628 24.3219 36.1454 24.2687C36.1868 24.2421 36.2192 24.2215 36.2422 24.2071L36.2693 24.1901L36.2774 24.185L36.281 24.1828C36.2814 24.1826 36.2818 24.1824 36.9376 25.2465C37.5934 26.3107 37.5936 26.3105 37.5939 26.3104L37.5909 26.3122L37.5738 26.3229C37.5578 26.333 37.5323 26.3491 37.4981 26.3711C37.4298 26.4151 37.3266 26.4825 37.1935 26.5723C36.9272 26.7519 36.5421 27.0204 36.0779 27.3695C35.2845 27.9662 34.2678 28.7923 33.2209 29.8053ZM26.6434 21.0662C26.526 22.5178 25.8427 24.0008 24.5476 25.552C23.9112 24.1555 23.2318 22.8653 22.5553 21.6977C21.2316 19.413 19.9078 17.5786 18.9124 16.3123C18.4143 15.6787 17.9974 15.1859 17.7023 14.8488C17.5548 14.6803 17.4376 14.5505 17.3558 14.4613C17.315 14.4168 17.283 14.3824 17.2604 14.3583L17.2338 14.3301L17.226 14.3218L17.2226 14.3183C17.2223 14.3179 17.2219 14.3176 16.3187 15.1817C15.4155 16.0458 15.4153 16.0456 15.4151 16.0454L15.4186 16.049L15.4362 16.0677C15.4527 16.0853 15.4786 16.1131 15.5132 16.1509C15.5825 16.2265 15.6868 16.3419 15.8212 16.4954C16.0899 16.8025 16.4785 17.2613 16.947 17.8573C17.8847 19.0502 19.1384 20.7871 20.3922 22.951C21.1459 24.252 21.8958 25.7004 22.5764 27.272C21.3478 27.844 19.885 27.73 18.3643 27.0839C16.275 26.1962 14.4024 24.4078 13.5783 22.6923L13.56 22.6543L13.5392 22.6175C12.1655 20.1927 11.5781 16.6241 11.3617 13.5181C11.2553 11.9914 11.2412 10.6256 11.2539 9.64187L11.2562 9.48059C11.374 9.50367 11.4982 9.52849 11.6281 9.55509C12.7185 9.77827 14.2108 10.1251 15.8215 10.6193C19.1243 11.6326 22.6171 13.1767 24.3743 15.3103C26.17 17.4906 26.7798 19.3786 26.6434 21.0662Z" fill="#0D5257"/>
</svg>
