<svg width="38" height="20" viewBox="0 0 38 20" fill="none" xmlns="http://www.w3.org/2000/svg">
<g clip-path="url(#clip0_6503_8446)">
<path d="M27.6 0.81C28.835 0.81 30.035 1.055 31.165 1.535C32.26 2 33.24 2.665 34.09 3.51C34.935 4.355 35.6 5.34 36.065 6.435C36.545 7.565 36.79 8.765 36.79 10C36.79 11.235 36.545 12.435 36.065 13.565C35.6 14.66 34.935 15.64 34.09 16.49C33.245 17.335 32.26 18 31.165 18.465C30.035 18.945 28.835 19.19 27.6 19.19H10C8.765 19.19 7.565 18.945 6.435 18.465C5.34 18 4.36 17.335 3.51 16.49C2.665 15.645 2 14.66 1.535 13.565C1.055 12.435 0.81 11.235 0.81 10C0.81 8.765 1.055 7.565 1.535 6.435C2 5.34 2.665 4.36 3.51 3.51C4.355 2.665 5.34 2 6.435 1.535C7.565 1.055 8.765 0.81 10 0.81H27.6ZM27.6 0H10C4.5 0 0 4.5 0 10C0 15.5 4.5 20 10 20H27.6C33.1 20 37.6 15.5 37.6 10C37.6 4.5 33.1 0 27.6 0Z" fill="#A6BFBF"/>
<path d="M17.93 10.7099V13.7349H16.97V6.26489H19.515C20.16 6.26489 20.71 6.47989 21.16 6.90989C21.62 7.33989 21.85 7.86489 21.85 8.48489C21.85 9.11989 21.62 9.64489 21.16 10.0699C20.715 10.4949 20.165 10.7049 19.515 10.7049H17.93V10.7099ZM17.93 7.18489V9.78989H19.535C19.915 9.78989 20.235 9.65989 20.485 9.40489C20.74 9.14989 20.87 8.83989 20.87 8.48989C20.87 8.14489 20.74 7.83989 20.485 7.58489C20.235 7.31989 19.92 7.18989 19.535 7.18989H17.93V7.18489Z" fill="#A6BFBF"/>
<path d="M24.36 8.45508C25.07 8.45508 25.63 8.64508 26.04 9.02508C26.45 9.40508 26.655 9.92508 26.655 10.5851V13.7351H25.74V13.0251H25.7C25.305 13.6101 24.775 13.9001 24.115 13.9001C23.55 13.9001 23.08 13.7351 22.7 13.4001C22.32 13.0651 22.13 12.6501 22.13 12.1501C22.13 11.6201 22.33 11.2001 22.73 10.8901C23.13 10.5751 23.665 10.4201 24.33 10.4201C24.9 10.4201 25.37 10.5251 25.735 10.7351V10.5151C25.735 10.1801 25.605 9.90008 25.34 9.66508C25.075 9.43008 24.765 9.31508 24.41 9.31508C23.875 9.31508 23.45 9.54008 23.14 9.99508L22.295 9.46508C22.76 8.79008 23.45 8.45508 24.36 8.45508ZM23.12 12.1651C23.12 12.4151 23.225 12.6251 23.44 12.7901C23.65 12.9551 23.9 13.0401 24.185 13.0401C24.59 13.0401 24.95 12.8901 25.265 12.5901C25.58 12.2901 25.74 11.9401 25.74 11.5351C25.44 11.3001 25.025 11.1801 24.49 11.1801C24.1 11.1801 23.775 11.2751 23.515 11.4601C23.25 11.6551 23.12 11.8901 23.12 12.1651Z" fill="#A6BFBF"/>
<path d="M31.875 8.62012L28.675 15.9801H27.685L28.875 13.4051L26.765 8.62012H27.81L29.33 12.2901H29.35L30.83 8.62012H31.875Z" fill="#A6BFBF"/>
<path d="M14.11 10.1C14.11 9.78495 14.08 9.48995 14.03 9.19995H10.005V10.85H12.325C12.23 11.4 11.93 11.865 11.465 12.18V13.25H12.845C13.65 12.505 14.11 11.4 14.11 10.1Z" fill="#A6BFBF"/>
<path d="M11.4651 12.1801C11.0801 12.4401 10.5851 12.5901 10.0101 12.5901C8.89005 12.5901 7.94505 11.8351 7.60505 10.8201H6.18005V11.9251C6.88505 13.3251 8.33505 14.2851 10.0101 14.2851C11.1651 14.2851 12.1401 13.9051 12.8451 13.2501L11.4651 12.1801Z" fill="#A6BFBF"/>
<path d="M7.46998 9.99995C7.46998 9.71495 7.51998 9.43995 7.60498 9.17995V8.07495H6.17998C5.88998 8.65495 5.72498 9.30495 5.72498 9.99995C5.72498 10.695 5.88998 11.345 6.17998 11.925L7.60498 10.82C7.51498 10.565 7.46998 10.29 7.46998 9.99995Z" fill="#A6BFBF"/>
<path d="M10.0101 7.4151C10.6401 7.4151 11.2051 7.6351 11.6551 8.0601L12.8801 6.8401C12.1351 6.1501 11.1701 5.7251 10.0151 5.7251C8.34006 5.7251 6.89006 6.6851 6.18506 8.0851L7.61006 9.1901C7.94506 8.1701 8.89006 7.4151 10.0101 7.4151Z" fill="#A6BFBF"/>
</g>
<defs>
<clipPath id="clip0_6503_8446">
<rect width="37.6" height="20" fill="white"/>
</clipPath>
</defs>
</svg>
