<svg width="51" height="48" viewBox="0 0 51 48" fill="none" xmlns="http://www.w3.org/2000/svg">
<path fill-rule="evenodd" clip-rule="evenodd" d="M40.6897 19.75H16.4297V27.75L10 27.75V30.25L26.64 30.25V29.1928L27.8937 26.25H30.6803H34.2421L35.599 29.1989V30.25H41.999V27.75H40.6897V19.75ZM38.1897 27.75V22.25H18.9297V27.75L24.5373 27.75L26.2414 23.75H30.6803H35.8438L37.6842 27.75H38.1897ZM34.3199 31.2508C34.3199 33.0462 32.8872 34.5016 31.1199 34.5016C29.3526 34.5016 27.9199 33.0462 27.9199 31.2508C27.9199 29.4554 29.3526 28 31.1199 28C32.8872 28 34.3199 29.4554 34.3199 31.2508Z" fill="#0D5257"/>
</svg>
