<svg width="17" height="17" viewBox="0 0 17 17" fill="none" xmlns="http://www.w3.org/2000/svg">
<path fill-rule="evenodd" clip-rule="evenodd" d="M0.225098 0.615723H1.2251H2.88101H3.64548L3.846 1.35343L4.00807 1.94971H12.5571H13.696L13.5487 3.07904L13.0487 6.91254L12.9426 7.72639L12.1236 7.78099L5.45852 8.22533L5.40929 8.30551L4.19545 10.2822H16.5571V12.2822H2.40789C2.04578 12.2822 1.71196 12.0865 1.53517 11.7704C1.35838 11.4544 1.36625 11.0675 1.55573 10.7589L3.47875 7.62734L2.11654 2.61572H1.2251H0.225098V0.615723ZM5.17418 6.23985L11.1717 5.84001L11.4182 3.94971H4.55169L5.17418 6.23985ZM5.00992 16.2615C5.92445 16.2615 6.66583 15.5202 6.66583 14.6056C6.66583 13.6911 5.92445 12.9497 5.00992 12.9497C4.09538 12.9497 3.354 13.6911 3.354 14.6056C3.354 15.5202 4.09538 16.2615 5.00992 16.2615ZM13.0529 16.2615C13.9674 16.2615 14.7088 15.5202 14.7088 14.6056C14.7088 13.6911 13.9674 12.9497 13.0529 12.9497C12.1384 12.9497 11.397 13.6911 11.397 14.6056C11.397 15.5202 12.1384 16.2615 13.0529 16.2615Z" fill="white"/>
<path fill-rule="evenodd" clip-rule="evenodd" d="M0.225098 0.615723H1.2251H2.88101H3.64548L3.846 1.35343L4.00807 1.94971H12.5571H13.696L13.5487 3.07904L13.0487 6.91254L12.9426 7.72639L12.1236 7.78099L5.45852 8.22533L5.40929 8.30551L4.19545 10.2822H16.5571V12.2822H2.40789C2.04578 12.2822 1.71196 12.0865 1.53517 11.7704C1.35838 11.4544 1.36625 11.0675 1.55573 10.7589L3.47875 7.62734L2.11654 2.61572H1.2251H0.225098V0.615723ZM5.17418 6.23985L11.1717 5.84001L11.4182 3.94971H4.55169L5.17418 6.23985ZM5.00992 16.2615C5.92445 16.2615 6.66583 15.5202 6.66583 14.6056C6.66583 13.6911 5.92445 12.9497 5.00992 12.9497C4.09538 12.9497 3.354 13.6911 3.354 14.6056C3.354 15.5202 4.09538 16.2615 5.00992 16.2615ZM13.0529 16.2615C13.9674 16.2615 14.7088 15.5202 14.7088 14.6056C14.7088 13.6911 13.9674 12.9497 13.0529 12.9497C12.1384 12.9497 11.397 13.6911 11.397 14.6056C11.397 15.5202 12.1384 16.2615 13.0529 16.2615Z" fill="url(#paint0_linear)"/>
<path fill-rule="evenodd" clip-rule="evenodd" d="M0.225098 0.615723H1.2251H2.88101H3.64548L3.846 1.35343L4.00807 1.94971H12.5571H13.696L13.5487 3.07904L13.0487 6.91254L12.9426 7.72639L12.1236 7.78099L5.45852 8.22533L5.40929 8.30551L4.19545 10.2822H16.5571V12.2822H2.40789C2.04578 12.2822 1.71196 12.0865 1.53517 11.7704C1.35838 11.4544 1.36625 11.0675 1.55573 10.7589L3.47875 7.62734L2.11654 2.61572H1.2251H0.225098V0.615723ZM5.17418 6.23985L11.1717 5.84001L11.4182 3.94971H4.55169L5.17418 6.23985ZM5.00992 16.2615C5.92445 16.2615 6.66583 15.5202 6.66583 14.6056C6.66583 13.6911 5.92445 12.9497 5.00992 12.9497C4.09538 12.9497 3.354 13.6911 3.354 14.6056C3.354 15.5202 4.09538 16.2615 5.00992 16.2615ZM13.0529 16.2615C13.9674 16.2615 14.7088 15.5202 14.7088 14.6056C14.7088 13.6911 13.9674 12.9497 13.0529 12.9497C12.1384 12.9497 11.397 13.6911 11.397 14.6056C11.397 15.5202 12.1384 16.2615 13.0529 16.2615Z" fill="url(#paint1_linear)"/>
<path fill-rule="evenodd" clip-rule="evenodd" d="M0.225098 0.615723H1.2251H2.88101H3.64548L3.846 1.35343L4.00807 1.94971H12.5571H13.696L13.5487 3.07904L13.0487 6.91254L12.9426 7.72639L12.1236 7.78099L5.45852 8.22533L5.40929 8.30551L4.19545 10.2822H16.5571V12.2822H2.40789C2.04578 12.2822 1.71196 12.0865 1.53517 11.7704C1.35838 11.4544 1.36625 11.0675 1.55573 10.7589L3.47875 7.62734L2.11654 2.61572H1.2251H0.225098V0.615723ZM5.17418 6.23985L11.1717 5.84001L11.4182 3.94971H4.55169L5.17418 6.23985ZM5.00992 16.2615C5.92445 16.2615 6.66583 15.5202 6.66583 14.6056C6.66583 13.6911 5.92445 12.9497 5.00992 12.9497C4.09538 12.9497 3.354 13.6911 3.354 14.6056C3.354 15.5202 4.09538 16.2615 5.00992 16.2615ZM13.0529 16.2615C13.9674 16.2615 14.7088 15.5202 14.7088 14.6056C14.7088 13.6911 13.9674 12.9497 13.0529 12.9497C12.1384 12.9497 11.397 13.6911 11.397 14.6056C11.397 15.5202 12.1384 16.2615 13.0529 16.2615Z" fill="url(#paint2_linear)"/>
<defs>
<linearGradient id="paint0_linear" x1="8.39111" y1="0.615723" x2="8.39111" y2="16.2615" gradientUnits="userSpaceOnUse">
<stop stop-color="white"/>
<stop offset="1" stop-color="white" stop-opacity="0"/>
</linearGradient>
<linearGradient id="paint1_linear" x1="8.39111" y1="0.615723" x2="8.39111" y2="16.2615" gradientUnits="userSpaceOnUse">
<stop stop-color="white"/>
<stop offset="1" stop-color="white" stop-opacity="0"/>
</linearGradient>
<linearGradient id="paint2_linear" x1="8.39111" y1="0.615723" x2="8.39111" y2="16.2615" gradientUnits="userSpaceOnUse">
<stop stop-color="white"/>
<stop offset="1" stop-color="white" stop-opacity="0"/>
</linearGradient>
</defs>
</svg>
