<svg width="17" height="17" viewBox="0 0 17 17" fill="none" xmlns="http://www.w3.org/2000/svg">
<path fill-rule="evenodd" clip-rule="evenodd" d="M11.2087 4.78174C11.2087 6.16245 10.0895 7.28174 8.70874 7.28174C7.32803 7.28174 6.20874 6.16245 6.20874 4.78174C6.20874 3.40103 7.32803 2.28174 8.70874 2.28174C10.0895 2.28174 11.2087 3.40103 11.2087 4.78174ZM13.2087 4.78174C13.2087 7.26702 11.194 9.28174 8.70874 9.28174C6.22346 9.28174 4.20874 7.26702 4.20874 4.78174C4.20874 2.29646 6.22346 0.281738 8.70874 0.281738C11.194 0.281738 13.2087 2.29646 13.2087 4.78174ZM4.46714 9.33264C4.43756 9.3 4.42303 9.28174 4.42303 9.28174L1.20874 12.0679V16.2817H16.2087V12.0679L12.9945 9.28174C12.9945 9.28174 12.9799 9.3 12.9503 9.33265C12.7016 9.607 11.3897 10.8971 8.70874 10.8971C6.02771 10.8971 4.71581 9.60697 4.46714 9.33264ZM3.20874 12.981L4.50451 11.8579C5.47981 12.4095 6.87295 12.8971 8.70874 12.8971C10.5445 12.8971 11.9377 12.4095 12.913 11.8579L14.2087 12.981V14.2817H3.20874V12.981Z" fill="white"/>
<path fill-rule="evenodd" clip-rule="evenodd" d="M11.2087 4.78174C11.2087 6.16245 10.0895 7.28174 8.70874 7.28174C7.32803 7.28174 6.20874 6.16245 6.20874 4.78174C6.20874 3.40103 7.32803 2.28174 8.70874 2.28174C10.0895 2.28174 11.2087 3.40103 11.2087 4.78174ZM13.2087 4.78174C13.2087 7.26702 11.194 9.28174 8.70874 9.28174C6.22346 9.28174 4.20874 7.26702 4.20874 4.78174C4.20874 2.29646 6.22346 0.281738 8.70874 0.281738C11.194 0.281738 13.2087 2.29646 13.2087 4.78174ZM4.46714 9.33264C4.43756 9.3 4.42303 9.28174 4.42303 9.28174L1.20874 12.0679V16.2817H16.2087V12.0679L12.9945 9.28174C12.9945 9.28174 12.9799 9.3 12.9503 9.33265C12.7016 9.607 11.3897 10.8971 8.70874 10.8971C6.02771 10.8971 4.71581 9.60697 4.46714 9.33264ZM3.20874 12.981L4.50451 11.8579C5.47981 12.4095 6.87295 12.8971 8.70874 12.8971C10.5445 12.8971 11.9377 12.4095 12.913 11.8579L14.2087 12.981V14.2817H3.20874V12.981Z" fill="url(#paint0_linear)"/>
<path fill-rule="evenodd" clip-rule="evenodd" d="M11.2087 4.78174C11.2087 6.16245 10.0895 7.28174 8.70874 7.28174C7.32803 7.28174 6.20874 6.16245 6.20874 4.78174C6.20874 3.40103 7.32803 2.28174 8.70874 2.28174C10.0895 2.28174 11.2087 3.40103 11.2087 4.78174ZM13.2087 4.78174C13.2087 7.26702 11.194 9.28174 8.70874 9.28174C6.22346 9.28174 4.20874 7.26702 4.20874 4.78174C4.20874 2.29646 6.22346 0.281738 8.70874 0.281738C11.194 0.281738 13.2087 2.29646 13.2087 4.78174ZM4.46714 9.33264C4.43756 9.3 4.42303 9.28174 4.42303 9.28174L1.20874 12.0679V16.2817H16.2087V12.0679L12.9945 9.28174C12.9945 9.28174 12.9799 9.3 12.9503 9.33265C12.7016 9.607 11.3897 10.8971 8.70874 10.8971C6.02771 10.8971 4.71581 9.60697 4.46714 9.33264ZM3.20874 12.981L4.50451 11.8579C5.47981 12.4095 6.87295 12.8971 8.70874 12.8971C10.5445 12.8971 11.9377 12.4095 12.913 11.8579L14.2087 12.981V14.2817H3.20874V12.981Z" fill="url(#paint1_linear)"/>
<path fill-rule="evenodd" clip-rule="evenodd" d="M11.2087 4.78174C11.2087 6.16245 10.0895 7.28174 8.70874 7.28174C7.32803 7.28174 6.20874 6.16245 6.20874 4.78174C6.20874 3.40103 7.32803 2.28174 8.70874 2.28174C10.0895 2.28174 11.2087 3.40103 11.2087 4.78174ZM13.2087 4.78174C13.2087 7.26702 11.194 9.28174 8.70874 9.28174C6.22346 9.28174 4.20874 7.26702 4.20874 4.78174C4.20874 2.29646 6.22346 0.281738 8.70874 0.281738C11.194 0.281738 13.2087 2.29646 13.2087 4.78174ZM4.46714 9.33264C4.43756 9.3 4.42303 9.28174 4.42303 9.28174L1.20874 12.0679V16.2817H16.2087V12.0679L12.9945 9.28174C12.9945 9.28174 12.9799 9.3 12.9503 9.33265C12.7016 9.607 11.3897 10.8971 8.70874 10.8971C6.02771 10.8971 4.71581 9.60697 4.46714 9.33264ZM3.20874 12.981L4.50451 11.8579C5.47981 12.4095 6.87295 12.8971 8.70874 12.8971C10.5445 12.8971 11.9377 12.4095 12.913 11.8579L14.2087 12.981V14.2817H3.20874V12.981Z" fill="url(#paint2_linear)"/>
<defs>
<linearGradient id="paint0_linear" x1="8.70874" y1="0.281738" x2="8.70874" y2="16.2817" gradientUnits="userSpaceOnUse">
<stop stop-color="white"/>
<stop offset="1" stop-color="white" stop-opacity="0"/>
</linearGradient>
<linearGradient id="paint1_linear" x1="8.70874" y1="0.281738" x2="8.70874" y2="16.2817" gradientUnits="userSpaceOnUse">
<stop stop-color="white"/>
<stop offset="1" stop-color="white" stop-opacity="0"/>
</linearGradient>
<linearGradient id="paint2_linear" x1="8.70874" y1="0.281738" x2="8.70874" y2="16.2817" gradientUnits="userSpaceOnUse">
<stop stop-color="white"/>
<stop offset="1" stop-color="white" stop-opacity="0"/>
</linearGradient>
</defs>
</svg>
