<svg width="51" height="48" viewBox="0 0 51 48" fill="none" xmlns="http://www.w3.org/2000/svg">
<path fill-rule="evenodd" clip-rule="evenodd" d="M15.2206 19.7901C15.2206 16.8554 17.9252 14.25 21.5638 14.25H30.4401C34.0787 14.25 36.7833 16.8554 36.7833 19.7901V21.654C34.9424 22.0829 33.4359 23.4396 32.9656 25.2375H19.0344C18.5644 23.4409 17.0598 22.0849 15.2206 21.6549V19.7901ZM12.7206 21.654V19.7901C12.7206 15.2185 16.8154 11.75 21.5638 11.75H30.4401C35.1885 11.75 39.2833 15.2185 39.2833 19.7901V21.6549C41.5123 22.1759 43.25 24.057 43.25 26.4344C43.25 28.7203 41.6487 30.5224 39.5725 31.1241V34.4214H37.5096V36.4206H35.0096V34.4348H17.0718V36.4206H14.5718V34.4214H12.4275V31.1241C10.3513 30.5224 8.75 28.7203 8.75 26.4344C8.75 24.0557 10.4898 22.1737 12.7206 21.654ZM13.9686 24.0108C12.3711 24.0108 11.25 25.184 11.25 26.4344C11.25 27.633 12.2697 28.7377 13.7582 28.834L14.9275 28.9096V31.9214H16.6871V26.4344C16.6871 25.184 15.566 24.0108 13.9686 24.0108ZM32.8129 27.7375H19.1888V31.9348H32.8129V27.7375ZM35.3144 31.9214H37.0725V28.9096L38.2418 28.834C39.7303 28.7377 40.75 27.633 40.75 26.4344C40.75 25.184 39.6289 24.0108 38.0314 24.0108C36.4678 24.0108 35.3605 25.135 35.3144 26.3552V31.9214Z" fill="#0D5257"/>
</svg>
