<svg width="51" height="48" viewBox="0 0 51 48" fill="none" xmlns="http://www.w3.org/2000/svg">
<path fill-rule="evenodd" clip-rule="evenodd" d="M33.9167 13.9014C33.9167 12.8848 34.6452 12.25 35.3333 12.25C36.0214 12.25 36.75 12.8848 36.75 13.9014V16.375H8.75V34.875H11.4167V37.625H13.9167V34.875H24.75V34.9583H27.25V34.875H38.0833V37.625H40.5833V34.875H43.25V16.375H39.25V13.9014C39.25 11.7069 37.5965 9.75 35.3333 9.75C33.0701 9.75 31.4167 11.7069 31.4167 13.9014H33.9167ZM27.25 32.375H40.75V18.875H27.25V32.375ZM24.75 18.875H11.25V32.375H24.75V18.875ZM30.0833 28.3333V23H32.5833V28.3333H30.0833ZM19.4167 23V28.3333H21.9167V23H19.4167Z" fill="#0D5257"/>
</svg>
