<svg width="51" height="48" viewBox="0 0 51 48" fill="none" xmlns="http://www.w3.org/2000/svg">
<path fill-rule="evenodd" clip-rule="evenodd" d="M38.8289 19.4924C38.8289 11.9349 32.1343 5.98016 24.3076 6.83119C18.6121 7.44211 13.836 11.83 12.9195 17.4098L12.9192 17.412C12.2118 21.7665 13.7736 25.7912 16.613 28.5456L16.6151 28.5477C17.8131 29.7044 18.515 31.1899 18.515 32.7356V36.1974H19.4172V37C19.4172 39.3472 21.32 41.25 23.6672 41.25H28.3339C30.6811 41.25 32.5839 39.3472 32.5839 37V36.1974H33.061V32.7356C33.061 31.2019 33.7504 29.7306 34.9468 28.5753L34.9513 28.5709C37.3436 26.2373 38.8289 23.0459 38.8289 19.4924ZM30.0839 36.1974H21.9172V37C21.9172 37.9665 22.7007 38.75 23.6672 38.75H28.3339C29.3004 38.75 30.0839 37.9665 30.0839 37V36.1974ZM24.5769 9.31664C30.9782 8.62009 36.3289 13.4753 36.3289 19.4924C36.3289 22.3246 35.1508 24.883 33.2077 26.7793C31.5996 28.3333 30.561 30.4275 30.561 32.7356V33.6974H21.015V32.7356C21.015 30.411 19.96 28.3026 18.3525 26.75C16.0628 24.5281 14.8191 21.3101 15.3867 17.8139C16.1145 13.386 19.9542 9.81217 24.5749 9.31686L24.5769 9.31664ZM31.4172 21.3333V22.6666H33.9172V21.3333H31.4172ZM29.4363 15.6811C28.3055 14.8669 26.9111 14.5833 26 14.5833V12.0833C27.3111 12.0833 29.25 12.4664 30.897 13.6522C32.6078 14.884 33.9167 16.9259 33.9167 20H31.4167C31.4167 17.7407 30.5033 16.4493 29.4363 15.6811Z" fill="#0D5257"/>
</svg>
