<svg width="25" height="20" viewBox="0 0 25 20" fill="none" xmlns="http://www.w3.org/2000/svg">
<path fill-rule="evenodd" clip-rule="evenodd" d="M11.948 12.8433C10.7145 13.8646 9.13125 14.4784 7.40466 14.4784C3.46754 14.4784 0.275879 11.2868 0.275879 7.34967C0.275879 3.41255 3.46754 0.220886 7.40466 0.220886C9.13125 0.220886 10.7145 0.834702 11.948 1.85602C10.4795 3.22786 9.56158 5.18156 9.56158 7.34967C9.56158 9.51777 10.4795 11.4715 11.948 12.8433ZM12.5346 1.85602C13.7682 0.834702 15.3514 0.220886 17.078 0.220886C21.0151 0.220886 24.2068 3.41255 24.2068 7.34967C24.2068 11.2868 21.0151 14.4784 17.078 14.4784C15.3514 14.4784 13.7682 13.8646 12.5346 12.8433C14.0031 11.4715 14.9211 9.51777 14.9211 7.34967C14.9211 5.18156 14.0031 3.22786 12.5346 1.85602ZM12.2413 2.11262C13.6508 3.415 14.5334 5.27926 14.5334 7.34967C14.5334 9.42007 13.6508 11.2843 12.2413 12.5867C10.8318 11.2843 9.9492 9.42007 9.9492 7.34967C9.9492 5.27926 10.8318 3.415 12.2413 2.11262ZM4.31603 17.755V18.9658L3.89222 18.9739V17.9003C3.89222 17.5733 3.75499 17.3917 3.46841 17.3917C3.40202 17.3885 3.33572 17.3999 3.27421 17.4251C3.2127 17.4503 3.15747 17.4887 3.11243 17.5376C3.06739 17.5865 3.03363 17.6447 3.01355 17.708C2.99346 17.7714 2.98753 17.8384 2.99617 17.9043V18.9739H2.57236V17.9003C2.57236 17.5733 2.4311 17.3917 2.15259 17.3917C2.0861 17.3881 2.01964 17.3993 1.95795 17.4244C1.89627 17.4494 1.84089 17.4878 1.79577 17.5368C1.75066 17.5858 1.71691 17.6441 1.69696 17.7077C1.67701 17.7712 1.67134 17.8383 1.68035 17.9043V18.9658H1.25654V17.0365H1.67632V17.2747C1.73737 17.1818 1.82163 17.1065 1.92075 17.0562C2.01986 17.006 2.1304 16.9825 2.24139 16.9881C2.36872 16.9826 2.49517 17.0116 2.60741 17.072C2.71965 17.1324 2.81352 17.2219 2.87912 17.3312C2.95109 17.2185 3.05198 17.1273 3.17126 17.0669C3.29053 17.0066 3.42382 16.9793 3.55721 16.9881C3.65912 16.9821 3.76113 16.9979 3.85644 17.0344C3.95176 17.071 4.0382 17.1274 4.11 17.2C4.1818 17.2725 4.23731 17.3596 4.27283 17.4553C4.30836 17.551 4.32308 17.6531 4.31603 17.755ZM9.89615 17.0365H10.5864L10.5904 17.42H9.90423V18.2999C9.90423 18.4936 9.98092 18.6228 10.1827 18.6228C10.3137 18.6184 10.4415 18.5809 10.5541 18.5138L10.6752 18.873C10.5178 18.9712 10.3359 19.023 10.1504 19.0224C9.65398 19.0224 9.48042 18.756 9.48042 18.3079V17.42H9.0889V17.0365H9.47235V16.4513H9.89615V17.0365ZM13.8734 17.0595C13.9629 17.0097 14.0642 16.9851 14.1665 16.9881L14.1584 16.98C14.2603 16.9804 14.3613 16.9982 14.4571 17.0325L14.328 17.4361C14.2445 17.4029 14.1554 17.3864 14.0656 17.3877C13.7992 17.3877 13.662 17.5653 13.662 17.8841V18.9658H13.2422V17.0365H13.6579V17.2706C13.7095 17.1821 13.7839 17.1092 13.8734 17.0595ZM7.96682 16.9881C8.2431 16.9786 8.51628 17.0486 8.75389 17.1899L8.56822 17.5289C8.38389 17.4229 8.17543 17.3659 7.96279 17.3635C7.73272 17.3635 7.59549 17.4603 7.59549 17.5895C7.59549 17.7186 7.74079 17.755 7.92242 17.7792L8.12424 17.8074C8.54401 17.868 8.79829 18.0173 8.79829 18.3846C8.79829 18.7519 8.47539 19.0143 7.91839 19.0143C7.62028 19.0225 7.3274 18.9348 7.08288 18.764L7.2847 18.4371C7.4699 18.5745 7.69595 18.6456 7.92646 18.6389C8.21304 18.6389 8.36641 18.5541 8.36641 18.4048C8.36641 18.2958 8.25743 18.2353 8.02737 18.203L7.82556 18.1747C7.39368 18.1142 7.15957 17.9205 7.15957 17.6056C7.15957 17.2222 7.47844 16.9881 7.96682 16.9881ZM19.7038 17.0595C19.7933 17.0097 19.8945 16.9851 19.9969 16.9881L19.9888 16.98C20.0906 16.9804 20.1916 16.9982 20.2875 17.0325L20.1583 17.4361C20.0749 17.4029 19.9858 17.3864 19.896 17.3877C19.6296 17.3877 19.4924 17.5653 19.4924 17.8841V18.9658H19.0726V17.0365H19.4883V17.2706C19.5398 17.1821 19.6143 17.1092 19.7038 17.0595ZM14.6569 18.3939C14.6067 18.2679 14.5833 18.1327 14.5883 17.9971V17.9891C14.5833 17.8535 14.6067 17.7184 14.6569 17.5923C14.7071 17.4663 14.7831 17.3521 14.88 17.2572C14.9769 17.1622 15.0925 17.0885 15.2195 17.0407C15.3465 16.993 15.4821 16.9723 15.6175 16.98C15.8696 16.9672 16.1173 17.0493 16.3118 17.2101L16.11 17.5491C15.9649 17.4385 15.7879 17.3776 15.6054 17.3756C15.4503 17.3881 15.3055 17.4586 15.2 17.573C15.0944 17.6875 15.0358 17.8374 15.0358 17.9931C15.0358 18.1488 15.0944 18.2987 15.2 18.4132C15.3055 18.5276 15.4503 18.5981 15.6054 18.6107C15.7879 18.6086 15.9649 18.5478 16.11 18.4371L16.3118 18.7761C16.1173 18.9369 15.8696 19.019 15.6175 19.0062C15.4821 19.0139 15.3465 18.9932 15.2195 18.9455C15.0925 18.8978 14.9769 18.824 14.88 18.7291C14.7831 18.6341 14.7071 18.5199 14.6569 18.3939ZM18.5196 17.0365V17.9971V18.9578H18.0998V18.7237C18.0286 18.8154 17.9365 18.8889 17.8312 18.938C17.7259 18.9871 17.6105 19.0105 17.4944 19.0062C17.2268 19.0062 16.9701 18.8999 16.7809 18.7107C16.5917 18.5214 16.4853 18.2648 16.4853 17.9971C16.4853 17.7295 16.5917 17.4729 16.7809 17.2836C16.9701 17.0944 17.2268 16.9881 17.4944 16.9881C17.6105 16.9838 17.7259 17.0072 17.8312 17.0563C17.9365 17.1054 18.0286 17.1789 18.0998 17.2706V17.0365H18.5196ZM17.072 17.6832C17.004 17.7745 16.9643 17.8836 16.9576 17.9971C16.9523 18.0769 16.9636 18.1569 16.9907 18.232C17.0178 18.3072 17.0601 18.376 17.1151 18.434C17.1701 18.492 17.2365 18.538 17.3101 18.5691C17.3837 18.6002 17.4629 18.6157 17.5428 18.6147C17.6566 18.6141 17.7677 18.5803 17.8625 18.5173C17.9573 18.4544 18.0315 18.3651 18.0762 18.2605C18.1209 18.1558 18.134 18.0404 18.1139 17.9285C18.0938 17.8165 18.0414 17.7128 17.9631 17.6303C17.8849 17.5477 17.7842 17.4898 17.6735 17.4637C17.5627 17.4377 17.4468 17.4446 17.3399 17.4836C17.233 17.5225 17.1399 17.5919 17.072 17.6832ZM11.1827 17.2936C11.3693 17.1017 11.6245 16.9918 11.8921 16.9881L11.8981 16.9921C12.439 16.9921 12.8144 17.3957 12.8144 18.0012V18.1626H11.3815C11.3973 18.301 11.4664 18.4278 11.5742 18.516C11.682 18.6041 11.8199 18.6468 11.9587 18.6349C12.1629 18.6319 12.3604 18.5609 12.5197 18.4331L12.7215 18.7439C12.4962 18.9276 12.2107 19.0211 11.9203 19.0062C11.6527 19.01 11.3946 18.9072 11.2027 18.7206C11.0108 18.5341 10.9009 18.2789 10.8971 18.0113C10.8934 17.7437 10.9961 17.4855 11.1827 17.2936ZM12.0759 17.396C12.0174 17.3732 11.9549 17.3621 11.8921 17.3635H11.884C11.7543 17.359 11.6281 17.4055 11.5323 17.4931C11.4365 17.5806 11.3787 17.7021 11.3714 17.8317H12.3805C12.3792 17.7688 12.3655 17.7069 12.3402 17.6494C12.315 17.5918 12.2786 17.5399 12.2333 17.4964C12.1879 17.4529 12.1344 17.4188 12.0759 17.396ZM22.4086 16.2616V18.0012V18.9578H22.0049V18.7237C21.9336 18.8154 21.8416 18.8889 21.7363 18.938C21.631 18.9871 21.5156 19.0105 21.3995 19.0062C21.1319 19.0062 20.8752 18.8999 20.686 18.7107C20.4967 18.5214 20.3904 18.2648 20.3904 17.9971C20.3904 17.7295 20.4967 17.4729 20.686 17.2836C20.8752 17.0944 21.1319 16.9881 21.3995 16.9881C21.5156 16.9838 21.631 17.0072 21.7363 17.0563C21.8416 17.1054 21.9336 17.1789 22.0049 17.2706V16.2616H22.4086ZM23.1138 18.6853C23.1383 18.6856 23.1627 18.6904 23.1855 18.6995C23.2087 18.7089 23.2299 18.7226 23.2481 18.7398C23.2658 18.7572 23.2802 18.7777 23.2905 18.8004C23.3007 18.8239 23.306 18.8493 23.306 18.875C23.306 18.9007 23.3007 18.9261 23.2905 18.9497C23.2802 18.9723 23.2658 18.9928 23.2481 19.0102C23.2299 19.0275 23.2087 19.0412 23.1855 19.0506C23.1614 19.0613 23.1353 19.0668 23.1088 19.0668C23.0706 19.0665 23.0332 19.0553 23.001 19.0346C22.9689 19.0139 22.9433 18.9844 22.9272 18.9497C22.9171 18.9261 22.9119 18.9007 22.9119 18.875C22.9119 18.8494 22.9171 18.824 22.9272 18.8004C22.9375 18.7777 22.9519 18.7572 22.9696 18.7398C22.9878 18.7226 23.009 18.7089 23.0322 18.6995C23.0584 18.689 23.0866 18.6842 23.1149 18.6853H23.1138ZM23.1674 19.0143C23.1495 19.0222 23.1302 19.0263 23.1106 19.0264H23.1149C23.0927 19.0272 23.0707 19.0231 23.0503 19.0143C23.0322 19.0068 23.0158 18.9958 23.0019 18.982C22.9766 18.9544 22.9626 18.9184 22.9626 18.8811C22.9626 18.8437 22.9766 18.8077 23.0019 18.7802C23.0157 18.7663 23.0322 18.7553 23.0503 18.7479C23.0688 18.74 23.0887 18.7359 23.1088 18.7358C23.129 18.7357 23.1489 18.7398 23.1674 18.7479C23.1848 18.7556 23.2005 18.7666 23.2138 18.7802C23.239 18.8077 23.253 18.8437 23.253 18.8811C23.253 18.9184 23.239 18.9544 23.2138 18.982C23.2005 18.9956 23.1847 19.0065 23.1674 19.0143ZM23.1734 18.8024C23.1584 18.791 23.1398 18.7853 23.121 18.7862L23.0362 18.7883V18.9658H23.0745V18.8993H23.0927L23.1472 18.9658H23.1936L23.1351 18.8993C23.1508 18.8981 23.1658 18.8917 23.1775 18.8811C23.1822 18.8763 23.1859 18.8707 23.1883 18.8644C23.1908 18.8582 23.1919 18.8515 23.1916 18.8448C23.1921 18.8368 23.1908 18.8287 23.1876 18.8214C23.1845 18.814 23.1796 18.8075 23.1734 18.8024ZM23.0766 18.869V18.8205L23.121 18.8327C23.1289 18.8303 23.1373 18.8303 23.1452 18.8327C23.1466 18.8355 23.1473 18.8386 23.1473 18.8417C23.1473 18.8449 23.1466 18.848 23.1452 18.8508C23.1466 18.8536 23.1473 18.8567 23.1473 18.8599C23.1473 18.8616 23.1471 18.8633 23.1467 18.865C23.1463 18.8663 23.1458 18.8677 23.1452 18.869C23.1373 18.8713 23.1289 18.8713 23.121 18.869H23.0766ZM20.971 17.6872C20.9031 17.7785 20.8633 17.8876 20.8566 18.0012C20.8513 18.0809 20.8626 18.1609 20.8897 18.2361C20.9168 18.3112 20.9592 18.38 21.0141 18.438C21.0691 18.496 21.1355 18.542 21.2091 18.5731C21.2827 18.6042 21.362 18.6197 21.4419 18.6187C21.5556 18.6181 21.6667 18.5843 21.7615 18.5214C21.8563 18.4584 21.9306 18.3691 21.9752 18.2645C22.0199 18.1599 22.033 18.0445 22.0129 17.9325C21.9928 17.8205 21.9404 17.7169 21.8622 17.6343C21.7839 17.5517 21.6832 17.4938 21.5725 17.4678C21.4618 17.4417 21.3458 17.4486 21.2389 17.4876C21.1321 17.5266 21.0389 17.596 20.971 17.6872ZM6.68329 17.0365V18.0012V18.9578H6.26352V18.7237C6.19224 18.8154 6.10016 18.8889 5.99489 18.938C5.88962 18.9871 5.77417 19.0105 5.65808 19.0062C5.39046 19.0062 5.1338 18.8999 4.94457 18.7107C4.75533 18.5214 4.64902 18.2648 4.64902 17.9971C4.64902 17.7295 4.75533 17.4729 4.94457 17.2836C5.1338 17.0944 5.39046 16.9881 5.65808 16.9881C5.77417 16.9838 5.88962 17.0072 5.99489 17.0563C6.10016 17.1054 6.19224 17.1789 6.26352 17.2706V17.0365H6.68329ZM5.23565 17.6872C5.16772 17.7785 5.12795 17.8876 5.12126 18.0012H5.11723C5.1119 18.0813 5.12327 18.1616 5.15062 18.237C5.17798 18.3125 5.22071 18.3814 5.27612 18.4395C5.33153 18.4976 5.3984 18.5435 5.47249 18.5743C5.54658 18.6052 5.62628 18.6203 5.70652 18.6187C5.82028 18.6181 5.93139 18.5843 6.02615 18.5214C6.12092 18.4584 6.19522 18.3691 6.23989 18.2645C6.28456 18.1599 6.29765 18.0445 6.27756 17.9325C6.25747 17.8205 6.20508 17.7169 6.12682 17.6343C6.04857 17.5517 5.94787 17.4938 5.83714 17.4678C5.7264 17.4417 5.61046 17.4486 5.50358 17.4876C5.39671 17.5266 5.30358 17.596 5.23565 17.6872Z" fill="#A6BFBF"/>
</svg>
