<svg width="19" height="24" viewBox="0 0 19 24" fill="none" xmlns="http://www.w3.org/2000/svg">
<path d="M4.71387 0C5.26615 2.41411e-08 5.71387 0.447715 5.71387 1V2.28613H8V1C8 0.447716 8.44772 -2.41411e-08 9 0H9.28516C9.83744 2.41411e-08 10.2852 0.447715 10.2852 1V2.28613H12.5713V1C12.5713 0.447716 13.019 -2.41411e-08 13.5713 0H13.8564C14.4087 2.41411e-08 14.8564 0.447715 14.8564 1V2.28613H18.2861V24H0V2.28613H3.42871V1C3.42871 0.447716 3.87643 -2.41411e-08 4.42871 0H4.71387ZM2.28516 21.7148H16V4.57227H14.8564V4.71387C14.8564 5.26615 14.4087 5.71387 13.8564 5.71387H13.5713C13.019 5.71387 12.5713 5.26615 12.5713 4.71387V4.57227H10.2852V4.71387C10.2852 5.26615 9.83744 5.71387 9.28516 5.71387H9C8.44771 5.71387 8 5.26615 8 4.71387V4.57227H5.71387V4.71387C5.71387 5.26615 5.26615 5.71387 4.71387 5.71387H4.42871C3.87643 5.71387 3.42871 5.26615 3.42871 4.71387V4.57227H2.28516V21.7148ZM9.14258 19.4287H4.57129V17.1426H9.14258V19.4287ZM13.7139 14.8574H4.57129V12.5713H13.7139V14.8574ZM13.7139 10.2852H4.57129V8H13.7139V10.2852Z" fill="white"/>
</svg>
