<svg width="51" height="48" viewBox="0 0 51 48" fill="none" xmlns="http://www.w3.org/2000/svg">
<path fill-rule="evenodd" clip-rule="evenodd" d="M25.3101 11.52V8H27.8101V11.52H25.3101ZM24.8688 16.9386C24.8688 16.0956 25.588 15.3406 26.565 15.3406C27.5421 15.3406 28.2612 16.0956 28.2612 16.9386C28.2612 17.7815 27.5421 18.5366 26.565 18.5366C25.588 18.5366 24.8688 17.7815 24.8688 16.9386ZM26.565 12.8406C24.2878 12.8406 22.3688 14.6357 22.3688 16.9386C22.3688 19.2414 24.2878 21.0366 26.565 21.0366C28.8423 21.0366 30.7612 19.2414 30.7612 16.9386C30.7612 14.6357 28.8423 12.8406 26.565 12.8406ZM33.8265 31.053L40.9865 21.1351L43.0135 22.5984L35.8568 32.5117C35.2522 33.3634 34.2427 33.7834 33.28 33.7834H10V31.2834H33.28C33.5683 31.2834 33.7562 31.1525 33.8187 31.0639L33.8265 31.053L33.8265 31.053ZM9.85416 35.55H35.5266V40H33.0266V38.05H12.3542V39.8657H9.85416V35.55ZM20.9061 15.6882H17.2647V18.1882H20.9061V15.6882ZM32.1297 15.6882H35.7601V18.1882H32.1297V15.6882ZM32.2529 9.75751L29.6819 12.2428L31.4194 14.0403L33.9905 11.555L32.2529 9.75751ZM20.8645 9.72308L23.4465 12.2084L21.7128 14.0096L19.1308 11.5243L20.8645 9.72308ZM25.3082 22.3679V25.8879H27.8082V22.3679H25.3082ZM19.1649 22.3954L21.747 19.91L23.4807 21.7112L20.8986 24.1966L19.1649 22.3954ZM33.9545 22.3647L31.3835 19.8793L29.6459 21.6768L32.2169 24.1621L33.9545 22.3647Z" fill="#0D5257"/>
</svg>
