<svg width="51" height="48" viewBox="0 0 51 48" fill="none" xmlns="http://www.w3.org/2000/svg">
<path fill-rule="evenodd" clip-rule="evenodd" d="M14.0778 9.25C12.9525 9.25 12.2438 10.0627 12.2501 10.8166L12.2501 10.827H12.2501V15.8397C12.2501 16.6107 12.9626 17.4167 14.0778 17.4167H33.2556C34.3744 17.4167 35.0834 16.6194 35.0834 15.8397V10.827C35.0834 10.0559 34.3708 9.25 33.2556 9.25H14.0778ZM9.7501 10.8317C9.73384 8.47651 11.7911 6.75 14.0778 6.75H33.2556C35.5544 6.75 37.5834 8.48601 37.5834 10.827V12.0833H41.5834V21.9065L26.1659 25.4379C25.825 25.5159 25.5834 25.8192 25.5834 26.1689V28.0868C27.1106 28.1618 28.25 29.4637 28.25 30.9546V38.3788C28.25 39.9148 27.0408 41.2501 25.444 41.2501H23.2227C21.6422 41.2501 20.4167 39.9205 20.4167 38.3788V30.9546C20.4167 29.4637 21.5561 28.1618 23.0834 28.0868V26.1689C23.0834 24.6536 24.1306 23.3393 25.6077 23.001L39.0834 19.9144V14.5833H37.5834V15.8397C37.5834 18.1958 35.5508 19.9167 33.2556 19.9167H14.0778C11.7791 19.9167 9.7501 18.1807 9.7501 15.8397V10.8317ZM22.9167 30.9546C22.9167 30.7016 23.1025 30.5834 23.2227 30.5834H25.444C25.5643 30.5834 25.75 30.7016 25.75 30.9546V38.3788C25.75 38.6318 25.5643 38.7501 25.444 38.7501H23.2227C23.1077 38.7501 22.9167 38.6261 22.9167 38.3788V30.9546Z" fill="#0D5257"/>
</svg>
