<svg width="41" height="17" viewBox="0 0 41 17" fill="none" xmlns="http://www.w3.org/2000/svg">
<g clip-path="url(#clip0_2882_14931)">
<g opacity="0.6" clip-path="url(#clip1_2882_14931)">
<path d="M40.5838 3.00146V13.1091H38.2949V3.00146H40.5838Z" fill="white"/>
<path d="M37.45 6.40988V13.1232H35.4148V12.5454C35.1581 12.7966 34.864 12.9882 34.5372 13.1232C34.209 13.266 33.8542 13.3383 33.473 13.3383C32.9938 13.3383 32.5503 13.2488 32.1426 13.0698C31.7349 12.8814 31.3802 12.6271 31.0783 12.3052C30.7765 11.9834 30.5369 11.6066 30.3595 11.178C30.1914 10.7399 30.1074 10.269 30.1074 9.76812C30.1074 9.26729 30.1914 8.80098 30.3595 8.37237C30.5369 7.93438 30.7765 7.55286 31.0783 7.23101C31.3802 6.90917 31.7349 6.65794 32.1426 6.479C32.5503 6.29057 32.9938 6.19641 33.473 6.19641C33.8542 6.19641 34.209 6.26859 34.5372 6.41149C34.8656 6.54651 35.1581 6.73806 35.4148 6.98923V6.41149H37.45V6.40988ZM33.8433 11.2973C34.2603 11.2973 34.6011 11.1544 34.8671 10.8671C35.1425 10.5814 35.2794 10.214 35.2794 9.76657C35.2794 9.31908 35.1425 8.95171 34.8671 8.66596C34.6011 8.38025 34.2587 8.2358 33.8433 8.2358C33.4279 8.2358 33.0809 8.3787 32.8055 8.66596C32.5394 8.95171 32.4055 9.31908 32.4055 9.76657C32.4055 10.214 32.5394 10.5814 32.8055 10.8671C33.0809 11.1528 33.4263 11.2973 33.8433 11.2973Z" fill="white"/>
<path d="M26.8442 3C27.4479 3 27.9613 3.08478 28.3877 3.25434C28.8141 3.4239 29.1735 3.66097 29.466 3.96554C29.7679 4.27954 30.0028 4.6375 30.1709 5.03942C30.3389 5.4429 30.4229 5.87622 30.4229 6.34253C30.4229 6.80878 30.3389 7.2421 30.1709 7.64561C30.0028 8.04907 29.7679 8.40706 29.466 8.71947C29.1735 9.02404 28.8141 9.26111 28.3877 9.43067C27.9613 9.60027 27.4479 9.68505 26.8442 9.68505H25.7394V13.1217H23.4102V3H26.8426H26.8442ZM26.5112 7.60481C26.8224 7.60481 27.0605 7.57339 27.2301 7.51059C27.4075 7.43836 27.5537 7.34887 27.6689 7.2421C27.9085 7.01759 28.0283 6.71773 28.0283 6.34253C28.0283 5.96727 27.9085 5.66741 27.6689 5.4429C27.5537 5.33613 27.4075 5.2498 27.2301 5.18856C27.062 5.11633 26.8224 5.0818 26.5112 5.0818H25.7394V7.60636H26.5112V7.60481Z" fill="white"/>
<path d="M14.8316 6.40985H17.3601L19.0763 9.63146H19.1028L20.6323 6.40985H22.974L17.9576 16.5331H15.6283L17.9171 11.9017L14.8301 6.40985H14.8316Z" fill="white"/>
<path d="M14.3778 6.40988V13.1232H12.3426V12.5454C12.0858 12.7966 11.7917 12.9882 11.465 13.1232C11.1367 13.266 10.7819 13.3383 10.4007 13.3383C9.92149 13.3383 9.478 13.2488 9.07034 13.0698C8.66268 12.8814 8.30791 12.6271 8.00608 12.3052C7.7042 11.9834 7.46459 11.6066 7.28721 11.178C7.11916 10.7399 7.03516 10.269 7.03516 9.76812C7.03516 9.26729 7.11916 8.80098 7.28721 8.37237C7.46459 7.93438 7.7042 7.55286 8.00608 7.23101C8.30791 6.90917 8.66268 6.65794 9.07034 6.479C9.478 6.29057 9.92149 6.19641 10.4007 6.19641C10.7819 6.19641 11.1367 6.26859 11.465 6.41149C11.7933 6.54651 12.0858 6.73806 12.3426 6.98923V6.41149H14.3778V6.40988ZM10.771 11.2973C11.188 11.2973 11.5288 11.1544 11.7964 10.8671C12.0718 10.5814 12.2087 10.214 12.2087 9.76657C12.2087 9.31908 12.0718 8.95171 11.7964 8.66596C11.5303 8.38025 11.188 8.2358 10.771 8.2358C10.354 8.2358 10.0086 8.3787 9.73322 8.66596C9.46711 8.95171 9.33333 9.31908 9.33333 9.76657C9.33333 10.214 9.46711 10.5814 9.73322 10.8671C10.0086 11.1528 10.354 11.2973 10.771 11.2973Z" fill="white"/>
<path d="M3.86804 3C4.47175 3 4.98518 3.08478 5.41156 3.25434C5.83789 3.4239 6.19732 3.66097 6.48982 3.96554C6.7917 4.27954 7.02664 4.6375 7.19469 5.03942C7.36275 5.4429 7.44675 5.87622 7.44675 6.34253C7.44675 6.80878 7.36275 7.2421 7.19469 7.64561C7.02664 8.04907 6.7917 8.40706 6.48982 8.71947C6.19732 9.02404 5.83789 9.26111 5.41156 9.43067C4.98518 9.60027 4.47175 9.68505 3.86804 9.68505H2.76328V13.1217H0.435547V3H3.86804ZM3.5366 7.60481C3.84781 7.60481 4.08587 7.57339 4.25547 7.51059C4.43286 7.43836 4.57908 7.34887 4.69424 7.2421C4.93385 7.01759 5.05368 6.71773 5.05368 6.34253C5.05368 5.96727 4.93385 5.66741 4.69424 5.4429C4.57908 5.33613 4.43286 5.2498 4.25547 5.18856C4.08742 5.11633 3.84781 5.0818 3.5366 5.0818H2.76484V7.60636H3.5366V7.60481Z" fill="white"/>
</g>
</g>
<defs>
<clipPath id="clip0_2882_14931">
<rect width="40.4444" height="17" fill="white" transform="translate(0.175781)"/>
</clipPath>
<clipPath id="clip1_2882_14931">
<rect width="40.4444" height="14" fill="white" transform="translate(0.175781 3)"/>
</clipPath>
</defs>
</svg>
