<svg width="51" height="48" viewBox="0 0 51 48" fill="none" xmlns="http://www.w3.org/2000/svg">
<g id="48px / Pets">
<path id="Union" fill-rule="evenodd" clip-rule="evenodd" d="M25.5364 24.0935C28.4222 24.2218 30.8968 26.035 32.7073 28.1384C33.8777 29.4984 34.9862 31.2306 35.5578 32.9275C36.1072 34.5584 36.2902 36.6032 34.8567 38.0368C34.0186 38.8749 33.092 39.2854 32.092 39.321C31.1615 39.3541 30.2885 39.0543 29.5549 38.7517C27.9458 38.088 26.7592 37.3701 25.2317 37.3698C24.4041 37.3698 23.5799 37.7315 22.5715 38.239C22.1074 38.4725 21.5706 38.7522 21.053 38.9568C20.5315 39.1627 19.9063 39.3461 19.2366 39.3122C18.1579 39.2576 17.2111 38.9647 16.4827 38.3708C15.7403 37.7655 15.3483 36.9471 15.2102 36.0847C14.9479 34.4452 15.5738 32.5404 16.4914 30.8708C17.4335 29.1566 18.8035 27.4661 20.3381 26.2068C21.8413 24.9733 23.68 24.0111 25.5364 24.0935ZM25.425 26.5915C24.4688 26.5492 23.2301 27.0686 21.925 28.1394C20.651 29.1849 19.4807 30.6233 18.6828 32.0749C17.8607 33.5709 17.5471 34.8704 17.678 35.6892C17.7366 36.0556 17.8746 36.2806 18.0618 36.4333C18.2629 36.5973 18.6458 36.7788 19.3625 36.8152C19.5154 36.8229 19.7536 36.7822 20.135 36.6316C20.5198 36.4795 20.9267 36.2681 21.4485 36.0056C22.4128 35.5203 23.7332 34.8699 25.2307 34.8698C27.4094 34.8699 29.3134 35.9484 30.508 36.4411C31.1761 36.7167 31.634 36.8351 32.0032 36.822C32.3028 36.8113 32.6465 36.7099 33.0881 36.2683C33.4762 35.88 33.6516 35.1006 33.1887 33.7263C32.7479 32.4179 31.8385 30.9622 30.8127 29.7702C29.2081 27.9059 27.3217 26.6758 25.425 26.5915ZM12.9319 17.7771C14.2095 17.7516 15.2639 18.5124 15.9973 19.3308C16.7554 20.1769 17.3533 21.2778 17.7209 22.3777C18.0831 23.4617 18.2688 24.686 18.0481 25.7634C17.9351 26.3143 17.7048 26.8748 17.2883 27.3415C16.86 27.8215 16.2912 28.1376 15.6243 28.2644C14.6196 28.4551 13.662 28.0203 12.9328 27.4851C12.1708 26.9256 11.4558 26.1145 10.8557 25.1677C10.1406 24.0394 9.64963 22.4225 9.74925 20.9929C9.79989 20.2674 10.012 19.4699 10.5578 18.8298C11.1357 18.1523 11.9636 17.7965 12.9319 17.7771ZM37.8528 17.7741C38.6688 17.7943 39.4316 18.1328 40.0891 18.739C41.4297 19.9753 41.4205 21.7736 41.0491 23.1657C40.6682 24.593 39.8214 26.0008 38.8694 26.9402C38.2931 27.5086 37.5468 27.9179 36.7766 28.1042C36.0137 28.2887 35.1066 28.2788 34.3059 27.8279C33.4588 27.3506 32.9388 26.4978 32.7932 25.4284C32.6535 24.4014 32.8483 23.1558 33.3713 21.6921C33.8024 20.4858 34.6451 19.19 35.7698 18.4304C36.3468 18.0407 37.0573 17.7546 37.8528 17.7741ZM12.9817 20.2761C12.6262 20.2833 12.5121 20.3911 12.4602 20.4519C12.3766 20.55 12.2714 20.7658 12.2434 21.1667C12.1859 21.9917 12.4967 23.0851 12.968 23.8288C13.4443 24.5804 13.9587 25.1364 14.4123 25.4695C14.8948 25.8236 15.139 25.8113 15.1575 25.8083C15.3145 25.7785 15.3824 25.7241 15.4241 25.6775C15.4774 25.6176 15.551 25.4946 15.5989 25.2614C15.6997 24.7691 15.634 24.0171 15.3508 23.1696C15.073 22.3385 14.6304 21.5517 14.136 20.9997C13.6167 20.4202 13.2046 20.2717 12.9817 20.2761ZM37.7912 20.2732C37.6465 20.2697 37.4381 20.3194 37.1682 20.5017C36.5987 20.8864 36.0303 21.6812 35.7258 22.5329C35.2738 23.7979 35.2048 24.6142 35.2698 25.0915C35.3288 25.5249 35.4816 25.6214 35.5325 25.6501C35.6297 25.7049 35.8467 25.7572 36.1887 25.6745C36.5232 25.5936 36.8642 25.4058 37.1135 25.1599C37.7534 24.5284 38.3687 23.5113 38.633 22.5212C38.9067 21.4957 38.7258 20.883 38.3938 20.5769C38.1155 20.3203 37.9155 20.2763 37.7912 20.2732ZM17.7668 9.41574C18.4964 8.84316 19.4168 8.63925 20.425 8.81516C21.7492 9.04636 22.6823 10.0501 23.2717 11.0642C23.8792 12.1095 24.263 13.3912 24.4045 14.6247C24.5442 15.8427 24.4641 17.1592 24.0002 18.2312C23.5088 19.3665 22.5192 20.3145 20.9875 20.3073C19.9184 20.3023 19.0198 19.6629 18.3713 18.948C17.6967 18.204 17.1251 17.2027 16.7043 16.0798C16.2048 14.7465 16.0515 12.9498 16.47 11.4792C16.6823 10.7333 17.0752 9.95884 17.7668 9.41574ZM30.7121 8.71457C31.6287 8.56846 32.5286 8.84626 33.3166 9.49289C34.3487 10.3398 34.6774 11.6665 34.7063 12.8376C34.7361 14.0457 34.4608 15.3525 33.9983 16.5007C33.5419 17.6334 32.8478 18.7499 31.9328 19.4646C31.4654 19.8297 30.8991 20.1194 30.2522 20.2077C29.5881 20.2982 28.9228 20.1639 28.3059 19.8112C27.3841 19.2839 26.9133 18.2891 26.6926 17.3523C26.4626 16.3753 26.4433 15.2227 26.6116 14.0359C26.8111 12.6288 27.5278 10.9796 28.591 9.89426C29.1303 9.34391 29.8445 8.85305 30.7121 8.71457ZM19.9953 11.278C19.5945 11.2081 19.413 11.3015 19.3098 11.3825C19.169 11.4934 18.9978 11.7298 18.8743 12.1638C18.6207 13.0552 18.7087 14.3023 19.0461 15.2029C19.3848 16.1066 19.8097 16.8115 20.2229 17.2673C20.6614 17.7508 20.9433 17.8068 20.9993 17.8073C21.2839 17.8085 21.504 17.7037 21.7053 17.239C21.9341 16.7103 22.031 15.8768 21.9202 14.9099C21.811 13.9585 21.5168 13.019 21.1106 12.32C20.6861 11.5897 20.2679 11.3257 19.9953 11.278ZM31.1067 11.1843C30.9437 11.2103 30.6889 11.3261 30.3772 11.6443C29.7383 12.2964 29.2219 13.4303 29.0862 14.3874C28.9504 15.3452 28.9839 16.173 29.1262 16.778C29.2778 17.4222 29.4986 17.6134 29.5471 17.6413C29.7136 17.7364 29.8274 17.7432 29.9153 17.7312C30.0206 17.7167 30.1813 17.659 30.3928 17.4939C30.8367 17.1472 31.3157 16.4687 31.6789 15.5671C32.0358 14.6813 32.2282 13.7131 32.2082 12.8991C32.1872 12.0483 31.9481 11.6041 31.7307 11.4255C31.416 11.1673 31.2211 11.1661 31.1067 11.1843Z" fill="#0D5257"/>
</g>
</svg>
