<svg width="13" height="16" viewBox="0 0 13 16" fill="none" xmlns="http://www.w3.org/2000/svg">
<path d="M9.14258 0C9.56333 1.23569e-05 9.90426 0.340967 9.9043 0.761719V1.52344H12.1904V16H0V1.52344H2.28516V0.761719C2.28519 0.341115 2.62632 0.000251318 3.04688 0C3.46764 1.83923e-08 3.80954 0.34096 3.80957 0.761719V1.52344H5.33301V0.761719C5.33304 0.341061 5.6741 0.000163367 6.09473 0C6.51549 1.83923e-08 6.85641 0.34096 6.85645 0.761719V1.52344H8.38086V0.761719C8.38089 0.34096 8.72181 -1.83923e-08 9.14258 0ZM1.52344 14.4756H10.667V3.04688H9.9043V3.04785C9.90411 3.46847 9.56324 3.80956 9.14258 3.80957C8.72191 3.80957 8.38105 3.46848 8.38086 3.04785V3.04688H6.85645V3.04785C6.85625 3.46848 6.5154 3.80957 6.09473 3.80957C5.67408 3.80941 5.33301 3.46756 5.33301 3.04688H3.80957V3.04785C3.80938 3.46848 3.46755 3.80957 3.04688 3.80957C2.6263 3.80932 2.28516 3.46751 2.28516 3.04688H1.52344V14.4756ZM6.09473 12.9521H3.04785V11.4287H6.09473V12.9521ZM9.14258 9.9043H3.04785V8.38086H9.14258V9.9043ZM9.14258 6.85742H3.04785V5.33301H9.14258V6.85742Z" fill="white"/>
</svg>
