<svg width="35" height="34" viewBox="0 0 35 34" fill="none" xmlns="http://www.w3.org/2000/svg">
<path fill-rule="evenodd" clip-rule="evenodd" d="M24.922 14.3181H12.3125L11.6568 14.9899C10.3338 16.3454 8.79704 17.4602 7.11577 18.2939C7.21355 17.6231 7.25854 16.9429 7.24908 16.2597V14.4598L5.85467 13.8952C4.60981 13.3911 3.5781 12.4695 2.93572 11.2876C2.29334 10.1057 2.08014 8.73682 2.33254 7.41483C2.58493 6.09284 3.28726 4.8997 4.31958 4.03917C5.35044 3.17985 6.64651 2.70543 7.987 2.69661H24.922C26.4592 2.69661 27.9334 3.30881 29.0203 4.39854C30.1073 5.48826 30.7179 6.96625 30.7179 8.50736C30.7179 10.0485 30.1073 11.5265 29.0203 12.6162C27.9334 13.7059 26.4592 14.3181 24.922 14.3181ZM4.54731 21.6352C5.17602 21.4684 5.79395 21.2698 6.39891 21.0407C8.97394 20.0654 11.314 18.5366 13.25 16.553H24.922C27.0504 16.553 29.0916 15.7054 30.5966 14.1965C32.1016 12.6876 32.9471 10.6412 32.9471 8.50736C32.9471 6.37352 32.1016 4.32707 30.5966 2.81822C29.0916 1.30937 27.0504 0.4617 24.922 0.4617H7.98025C6.12138 0.472107 4.32376 1.12917 2.89439 2.32068C1.46503 3.51219 0.492571 5.16423 0.143103 6.99468C-0.206365 8.82512 0.0888322 10.7204 0.97828 12.3569C1.86773 13.9934 3.29626 15.2696 5.0199 15.9675V16.2759C5.03547 17.2979 4.90353 18.3115 4.63226 19.2865C4.52239 19.6814 4.38965 20.07 4.23461 20.4502L4.23209 20.4563C4.02658 20.9594 3.782 21.4477 3.4996 21.9168L4.54731 21.6352ZM27.2554 28.1704L26.5984 27.4906H17.5485C16.6604 27.4586 15.8185 27.0843 15.1985 26.445C14.5721 25.7992 14.2217 24.934 14.2217 24.0332C14.2217 23.1325 14.5721 22.2672 15.1985 21.6214C15.8185 20.9822 16.6604 20.6078 17.5485 20.5758H29.3332C30.1321 20.5789 30.9052 20.8598 31.5206 21.3706C32.1367 21.882 32.5565 22.5921 32.7082 23.3796C32.8598 24.167 32.7339 24.9828 32.3519 25.6874C31.97 26.392 31.3557 26.9418 30.6142 27.2425L29.221 27.8076V29.5332C29.2201 29.6175 29.2202 29.7018 29.2214 29.786C28.5098 29.3267 27.8496 28.7853 27.2554 28.1704ZM13.6003 20.0634C14.6313 19.0004 16.0351 18.3825 17.5134 18.3409H29.337C30.6536 18.3449 31.928 18.8073 32.9422 19.6491C33.9564 20.4909 34.6473 21.6598 34.8969 22.9559C35.1465 24.252 34.9393 25.5948 34.3106 26.7546C33.6818 27.9144 32.6708 28.8192 31.4502 29.3143V29.5467C31.4442 30.0129 31.4813 30.4765 31.56 30.932C31.6551 31.483 31.8111 32.0219 32.0253 32.5388L32.026 32.5404C32.1683 32.8838 32.3363 33.2174 32.5291 33.5383L31.8113 33.3461C31.0734 33.1495 30.3566 32.8906 29.6682 32.5735C28.1717 31.8844 26.8093 30.9207 25.6544 29.7255H17.5134C16.0351 29.684 14.6313 29.066 13.6003 28.0031C12.5693 26.9401 11.9925 25.5159 11.9925 24.0332C11.9925 22.5506 12.5693 21.1264 13.6003 20.0634Z" fill="#4A4A4A"/>
</svg>
