<svg width="51" height="48" viewBox="0 0 51 48" fill="none" xmlns="http://www.w3.org/2000/svg">
<g id="48px / Smart Home &#38; Electrical">
<path id="Union" d="M26.3677 9.7749C34.0569 9.96984 40.23 16.2643 40.23 24.0005L40.2261 24.3677C40.031 32.0566 33.7364 38.2298 26.0005 38.23L25.6333 38.2261C18.066 38.0346 11.9669 31.9348 11.7749 24.3677L11.77 24.0005C11.77 16.1414 18.1414 9.77002 26.0005 9.77002L26.3677 9.7749ZM26.0005 12.27C19.5221 12.27 14.27 17.5221 14.27 24.0005C14.2704 30.4785 19.5223 35.73 26.0005 35.73C32.4785 35.7298 37.7296 30.4784 37.73 24.0005C37.73 17.5222 32.4787 12.2702 26.0005 12.27ZM27.3071 32.3511H24.8071V26.1714H27.3071V32.3511ZM22.0503 18.1255L23.1323 18.7505L20.0405 24.1069L17.8745 22.8569L20.9673 17.5005L22.0503 18.1255ZM33.9683 22.854L32.8862 23.479L31.8032 24.104L28.7124 18.7505L29.7954 18.1255L30.8774 17.5005L33.9683 22.854Z" fill="#0D5257"/>
</g>
</svg>
