<svg width="15" height="18" viewBox="0 0 15 18" fill="none" xmlns="http://www.w3.org/2000/svg">
<path d="M13.9728 4.18869C13.9728 4.18869 13.3166 1.56369 10.2228 0.907441C10.2228 0.907441 7.78533 -0.123797 4.87908 1.09495C4.87908 1.09495 2.25409 2.3137 1.22284 5.03245C1.22284 5.03245 0.28533 7.37619 1.59783 9.25119C1.59783 9.25119 2.53532 10.4699 3.37907 10.2824C3.37907 10.2824 3.75407 9.53245 3.37907 8.5012C3.37907 8.5012 2.34782 7.00119 3.37907 5.12619C3.37907 5.12619 4.12909 3.25119 6.37909 2.59494C6.37909 2.59494 8.81657 1.65744 10.4103 3.25119C10.4103 3.25119 11.5353 4.1887 11.9103 5.6887C11.9103 5.6887 12.2853 7.09496 11.5353 9.15746C11.5353 9.15746 10.6916 10.5637 9.94157 10.8449C9.94157 10.8449 8.44159 11.6887 7.31659 10.3762L6.94158 9.81369C7.12908 9.06369 7.31659 8.5012 7.31659 8.5012C8.44159 7.3762 8.16033 5.5012 8.16033 5.5012C7.87908 4.1887 6.28533 4.65744 6.28533 4.65744C5.25408 4.84494 4.87908 6.81369 4.87908 6.81369C4.87908 7.65744 5.34783 8.59495 5.34783 8.59495C4.97283 9.15745 4.31657 12.5324 4.31657 12.5324C3.75407 15.1574 4.22283 17.4074 4.22283 17.4074C4.59783 17.4074 5.06658 16.6575 5.06658 16.6575C6.28533 15.4387 6.47283 12.345 6.47283 12.345C6.47283 12.1575 6.56657 11.8762 6.66032 11.5949C7.12907 12.1574 8.62908 13.5637 10.5041 12.9075C10.5041 12.9075 13.5041 12.2512 14.3478 8.78244C14.2541 8.78244 15.0978 6.43869 13.9728 4.18869Z" fill="#A6BFBF"/>
</svg>
