<svg width="25" height="20" viewBox="0 0 25 20" fill="none" xmlns="http://www.w3.org/2000/svg">
<path fill-rule="evenodd" clip-rule="evenodd" d="M23.7886 4.5945C23.6786 3.63676 23.3513 2.71906 22.833 1.9155C22.224 1.20546 21.3528 0.791734 20.4325 0.7755C17.0763 0.5 12.0305 0.5 12.0305 0.5H12.0222C12.0222 0.5 6.98291 0.5 3.62491 0.7755C2.70473 0.792202 1.8337 1.20585 1.22435 1.9155C0.707504 2.71938 0.38173 3.63711 0.273365 4.5945C0.273365 4.5945 0.0351562 6.7795 0.0351562 8.974V11.0165C0.0351562 13.2015 0.273365 15.396 0.273365 15.396C0.383442 16.353 0.709076 17.2703 1.22435 18.075C1.93244 18.7943 2.88039 19.2088 3.87512 19.234C5.79741 19.4335 12.0379 19.5 12.0379 19.5C12.0379 19.5 17.0846 19.4905 20.4399 19.215C21.3614 19.1954 22.2325 18.7783 22.8404 18.0655C23.3604 17.2627 23.6882 16.3447 23.7969 15.3865C23.7969 15.3865 24.0352 13.2015 24.0352 11.0165V8.974C24.0352 6.789 23.7923 4.5945 23.7923 4.5945H23.7831H23.7886ZM9.54415 13.5055V5.91499L16.0284 9.72449L9.54415 13.5055Z" fill="#0D5257"/>
<mask id="mask0" mask-type="alpha" maskUnits="userSpaceOnUse" x="0" y="0" width="25" height="20">
<path fill-rule="evenodd" clip-rule="evenodd" d="M23.7886 4.5945C23.6786 3.63676 23.3513 2.71906 22.833 1.9155C22.224 1.20546 21.3528 0.791734 20.4325 0.7755C17.0763 0.5 12.0305 0.5 12.0305 0.5H12.0222C12.0222 0.5 6.98291 0.5 3.62491 0.7755C2.70473 0.792202 1.8337 1.20585 1.22435 1.9155C0.707504 2.71938 0.38173 3.63711 0.273365 4.5945C0.273365 4.5945 0.0351562 6.7795 0.0351562 8.974V11.0165C0.0351562 13.2015 0.273365 15.396 0.273365 15.396C0.383442 16.353 0.709076 17.2703 1.22435 18.075C1.93244 18.7943 2.88039 19.2088 3.87512 19.234C5.79741 19.4335 12.0379 19.5 12.0379 19.5C12.0379 19.5 17.0846 19.4905 20.4399 19.215C21.3614 19.1954 22.2325 18.7783 22.8404 18.0655C23.3604 17.2627 23.6882 16.3447 23.7969 15.3865C23.7969 15.3865 24.0352 13.2015 24.0352 11.0165V8.974C24.0352 6.789 23.7923 4.5945 23.7923 4.5945H23.7831H23.7886ZM9.54415 13.5055V5.91499L16.0284 9.72449L9.54415 13.5055Z" fill="white"/>
</mask>
<g mask="url(#mask0)">
<path d="M-11.9648 -13.5H36.0352V34.5H-11.9648V-13.5Z" fill="#A6BFBF"/>
</g>
</svg>
