<svg width="21" height="21" viewBox="0 0 21 21" fill="none" xmlns="http://www.w3.org/2000/svg">
<path fill-rule="evenodd" clip-rule="evenodd" d="M10.0351 2.30002C12.7023 2.30002 13.0214 2.30954 14.0769 2.35716C14.7104 2.36795 15.3378 2.48381 15.9334 2.70002C16.3686 2.86074 16.7617 3.11798 17.0832 3.4524C17.4148 3.77636 17.6702 4.16998 17.8309 4.60478C18.0521 5.19931 18.1688 5.82763 18.1757 6.46192C18.2234 7.50954 18.2339 7.83335 18.2339 10.5C18.2339 13.1667 18.2234 13.4905 18.1757 14.5381C18.1688 15.1724 18.0521 15.8007 17.8309 16.3953C17.6702 16.8301 17.4148 17.2237 17.0832 17.5476C16.7617 17.8821 16.3686 18.1393 15.9334 18.3C15.3378 18.5162 14.7104 18.6321 14.0769 18.6429C13.0224 18.6905 12.7061 18.7 10.0351 18.7C7.36416 18.7 7.04886 18.6905 5.99438 18.6429C5.3608 18.6323 4.73339 18.5164 4.13783 18.3C3.70265 18.1393 3.30956 17.8821 2.98809 17.5476C2.65621 17.2237 2.40047 16.8301 2.23938 16.3953C2.01813 15.8008 1.90178 15.1724 1.8955 14.5381C1.84692 13.4905 1.83739 13.1667 1.83739 10.5C1.83739 7.83335 1.84692 7.50954 1.8955 6.46192C1.90178 5.82765 2.01813 5.19927 2.23938 4.60478C2.40047 4.16994 2.65621 3.77632 2.98809 3.4524C3.30956 3.11798 3.70265 2.86074 4.13783 2.70002C4.73339 2.48363 5.3608 2.36776 5.99438 2.35716C7.04886 2.30954 7.36511 2.30002 10.0351 2.30002ZM10.0352 0.5C7.3194 0.5 6.97934 0.509524 5.91247 0.557143C5.08246 0.573556 4.26132 0.731374 3.48438 1.02381C2.81835 1.27664 2.21444 1.66964 1.71357 2.17619C1.20425 2.67533 0.810501 3.27999 0.560018 3.94762C0.269195 4.72514 0.112027 5.54625 0.0951677 6.37619C0.046587 7.44286 0.0351562 7.78571 0.0351562 10.5C0.0351562 13.2143 0.046587 13.5571 0.0951677 14.6238C0.112027 15.4538 0.269195 16.2749 0.560018 17.0524C1.07912 18.3955 2.14103 19.4572 3.48438 19.9762C4.26132 20.2686 5.08246 20.4264 5.91247 20.4429C6.97934 20.4905 7.3194 20.5 10.0352 20.5C12.7509 20.5 13.0919 20.4905 14.1588 20.4429C14.9885 20.4264 15.8093 20.2685 16.5859 19.9762C17.9298 19.458 18.992 18.396 19.5103 17.0524C19.8016 16.275 19.9588 15.4538 19.9751 14.6238C20.0237 13.5571 20.0352 13.2143 20.0352 10.5C20.0352 7.78571 20.0237 7.44286 19.9751 6.37619C19.9588 5.5462 19.8016 4.725 19.5103 3.94762C19.2602 3.28003 18.8667 2.67537 18.3577 2.17619C17.8565 1.66962 17.2523 1.27663 16.5859 1.02381C15.8093 0.731463 14.9885 0.573646 14.1588 0.557143C13.0919 0.509524 12.7509 0.5 10.0352 0.5V0.5ZM10.0351 5.36665C7.19965 5.36717 4.90142 7.66568 4.90177 10.5006C4.90212 13.3356 7.20092 15.6335 10.0364 15.6333C12.8719 15.6331 15.1704 13.3349 15.1704 10.5C15.1706 9.13829 14.6297 7.83232 13.6665 6.86955C12.7034 5.90678 11.3971 5.36614 10.0351 5.36665ZM10.0352 13.8333C8.19386 13.8333 6.70119 12.341 6.70119 10.5C6.70119 8.65905 8.19386 7.16667 10.0352 7.16667C11.8765 7.16667 13.3691 8.65905 13.3691 10.5C13.3691 12.341 11.8765 13.8333 10.0352 13.8333ZM16.5735 5.15717C16.5735 5.81991 16.0362 6.35716 15.3733 6.35716C14.7104 6.35716 14.1731 5.81991 14.1731 5.15717C14.1731 4.49442 14.7104 3.95717 15.3733 3.95717C15.6915 3.95691 15.9968 4.08332 16.2216 4.30847C16.4464 4.53363 16.5724 4.839 16.5716 5.15717H16.5735Z" fill="#0D5257"/>
<mask id="mask0" mask-type="alpha" maskUnits="userSpaceOnUse" x="0" y="0" width="21" height="21">
<path fill-rule="evenodd" clip-rule="evenodd" d="M10.0351 2.30002C12.7023 2.30002 13.0214 2.30954 14.0769 2.35716C14.7104 2.36795 15.3378 2.48381 15.9334 2.70002C16.3686 2.86074 16.7617 3.11798 17.0832 3.4524C17.4148 3.77636 17.6702 4.16998 17.8309 4.60478C18.0521 5.19931 18.1688 5.82763 18.1757 6.46192C18.2234 7.50954 18.2339 7.83335 18.2339 10.5C18.2339 13.1667 18.2234 13.4905 18.1757 14.5381C18.1688 15.1724 18.0521 15.8007 17.8309 16.3953C17.6702 16.8301 17.4148 17.2237 17.0832 17.5476C16.7617 17.8821 16.3686 18.1393 15.9334 18.3C15.3378 18.5162 14.7104 18.6321 14.0769 18.6429C13.0224 18.6905 12.7061 18.7 10.0351 18.7C7.36416 18.7 7.04886 18.6905 5.99438 18.6429C5.3608 18.6323 4.73339 18.5164 4.13783 18.3C3.70265 18.1393 3.30956 17.8821 2.98809 17.5476C2.65621 17.2237 2.40047 16.8301 2.23938 16.3953C2.01813 15.8008 1.90178 15.1724 1.8955 14.5381C1.84692 13.4905 1.83739 13.1667 1.83739 10.5C1.83739 7.83335 1.84692 7.50954 1.8955 6.46192C1.90178 5.82765 2.01813 5.19927 2.23938 4.60478C2.40047 4.16994 2.65621 3.77632 2.98809 3.4524C3.30956 3.11798 3.70265 2.86074 4.13783 2.70002C4.73339 2.48363 5.3608 2.36776 5.99438 2.35716C7.04886 2.30954 7.36511 2.30002 10.0351 2.30002ZM10.0352 0.5C7.3194 0.5 6.97934 0.509524 5.91247 0.557143C5.08246 0.573556 4.26132 0.731374 3.48438 1.02381C2.81835 1.27664 2.21444 1.66964 1.71357 2.17619C1.20425 2.67533 0.810501 3.27999 0.560018 3.94762C0.269195 4.72514 0.112027 5.54625 0.0951677 6.37619C0.046587 7.44286 0.0351562 7.78571 0.0351562 10.5C0.0351562 13.2143 0.046587 13.5571 0.0951677 14.6238C0.112027 15.4538 0.269195 16.2749 0.560018 17.0524C1.07912 18.3955 2.14103 19.4572 3.48438 19.9762C4.26132 20.2686 5.08246 20.4264 5.91247 20.4429C6.97934 20.4905 7.3194 20.5 10.0352 20.5C12.7509 20.5 13.0919 20.4905 14.1588 20.4429C14.9885 20.4264 15.8093 20.2685 16.5859 19.9762C17.9298 19.458 18.992 18.396 19.5103 17.0524C19.8016 16.275 19.9588 15.4538 19.9751 14.6238C20.0237 13.5571 20.0352 13.2143 20.0352 10.5C20.0352 7.78571 20.0237 7.44286 19.9751 6.37619C19.9588 5.5462 19.8016 4.725 19.5103 3.94762C19.2602 3.28003 18.8667 2.67537 18.3577 2.17619C17.8565 1.66962 17.2523 1.27663 16.5859 1.02381C15.8093 0.731463 14.9885 0.573646 14.1588 0.557143C13.0919 0.509524 12.7509 0.5 10.0352 0.5V0.5ZM10.0351 5.36665C7.19965 5.36717 4.90142 7.66568 4.90177 10.5006C4.90212 13.3356 7.20092 15.6335 10.0364 15.6333C12.8719 15.6331 15.1704 13.3349 15.1704 10.5C15.1706 9.13829 14.6297 7.83232 13.6665 6.86955C12.7034 5.90678 11.3971 5.36614 10.0351 5.36665ZM10.0352 13.8333C8.19386 13.8333 6.70119 12.341 6.70119 10.5C6.70119 8.65905 8.19386 7.16667 10.0352 7.16667C11.8765 7.16667 13.3691 8.65905 13.3691 10.5C13.3691 12.341 11.8765 13.8333 10.0352 13.8333ZM16.5735 5.15717C16.5735 5.81991 16.0362 6.35716 15.3733 6.35716C14.7104 6.35716 14.1731 5.81991 14.1731 5.15717C14.1731 4.49442 14.7104 3.95717 15.3733 3.95717C15.6915 3.95691 15.9968 4.08332 16.2216 4.30847C16.4464 4.53363 16.5724 4.839 16.5716 5.15717H16.5735Z" fill="white"/>
</mask>
<g mask="url(#mask0)">
<path d="M-9.96484 -9.5H30.0352V30.5H-9.96484V-9.5Z" fill="#A6BFBF"/>
</g>
</svg>
