<?xml version="1.0" encoding="utf-8"?>
<!-- Generator: Adobe Illustrator 25.2.3, SVG Export Plug-In . SVG Version: 6.00 Build 0)  -->
<svg version="1.1" id="Layer_1" xmlns="http://www.w3.org/2000/svg" xmlns:xlink="http://www.w3.org/1999/xlink" x="0px" y="0px"
	 viewBox="0 0 16.1 18" style="enable-background:new 0 0 16.1 18;" xml:space="preserve">
<style type="text/css">
	.st0{fill:#A6BFBF;}
</style>
<g>
	<g>
		<path class="st0" d="M11.3,6.3c0,0.1,0,0.2,0,0.3c0,1.9,0,3.9,0,5.8c-0.1,2.4-2,4.6-4.4,4.9c-2.9,0.4-5.5-1.3-6.1-4.2
			C0,10.5,1.9,7.5,4.8,7c0.5-0.1,1.1-0.1,1.6-0.1c0.2,0,0.2,0.1,0.2,0.2c0,0.8,0,1.6,0,2.5c0,0.2,0,0.2-0.2,0.2
			c-1.5-0.3-2.8,0.7-3,2.2c-0.2,1.4,0.9,2.7,2.4,2.8c1.4,0.1,2.6-1.1,2.6-2.6c0-1.4,0-2.9,0-4.3c0-2.3,0-4.6,0-6.9
			c0-0.2,0-0.3,0.3-0.3c0.8,0,1.6,0,2.4,0c0.2,0,0.2,0,0.3,0.2c0.1,2.1,1.8,3.8,3.9,3.9c0.2,0,0.2,0.1,0.2,0.2c0,0.8,0,1.7,0,2.5
			c0,0.2-0.1,0.3-0.3,0.2c-1.3,0-2.6-0.4-3.7-1.1C11.5,6.5,11.4,6.4,11.3,6.3z"/>
	</g>
</g>
</svg>
