<svg width="51" height="48" viewBox="0 0 51 48" fill="none" xmlns="http://www.w3.org/2000/svg">
<path fill-rule="evenodd" clip-rule="evenodd" d="M21.75 28.3214L21.75 8H24.25L24.25 28.3214H26.4229L29.8214 30.8937V35.1563L31.2387 42.25H14.4755L15.8929 35.1564V30.8659L19.2637 28.3214H21.75ZM18.395 35.3928L17.5245 39.75H18.4526L19.3587 36.1254L21.7841 36.7318L21.0295 39.75H24.6847L23.9302 36.7317L26.3555 36.1254L27.2617 39.75H28.1898L27.3193 35.3928H18.395ZM18.3929 32.111L20.1013 30.8214H25.5835L27.3214 32.1368V32.8928H18.3929V32.111ZM29.6071 21.4643V19.2857H32.1071V21.4643H34.2857V23.9643H32.1071V26.1428H29.6071V23.9643H27.4286V21.4643H29.6071ZM35.3214 30.6071V28.4286H37.8214V30.6071H40V33.1071H37.8214V35.2857H35.3214V33.1071H33.1429V30.6071H35.3214Z" fill="#0D5257"/>
</svg>
