<svg width="79" height="16" viewBox="0 0 79 16" fill="none" xmlns="http://www.w3.org/2000/svg">
<path d="M74.7007 12.1203C74.6938 11.684 74.7076 11.587 74.8183 11.5178V11.5108C74.9152 11.4485 75.4412 11.4277 76.8322 11.4277C77.9534 11.4277 78.7769 11.4554 78.86 11.497C78.9846 11.5593 78.9984 11.6355 78.9984 12.1203C78.9984 12.5497 78.9776 12.6813 78.8946 12.709C78.8392 12.7298 78.5416 12.7436 77.6835 12.7436V14.2327C77.6835 15.4931 77.6696 15.7356 77.5728 15.8256C77.4966 15.9018 77.3028 15.9295 76.8461 15.9295C76.507 15.9295 76.1817 15.9156 76.1263 15.8948C76.0364 15.8671 76.0225 15.6247 76.0225 12.7436H75.455C75.1367 12.7436 74.846 12.7159 74.7976 12.6882C74.7491 12.6605 74.7145 12.432 74.7007 12.1203Z" fill="white"/>
<path fill-rule="evenodd" clip-rule="evenodd" d="M7.8133 0C12.457 0 15.0315 0.027703 15.1215 0.0692575C15.1976 0.110812 15.2599 0.200847 15.2599 0.27703C15.2599 0.369373 15.2299 0.399385 15.1699 0.367065C15.1284 0.339362 11.9103 0.311659 8.02784 0.297807C1.99999 0.290882 0.948056 0.297807 0.809643 0.387842C0.65739 0.484803 0.65739 0.491728 0.65739 2.32013C0.65739 3.75376 0.636628 4.14852 0.574343 4.13467C0.505137 4.1139 0.484375 3.66372 0.484375 2.17469C0.484375 0.373991 0.491296 0.242401 0.608946 0.263179C0.698914 0.270104 0.719676 0.242401 0.685073 0.138515C0.643549 0 0.678152 0 7.8133 0V0ZM20.1389 0.0138515C22.3812 0.0346288 22.5611 0.0415545 22.5749 0.159292C22.5957 0.270104 22.4365 0.27703 20.0697 0.27703C18.4295 0.27703 17.5437 0.304733 17.5437 0.346288C17.5437 0.387842 17.7098 0.422471 17.9105 0.436322C18.2496 0.450174 18.2703 0.464025 18.2911 0.644095C18.298 0.747981 18.3326 0.83109 18.3741 0.83109C18.4157 0.83109 18.4433 0.803387 18.4433 0.761833C18.4433 0.727204 18.471 0.692575 18.5126 0.692575C18.5541 0.692575 18.5818 0.754907 18.5818 0.83109C18.5818 0.907273 18.6094 0.969605 18.651 0.969605C18.6925 0.969605 18.7202 1.09427 18.7202 1.52367H19.9659V1.24664C19.9659 1.01809 19.9866 0.969605 20.1043 0.969605C20.1966 0.969605 20.2427 0.923433 20.2427 0.83109C20.2427 0.754907 20.2911 0.692575 20.3465 0.692575C20.4019 0.692575 20.478 0.630243 20.5195 0.55406C20.5818 0.429397 20.651 0.415545 21.5922 0.450174L21.613 0.713352C21.6199 0.921125 21.6545 0.969605 21.7652 0.969605C21.8575 0.969605 21.9037 0.923433 21.9037 0.83109C21.9037 0.738747 21.9498 0.692575 22.0421 0.692575C22.1182 0.692575 22.1805 0.741055 22.1805 0.796461C22.1805 0.851867 22.2428 0.900348 22.3189 0.900348C22.395 0.900348 22.4711 0.851867 22.4919 0.796461C22.5127 0.741055 22.5819 0.699501 22.6511 0.713352C22.7134 0.720278 22.7895 0.761833 22.8172 0.796461C22.8379 0.838016 22.8449 0.907273 22.831 0.955754C22.8172 1.00423 22.7618 1.01809 22.6926 0.990382C22.5957 0.941902 22.5819 0.983457 22.6026 1.28126C22.6211 1.51212 22.6603 1.62293 22.7203 1.6137C22.7618 1.59985 22.8172 1.65525 22.8379 1.73144C22.8587 1.80762 22.8587 1.93228 22.8379 2.00847C22.8102 2.10543 22.7687 2.13313 22.6926 2.0985C22.5957 2.05002 22.5819 2.09158 22.6026 2.38938C22.6211 2.62024 22.6603 2.73105 22.7203 2.72182C22.7618 2.70797 22.8172 2.76337 22.8379 2.83956C22.8587 2.91574 22.8587 3.0404 22.8379 3.11659C22.8102 3.21355 22.7687 3.24125 22.6926 3.20662C22.5957 3.15814 22.5819 3.1997 22.6026 3.4975C22.6211 3.72836 22.6603 3.83917 22.7203 3.82994C22.7618 3.81609 22.8172 3.87149 22.8379 3.94768C22.8587 4.02386 22.8587 4.14852 22.8379 4.22471C22.8172 4.30782 22.7618 4.34937 22.6995 4.32859C22.6165 4.30089 22.5957 4.3563 22.5957 4.60562C22.5957 4.85495 22.6165 4.91036 22.6995 4.88265C22.7549 4.86188 22.8172 4.89651 22.8379 4.95191C22.8587 5.00732 22.8725 5.13198 22.8725 5.22894C22.8725 5.3259 22.921 5.42286 22.9763 5.45749C23.0386 5.48519 23.1355 5.45749 23.2186 5.38823C23.3016 5.31205 23.3708 5.29127 23.3916 5.33283C23.4123 5.37438 23.4539 5.40209 23.4954 5.40209C23.5369 5.40209 23.5646 5.33975 23.5646 5.26357C23.5646 5.18739 23.5369 5.13891 23.4954 5.15968C23.4539 5.18046 23.4469 5.15276 23.4885 5.07658C23.5231 5.00732 23.62 4.88958 23.6961 4.8134C23.7861 4.73029 23.8483 4.70951 23.8414 4.76492C23.8414 4.8134 23.8968 4.79262 23.9798 4.70951C24.056 4.63333 24.1044 4.52252 24.0836 4.46711C24.0629 4.4117 24.1182 4.32167 24.2082 4.25934C24.3397 4.1693 24.3674 4.1693 24.4158 4.25934C24.4435 4.31474 24.5127 4.36322 24.5681 4.36322C24.6304 4.36322 24.6719 4.30089 24.6719 4.19008C24.6719 4.09312 24.6442 4.01001 24.6027 4.00308C24.5681 3.98923 24.5958 3.87149 24.6788 3.73991C24.7895 3.55291 24.838 3.51828 24.9003 3.58061C24.9695 3.64987 25.0041 3.64987 25.0733 3.58061C25.1425 3.51136 25.1425 3.48365 25.0733 3.40747C24.9972 3.33821 25.011 3.29666 25.1217 3.17892C25.2048 3.09581 25.3155 3.05426 25.3986 3.07503C25.4747 3.09581 25.5785 3.08196 25.6269 3.0404C25.6823 2.99885 25.6892 2.93652 25.6408 2.83956C25.5923 2.7426 25.5993 2.68719 25.6615 2.65256C25.7031 2.62486 25.8276 2.61101 25.9384 2.61793C26.0629 2.62486 26.1875 2.56945 26.2982 2.45864C26.3951 2.36168 26.4574 2.25779 26.4366 2.21624C26.4159 2.18161 26.3536 2.14698 26.2982 2.14698C26.2429 2.14698 26.1944 2.12621 26.1944 2.0985C26.1875 2.06387 26.2567 1.98076 26.3398 1.90458C26.4297 1.8284 26.4713 1.80762 26.4505 1.8561C26.4159 1.91843 26.4782 1.93228 26.7135 1.90458C26.928 1.8838 27.0318 1.89766 27.0526 1.95999C27.071 2.01539 27.1172 1.99692 27.191 1.90458C27.2948 1.76607 27.2948 1.76607 27.3017 1.92536C27.3017 2.00847 27.3294 2.07773 27.3709 2.07773C27.4125 2.07773 27.4401 2.20239 27.4401 2.35476C27.4401 2.50712 27.4678 2.63179 27.5093 2.63179C27.5509 2.63179 27.5785 2.69412 27.5785 2.7703C27.5785 2.84648 27.6062 2.90882 27.6478 2.90882C27.6893 2.90882 27.717 2.84648 27.717 2.7703C27.717 2.65256 27.7654 2.63179 27.9938 2.63179C28.2568 2.63179 28.2706 2.61793 28.2706 2.42401C28.2706 2.26472 28.2429 2.21624 28.1322 2.21624C28.0561 2.21624 27.9938 2.18854 27.9938 2.14698C27.9938 2.11235 27.9384 2.07773 27.8761 2.07773C27.8069 2.07773 27.71 2.0431 27.6616 1.99462C27.5924 1.92536 27.5785 1.92536 27.5785 1.99462C27.5785 2.03617 27.5509 2.07773 27.5093 2.07773C27.4678 2.07773 27.4401 1.95306 27.4401 1.8007C27.4401 1.57215 27.4194 1.52367 27.3017 1.52367C27.2094 1.52367 27.1633 1.47749 27.1633 1.38515C27.1633 1.30897 27.1218 1.23278 27.0803 1.21893C27.018 1.20508 27.0526 1.13582 27.1633 1.02501C27.2602 0.928051 27.3986 0.754907 27.4678 0.651021C27.5439 0.540209 27.6132 0.491728 27.627 0.540209C27.6408 0.60254 27.6824 0.60254 27.8069 0.540209C27.89 0.498654 28.0976 0.450174 28.2706 0.436322C28.4436 0.422471 29.4056 0.408619 30.416 0.394768C31.4264 0.387842 32.3884 0.394768 32.5614 0.415545C32.8036 0.443248 32.8728 0.477877 32.8936 0.588689C32.9074 0.664872 32.859 0.78261 32.7898 0.851867C32.7136 0.928051 32.5614 0.976531 32.4091 0.969605C32.1461 0.969605 32.1461 0.969605 32.1461 1.24664C32.1461 1.47518 32.1669 1.51674 32.2707 1.49596C32.333 1.48211 32.4368 1.49596 32.4922 1.52367C32.5752 1.56522 32.4853 1.69681 32.0769 2.11928C31.7171 2.5002 31.5233 2.65949 31.4195 2.64564C31.3088 2.63179 31.3018 2.64564 31.3849 2.69412C31.4748 2.74952 31.461 2.79108 31.3157 2.985C31.2188 3.10966 31.0942 3.24125 31.0389 3.28281C30.9835 3.32436 30.7482 3.55984 30.5198 3.80916C30.2914 4.05156 30.0561 4.24549 30.0008 4.23856C29.9454 4.22471 29.8762 4.25934 29.8485 4.30782C29.8208 4.3563 29.7931 4.41863 29.7931 4.45326C29.7931 4.48096 29.8347 4.48096 29.8762 4.45326C29.9362 4.41632 29.9477 4.42786 29.9108 4.48789C29.8831 4.53637 29.807 4.55022 29.7101 4.52252C29.5717 4.47404 29.5648 4.48096 29.6063 4.66103C29.6478 4.80647 29.627 4.86188 29.5163 4.91728C29.424 4.96345 29.3894 4.96345 29.4125 4.91728C29.4333 4.88265 29.371 4.84803 29.2741 4.84803C29.1218 4.84803 29.1011 4.87573 29.1218 5.0835C29.1288 5.2705 29.0734 5.39516 28.8589 5.66526C28.7066 5.85919 28.5405 6.03233 28.499 6.05311C28.4505 6.08081 28.4229 6.07388 28.4436 6.04618C28.4575 6.01155 28.3952 5.94229 28.2983 5.88689C28.1737 5.8107 28.0907 5.80378 28.0145 5.85226C27.9523 5.89381 27.89 5.95615 27.8761 5.99077C27.8623 6.03233 27.9523 6.10851 28.2914 6.2678L28.1184 6.47558C27.9523 6.6695 27.9384 6.67642 27.8277 6.56561C27.7654 6.49635 27.6547 6.44095 27.5785 6.44095C27.5024 6.44095 27.4194 6.4825 27.3986 6.53098C27.3709 6.57254 27.3709 6.68335 27.3986 6.77338C27.4194 6.85649 27.4886 6.92575 27.5439 6.92575C27.5993 6.92575 27.6478 6.97423 27.6478 7.02964C27.6478 7.08504 27.5855 7.14737 27.5093 7.16815C27.4332 7.18893 27.3709 7.25819 27.3709 7.32744C27.364 7.38978 27.4194 7.50059 27.4886 7.56985C27.5716 7.65295 27.6685 7.68758 27.7862 7.65988C27.9246 7.63218 28.0007 7.67373 28.1737 7.8815C28.2914 8.02002 28.4298 8.21394 28.4921 8.3109C28.5474 8.40786 28.589 8.53253 28.589 8.58793C28.582 8.64334 28.6374 8.70567 28.7066 8.72645C28.8243 8.76107 28.8243 8.768 28.6928 8.92037C28.5613 9.05888 28.5544 9.08659 28.6582 9.1974C28.7412 9.28743 28.7827 9.29436 28.845 9.23203C28.8865 9.18355 28.935 9.14199 28.9557 9.14199C28.9834 9.14199 28.9834 9.2251 28.9627 9.32899C28.9419 9.43287 28.8727 9.52291 28.8104 9.53676C28.7412 9.55061 28.6858 9.61987 28.6858 9.69605C28.6858 9.80686 28.7343 9.83457 28.9142 9.83457C29.0319 9.83457 29.1634 9.86227 29.2049 9.90382C29.2464 9.94538 29.3848 9.98001 29.5163 9.98693C29.6824 9.99386 29.807 10.0562 29.9177 10.1739C30.0008 10.2709 30.1322 10.4717 30.2084 10.6172C30.2845 10.7557 30.3191 10.8596 30.2776 10.8388C30.2361 10.818 30.2084 10.8319 30.2084 10.8734C30.2084 10.915 30.1461 10.9427 30.07 10.9427C29.9523 10.9427 29.9316 10.9912 29.9316 11.4967H30.2084C30.4368 11.4967 30.4852 11.5175 30.4852 11.6353C30.4852 11.7114 30.5129 11.7738 30.5544 11.7738C30.5959 11.7738 30.6928 11.8569 30.7828 11.9538C30.8935 12.0924 30.9766 12.127 31.1081 12.0993C31.2465 12.0647 31.3226 12.1062 31.4887 12.3071C31.5994 12.4456 31.7655 12.6741 31.8486 12.8057C31.9662 12.9927 31.9801 13.0689 31.9178 13.1104C31.8693 13.1451 31.897 13.152 31.9939 13.1312C32.1185 13.0966 32.1738 13.1381 32.2846 13.3321C32.3607 13.4637 32.4022 13.6299 32.3814 13.6991C32.3468 13.7961 32.3538 13.7961 32.4091 13.713C32.4576 13.6299 32.5337 13.6922 32.7828 14.0246C32.9559 14.2532 33.2534 14.6618 33.4541 14.925C33.7725 15.3544 33.8002 15.4167 33.6894 15.4652C33.6133 15.5068 33.5372 15.4998 33.4957 15.4514C33.4541 15.4098 33.3849 15.3752 33.3434 15.3752C33.2834 15.3752 33.2604 15.4675 33.2742 15.6522C33.2811 15.8184 33.2534 15.9431 33.205 15.9639C33.1566 15.9846 31.9524 15.9985 30.5406 15.9985C28.2914 16.0054 27.9453 15.9916 27.8761 15.8946C27.8138 15.8253 27.8069 15.7561 27.8554 15.6868C27.8969 15.6314 27.9107 15.5552 27.89 15.5137C27.8692 15.4721 27.7792 15.4583 27.6824 15.4791C27.5578 15.5068 27.4886 15.4791 27.4401 15.3752C27.3848 15.2713 27.3986 15.202 27.4955 15.0981C27.5739 15.0012 27.5855 14.955 27.5301 14.9596C27.4817 14.9596 27.4263 14.8904 27.4125 14.8073C27.3917 14.6757 27.3848 14.6826 27.3778 14.8419C27.3778 14.9596 27.3294 15.0289 27.2671 15.0289C27.2118 15.0289 27.1149 14.9596 27.0595 14.8765C27.0041 14.7865 26.9557 14.6964 26.9557 14.6687C26.9557 14.6341 26.9834 14.6272 27.0249 14.648C27.0664 14.6687 27.0941 14.641 27.0941 14.5995C27.0941 14.551 27.0664 14.4817 27.0249 14.4402C26.9834 14.3986 26.9695 14.3155 26.9903 14.2532C27.0111 14.1839 27.0526 14.1285 27.0941 14.1285C27.1356 14.1285 27.1633 14.1008 27.1633 14.0593C27.1633 14.0177 27.101 13.9762 27.0249 13.9554C26.9211 13.9277 26.8865 13.8654 26.8865 13.6784C26.8865 13.4567 26.8726 13.436 26.6789 13.436C26.5405 13.436 26.4251 13.3782 26.3328 13.2628C26.2567 13.1659 26.1321 13.0897 26.056 13.0897C25.9799 13.0897 25.9176 13.1312 25.9176 13.1797C25.9245 13.2351 25.8899 13.2351 25.8138 13.1589C25.7515 13.1035 25.7031 13.0343 25.71 13.0066C25.71 12.9719 25.7377 12.965 25.7792 12.9858C25.8207 13.0066 25.8484 13.0135 25.8484 13.0066C25.8484 12.9927 25.793 12.8819 25.7307 12.7503C25.6546 12.6118 25.5646 12.5287 25.4954 12.5425C25.4262 12.561 25.3986 12.531 25.4124 12.4525C25.4262 12.3832 25.4055 12.2863 25.3709 12.2447C25.3363 12.1962 25.2878 12.0439 25.2601 11.9123C25.2255 11.7807 25.1633 11.6283 25.1148 11.5868C25.0387 11.5175 24.9972 11.5175 24.9141 11.5868C24.8241 11.656 24.8034 11.6491 24.8034 11.566C24.8103 11.4829 24.7965 11.4829 24.7549 11.5522C24.7203 11.6214 24.6857 11.6214 24.6234 11.5383C24.5473 11.4483 24.5542 11.4206 24.6373 11.3929C24.6927 11.3721 24.7411 11.3028 24.7411 11.2405C24.7411 11.1712 24.6857 11.0604 24.6165 10.9912C24.5542 10.9219 24.4435 10.8665 24.3812 10.8734C24.312 10.8734 24.2567 10.8942 24.2567 10.9288C24.2567 10.9565 24.0906 10.9704 23.8899 10.9635C23.6684 10.9565 23.5854 10.9704 23.6684 11.005C23.793 11.0535 23.7584 11.1089 22.8725 12.0162V13.9208C22.8725 14.9665 22.8449 15.8669 22.8172 15.9084C22.7826 15.9777 22.1943 15.9916 20.2427 15.9777C18.8517 15.9708 17.7859 15.9362 17.8759 15.9084C17.9589 15.8807 18.0281 15.8115 18.0281 15.7561C18.0281 15.7007 17.9797 15.6522 17.9243 15.6522C17.8689 15.6522 17.779 15.5829 17.7305 15.4998C17.6406 15.3475 17.6406 15.3405 17.8343 15.3613C18.0143 15.3752 18.0281 15.3544 18.0281 15.1328C18.0281 14.9665 17.9935 14.8765 17.9105 14.8419C17.8343 14.8142 17.779 14.828 17.772 14.8765C17.7582 14.925 17.7028 14.9596 17.6475 14.9596C17.5921 14.9596 17.5229 15.022 17.4952 15.0912C17.4606 15.1674 17.4399 14.7726 17.4329 14.2116C17.4329 13.6507 17.4468 13.2697 17.4675 13.3667C17.4952 13.4637 17.5714 13.5468 17.6336 13.5606C17.7167 13.5675 17.7513 13.526 17.7513 13.4221C17.7513 13.3321 17.7236 13.2351 17.689 13.1936C17.6475 13.1474 17.6936 13.1312 17.8274 13.1451C18.0143 13.1589 18.0281 13.1451 18.0281 12.9165C18.0281 12.7503 17.9935 12.6603 17.9105 12.6256C17.8343 12.5979 17.779 12.6118 17.772 12.6603C17.7582 12.7088 17.7028 12.7434 17.6475 12.7434C17.5921 12.7434 17.5229 12.8057 17.4952 12.875C17.4606 12.9512 17.4399 12.5564 17.4329 11.9954C17.4329 11.4344 17.4468 11.0535 17.4675 11.1505C17.4952 11.2474 17.5714 11.3305 17.6336 11.3444C17.7167 11.3513 17.7513 11.3098 17.7513 11.2059C17.7513 11.1158 17.7236 11.0189 17.689 10.9773C17.6475 10.9311 17.6936 10.915 17.8274 10.9288C18.0143 10.9427 18.0281 10.9288 18.0281 10.7003C18.0281 10.5341 17.9935 10.444 17.9105 10.4094C17.8343 10.3817 17.779 10.3956 17.772 10.444C17.7582 10.4925 17.7028 10.5271 17.6475 10.5271C17.5921 10.5271 17.5229 10.5895 17.4952 10.6587C17.4606 10.7349 17.4399 10.3401 17.4329 9.77916C17.4329 9.21817 17.4468 8.83726 17.4675 8.93422C17.4952 9.03118 17.5714 9.11429 17.6336 9.12814C17.7167 9.13507 17.7513 9.09351 17.7513 8.98962C17.7513 8.89959 17.7236 8.80263 17.689 8.76107C17.6475 8.7149 17.6936 8.69874 17.8274 8.71259C18.0143 8.72645 18.0281 8.71259 18.0281 8.48404C18.0281 8.31783 17.9935 8.22779 17.9105 8.19316C17.8343 8.16546 17.779 8.17931 17.772 8.22779C17.7582 8.27627 17.7028 8.3109 17.6475 8.3109C17.5921 8.3109 17.5229 8.37323 17.4952 8.44249C17.4606 8.5256 17.4329 8.27627 17.426 7.87458C17.4191 7.48674 17.426 7.09889 17.4399 7.01579C17.4675 6.89805 17.5091 6.86342 17.6129 6.89112C17.689 6.9119 17.7513 6.89805 17.7513 6.85649C17.7513 6.82186 17.8136 6.78724 17.8897 6.78724C17.9727 6.78724 18.042 6.84264 18.0627 6.92575C18.0835 7.00193 18.1458 7.06427 18.2011 7.06427C18.2703 7.06427 18.3049 6.99501 18.3049 6.85649C18.3049 6.6972 18.2773 6.64872 18.1665 6.64872C18.0904 6.64872 18.0281 6.62102 18.0281 6.57946C18.0281 6.54483 17.9589 6.51021 17.8759 6.51021C17.7859 6.51021 17.6544 6.55176 17.5783 6.60717C17.4399 6.70413 17.4399 6.69027 17.4399 3.44902C17.4399 0.283956 17.4468 0.193921 17.5783 0.0969605C17.689 0.0138515 18.125 0 20.1389 0.0138515ZM33.3227 0C33.468 0 33.551 0.0484802 33.6064 0.159292C33.6479 0.242401 33.6687 0.346288 33.6479 0.380916C33.6341 0.422471 33.4887 0.443248 33.3296 0.436322C33.1773 0.422471 33.0458 0.387842 33.0458 0.346288C33.0458 0.311659 33.1427 0.27703 33.2534 0.27703C33.3642 0.27703 33.4749 0.256253 33.4887 0.22855C33.5026 0.193921 33.4265 0.18007 33.3157 0.193921C33.1773 0.200847 33.115 0.173144 33.115 0.103886C33.115 0.0346288 33.1842 0 33.3227 0ZM36.956 0.0969605L35.9179 0.166218L37.0252 0.249327L36.4231 0.263179C36.084 0.270104 35.8071 0.249327 35.8002 0.221624C35.7933 0.186995 35.8141 0.138515 35.8487 0.117738C35.8833 0.0900348 36.1393 0.0761833 36.956 0.0969605ZM45.7036 0.263179C45.7797 0.346288 45.8835 0.415545 45.9182 0.415545C45.9528 0.415545 46.0012 0.373991 46.015 0.332436C46.0427 0.270104 46.0704 0.27703 46.1189 0.367065C46.1604 0.429397 46.2711 0.484803 46.368 0.484803C46.4649 0.484803 46.5272 0.4571 46.5064 0.415545C46.4856 0.380916 46.541 0.346288 46.631 0.353213C46.714 0.353213 47.0324 0.443248 47.3369 0.547134C47.8836 0.73413 47.8905 0.73413 47.9113 0.990382C47.9182 1.16353 47.9597 1.24664 48.0289 1.24664C48.0843 1.24664 48.1535 1.30204 48.1812 1.3713C48.2089 1.43363 48.2988 1.55829 48.3888 1.64833C48.4788 1.73144 48.5618 1.8007 48.5826 1.8007C48.6033 1.8007 48.6172 1.74529 48.6172 1.68296C48.6172 1.6137 48.6795 1.48904 48.7556 1.40593C48.8317 1.31589 48.9286 1.26049 48.9632 1.28126C48.9978 1.30204 49.0324 1.37822 49.0324 1.45441C49.0324 1.54675 49.0786 1.59292 49.1708 1.59292C49.247 1.59292 49.2954 1.55829 49.2746 1.52367C49.2539 1.48211 49.3092 1.48904 49.3992 1.53752C49.4823 1.57907 49.7176 1.74529 49.9183 1.89766C50.2228 2.13313 50.2781 2.20931 50.2505 2.3409C50.2158 2.47249 50.2297 2.48634 50.3819 2.45864C50.4788 2.43786 50.5826 2.46557 50.6242 2.51405C50.6588 2.5556 50.6726 2.69412 50.6518 2.80493C50.6242 2.92959 50.638 3.03348 50.6865 3.06811C50.728 3.09581 50.7764 3.06811 50.7972 3.0127C50.8179 2.9573 50.8664 2.90882 50.901 2.90882C50.9356 2.90882 51.0325 2.97807 51.1086 3.06811C51.1986 3.17199 51.2332 3.28281 51.2055 3.42825C51.1917 3.53906 51.2055 3.6845 51.247 3.73991C51.3093 3.82994 51.3231 3.82994 51.3854 3.73991C51.4477 3.64987 51.4823 3.67065 51.6277 3.84379C51.7176 3.96153 51.8145 4.10697 51.8353 4.17623C51.856 4.23856 51.8422 4.28011 51.8007 4.25934C51.7661 4.23856 51.7315 4.28704 51.7315 4.36322C51.7315 4.43941 51.7799 4.59177 51.8353 4.70951C51.8906 4.82725 51.9806 4.90343 52.029 4.88958C52.0706 4.8688 52.1605 4.97269 52.2297 5.1112C52.292 5.24972 52.3612 5.45057 52.382 5.56138C52.4097 5.67219 52.3958 5.73452 52.3543 5.71374C52.3197 5.69297 52.2851 5.7553 52.2851 5.85226C52.2851 5.96307 52.3266 6.0254 52.3889 6.0254C52.4443 6.0254 52.5273 6.10851 52.5619 6.21932C52.6035 6.32321 52.6242 6.41324 52.6173 6.41324C52.6035 6.42017 52.5273 6.4548 52.4443 6.50328C52.299 6.57254 52.2851 6.60717 52.3266 7.01579C52.3543 7.25126 52.4166 7.48674 52.465 7.53522C52.5204 7.57677 52.5965 7.60447 52.6311 7.5837C52.6657 7.56292 52.7142 7.59755 52.735 7.65295C52.7557 7.70836 52.7696 7.95076 52.7626 8.19316C52.7626 8.42864 52.7419 8.7403 52.7142 8.88574C52.6865 9.03118 52.6381 9.15584 52.5965 9.16277C52.5619 9.16969 52.4996 9.0381 52.4512 8.86496C52.3682 8.56715 52.3682 8.58793 52.3612 9.30128C52.3543 9.77223 52.382 10.0285 52.4235 10.0077C52.4581 9.98693 52.4927 10.0423 52.4927 10.1324C52.4927 10.2155 52.4166 10.5064 52.3197 10.7695C52.2228 11.0327 52.1121 11.282 52.0775 11.3236C52.0429 11.3652 51.9944 11.379 51.9737 11.3582C51.946 11.3375 51.9322 11.2405 51.9322 11.1366C51.9391 11.0258 51.9045 10.9427 51.8699 10.9427C51.8353 10.9427 51.7868 11.005 51.7661 11.0812C51.7453 11.1574 51.683 11.2197 51.6277 11.2197C51.5723 11.2197 51.5238 11.282 51.5238 11.3582C51.5238 11.476 51.4754 11.4967 51.247 11.4967C50.9771 11.4967 50.9702 11.5037 50.9702 11.7391C50.9702 11.8707 51.0186 12.03 51.074 12.0854C51.1294 12.1408 51.1986 12.1893 51.2332 12.1893C51.2609 12.1893 51.337 12.2239 51.4131 12.2724C51.5377 12.3625 51.5377 12.3694 51.3716 12.6395C51.2747 12.7919 50.9218 13.2005 50.5826 13.5398C50.2366 13.8792 49.7452 14.3086 49.4823 14.4817C49.2124 14.6549 48.894 14.835 48.7764 14.8834C48.5895 14.9458 48.5272 14.9388 48.4442 14.8557C48.3888 14.8003 48.3404 14.7034 48.3404 14.648C48.3404 14.5787 48.2712 14.5441 48.1327 14.5441C47.9736 14.5441 47.9251 14.5718 47.9251 14.6826C47.9251 14.7749 47.879 14.8211 47.7867 14.8211C47.6691 14.8211 47.6483 14.8627 47.6621 15.1189C47.676 15.4029 47.676 15.4098 47.3715 15.5275C47.1985 15.5899 46.9908 15.6453 46.9078 15.6453C46.8109 15.6522 46.7002 15.5829 46.631 15.4721C46.5479 15.3613 46.458 15.3059 46.368 15.3198C46.2642 15.3336 46.2296 15.3959 46.2296 15.5414C46.2296 15.6591 46.1742 15.7769 46.0912 15.8392C45.9874 15.9084 45.6552 15.9362 43.4821 15.9639L43.4959 13.99H43.2883C43.1499 13.99 43.0807 14.0246 43.0807 14.0939C43.0807 14.1493 43.0392 14.2393 42.9977 14.2878C42.9492 14.3363 42.8454 14.4056 42.7693 14.4402C42.6378 14.4956 42.6378 14.5025 42.79 14.5233C42.8869 14.5372 42.9423 14.5926 42.9423 14.6826C42.9423 14.7588 42.9769 14.8211 43.0115 14.8211C43.0461 14.8211 43.0807 14.9319 43.0807 15.0635C43.0807 15.1951 43.0392 15.3544 42.9838 15.4098C42.9284 15.4652 42.7693 15.5137 42.6378 15.5137C42.4994 15.5137 42.3886 15.5414 42.3886 15.5829C42.3886 15.6245 42.4509 15.6522 42.5271 15.6522C42.6032 15.6522 42.6793 15.7076 42.6932 15.7769C42.7139 15.8392 42.707 15.9154 42.6862 15.95C42.6585 15.9777 42.3471 15.9985 41.3159 15.9985L41.3367 15.2159C41.3575 14.5856 41.3852 14.4263 41.4751 14.3571C41.5374 14.3086 41.6481 14.267 41.7173 14.267C41.7935 14.267 41.835 14.2116 41.835 14.0939C41.835 13.9969 41.8904 13.8584 41.9596 13.7822C42.0495 13.6714 42.0772 13.526 42.0703 13.1728C42.0634 12.8473 42.0703 12.8196 42.0911 13.0758C42.098 13.2697 42.1464 13.436 42.181 13.436C42.2156 13.436 42.2502 13.4844 42.2502 13.5398C42.2502 13.5952 42.2848 13.6437 42.3194 13.6437C42.354 13.6437 42.3886 13.5952 42.3886 13.5398C42.3886 13.4844 42.4371 13.436 42.4925 13.436C42.5478 13.436 42.6101 13.3736 42.6309 13.2974C42.6516 13.2143 42.7208 13.1589 42.8039 13.1589C42.8962 13.1589 42.9423 13.1128 42.9423 13.0204C42.9423 12.9027 42.9907 12.8819 43.2191 12.8819C43.4475 12.8819 43.4959 12.8611 43.4959 12.7434C43.4959 12.651 43.5421 12.6049 43.6344 12.6049C43.7451 12.6049 43.7728 12.5564 43.7728 12.3486C43.7728 12.1062 43.7589 12.0785 43.5513 12.03C43.4267 12.0023 43.2676 11.9815 43.2053 11.9815C43.1361 11.9815 43.0184 12.0508 42.9423 12.1408C42.8454 12.2447 42.8039 12.3902 42.8039 12.591C42.8039 12.8334 42.7831 12.8819 42.6655 12.8819C42.5732 12.8819 42.5271 12.8357 42.5271 12.7434C42.5271 12.6672 42.4925 12.6049 42.4579 12.6049C42.4232 12.6049 42.4025 12.5425 42.4232 12.4664C42.444 12.3902 42.4232 12.3278 42.3886 12.3278C42.354 12.3278 42.3194 12.2794 42.3194 12.2239C42.3194 12.1685 42.2848 12.1339 42.2502 12.1547C42.2156 12.1755 42.181 12.1685 42.181 12.1408C42.181 12.1062 42.2918 11.9192 42.4232 11.7253C42.5547 11.5244 42.7624 11.3098 42.8731 11.2543C42.9838 11.1989 43.2537 11.1505 43.4613 11.1505C43.6897 11.1505 43.8281 11.1782 43.8074 11.2197C43.7866 11.2613 43.8074 11.289 43.842 11.289C43.8766 11.289 43.9112 11.3375 43.9112 11.3929C43.9112 11.4483 43.9458 11.4967 43.9804 11.4967C44.015 11.4967 44.0427 11.3998 44.0357 11.289C44.0219 11.1228 44.0496 11.0673 44.1534 11.0466C44.2295 11.0327 44.4164 11.005 44.5686 10.9842C44.7209 10.9635 44.9562 10.9288 45.0877 10.9011C45.2399 10.8734 45.3507 10.8873 45.3853 10.9358C45.4129 10.9773 45.496 11.0119 45.5721 11.0119C45.6644 11.0119 45.7105 10.9658 45.7105 10.8734C45.7105 10.7972 45.7313 10.7349 45.7659 10.7349C45.7936 10.7349 45.8628 10.7626 45.9182 10.8042C45.9804 10.8388 46.0566 10.8388 46.1119 10.7972C46.1673 10.7557 46.1742 10.6934 46.1258 10.5964C46.0912 10.5202 46.0704 10.4302 46.0912 10.3886C46.1119 10.3471 46.1811 10.3401 46.2503 10.3609C46.3334 10.3886 46.3403 10.3817 46.2711 10.3401C46.2019 10.2986 46.195 10.2363 46.2503 10.077C46.2849 9.95923 46.3541 9.87612 46.4095 9.88997C46.4649 9.90382 46.6379 9.8969 46.804 9.87612C46.9632 9.85534 47.0947 9.80686 47.0947 9.76531C47.0947 9.72375 47.0324 9.69605 46.9562 9.69605C46.8801 9.69605 46.7694 9.6822 46.714 9.66142C46.6448 9.63834 46.6264 9.58755 46.6587 9.50906C46.7002 9.4121 46.6933 9.39824 46.6102 9.45365C46.5272 9.50906 46.5202 9.48135 46.5618 9.28051C46.5895 9.14892 46.6379 8.91344 46.6656 8.76107C46.7002 8.60871 46.7555 8.49097 46.804 8.50482C46.8524 8.51175 46.887 8.44942 46.887 8.36631C46.887 8.27627 46.8594 8.15853 46.8247 8.10313C46.7694 8.01309 46.7555 8.01309 46.7071 8.11698C46.6517 8.23472 46.6171 8.23472 46.2296 8.0962C46.0012 8.01309 45.7382 7.88843 45.4683 7.68758L45.7313 7.73606C45.9182 7.77762 45.9874 7.77069 45.9874 7.70836C45.9874 7.64603 45.8628 7.61833 45.6067 7.61833C45.3576 7.61833 45.2192 7.64603 45.2053 7.70836C45.1846 7.77069 45.1015 7.77762 44.7693 7.70836C44.5479 7.65988 44.2918 7.61833 44.2088 7.61833C44.105 7.61833 43.8627 7.43826 43.5513 7.13352C43.2606 6.85649 42.9838 6.64872 42.9077 6.64872C42.8316 6.64872 42.707 6.60717 42.6309 6.54483C42.5547 6.48943 42.534 6.44095 42.5824 6.44095C42.6239 6.44095 42.6655 6.39247 42.6655 6.33706C42.6655 6.28166 42.6032 6.23318 42.5271 6.23318C42.4094 6.23318 42.3886 6.1847 42.3886 5.95615C42.3886 5.69297 42.3748 5.67912 42.181 5.67912C42.0219 5.67912 41.9734 5.70682 41.9734 5.81763C41.9734 5.89381 41.9388 5.95615 41.9042 5.95615C41.8696 5.95615 41.8281 6.07388 41.8212 6.21932C41.8004 6.46173 41.7866 6.47558 41.5582 6.47558C41.3159 6.47558 41.316 6.47558 41.309 6.16392C41.3021 5.99077 41.2952 5.82456 41.2883 5.783C41.2813 5.74837 41.2537 5.76222 41.2191 5.81763C41.1706 5.90074 41.1429 5.89381 41.0737 5.74837C41.0253 5.65141 40.9838 5.38823 40.9768 5.16661C40.9722 4.8942 40.9999 4.75106 41.0599 4.73721C41.1152 4.71644 41.1429 4.79955 41.1429 4.98654C41.1429 5.13891 41.1775 5.26357 41.2121 5.26357C41.2537 5.26357 41.2813 5.0558 41.2813 4.77877C41.2813 4.50174 41.309 4.29397 41.3506 4.29397C41.3852 4.29397 41.4198 4.26626 41.4198 4.22471C41.4198 4.19008 41.3713 4.15545 41.3159 4.15545C41.2537 4.15545 41.2121 4.21778 41.2121 4.31474C41.2121 4.39785 41.1845 4.43248 41.1568 4.39785C41.1291 4.3563 41.0114 4.32167 40.8869 4.32859C40.7069 4.32859 40.6308 4.384 40.4232 4.67488C40.2848 4.8688 40.0356 5.20816 39.8695 5.43671C39.5927 5.81763 39.5512 5.85226 39.3367 5.83148C39.2052 5.81763 39.0598 5.85226 39.0114 5.90074C38.9629 5.94922 38.9214 6.01155 38.9283 6.04618C38.9283 6.07388 39.0252 6.12929 39.136 6.16392C39.2467 6.20547 39.3436 6.24703 39.3436 6.2678C39.3436 6.28858 39.219 6.53791 39.0668 6.82186C38.9145 7.10582 38.7553 7.3413 38.7207 7.3413C38.6861 7.3413 38.6515 7.29282 38.6515 7.23741C38.6515 7.182 38.61 7.14045 38.5685 7.1543C38.52 7.16815 38.4647 7.23741 38.4577 7.31359C38.4439 7.38285 38.4785 7.47981 38.5408 7.51444C38.6308 7.57677 38.6308 7.62525 38.5131 7.96461C38.4439 8.17239 38.3678 8.45634 38.347 8.58793C38.3124 8.77493 38.2294 8.88574 37.9802 9.07273C37.8003 9.20432 37.2951 9.66835 36.8591 10.1047C36.3262 10.631 36.0009 10.9011 35.8971 10.9011C35.8141 10.9081 35.731 10.8596 35.7172 10.8042C35.6964 10.7488 35.6895 8.37323 35.6964 5.52675C35.7033 2.08465 35.731 0.380916 35.7795 0.422471C35.821 0.4571 36.0494 0.470951 36.2985 0.450174C36.5477 0.429397 38.7415 0.387842 41.1775 0.353213C43.6136 0.32551 45.6136 0.297807 45.6275 0.290882C45.6344 0.283956 45.6206 0.235476 45.5998 0.193921C45.5721 0.145441 45.6206 0.173144 45.7036 0.263179ZM14.7062 0.450174L14.6716 4.25934L10.6231 4.29397L10.6023 4.83417C10.5954 5.13198 10.5608 5.36746 10.5193 5.36746C10.4777 5.36746 10.4362 5.1112 10.4154 4.79955C10.3947 4.49481 10.3601 4.21086 10.3324 4.17623C10.3047 4.14852 10.2632 4.60562 10.2424 5.19431C10.2147 5.783 10.2078 8.45634 10.2424 15.9985H7.85482C6.53991 15.9985 5.43261 15.9708 5.39801 15.9431C5.35648 15.9154 5.3288 15.7907 5.3288 15.673C5.3288 15.5483 5.30112 15.4375 5.25959 15.4306C5.22499 15.4167 5.17655 15.5068 5.14886 15.6176C5.1281 15.7353 5.10734 13.2697 5.10734 10.1462C5.10042 7.02271 5.0935 4.42555 5.0935 4.384C5.08658 4.31474 4.66442 4.28704 1.45326 4.25934L1.4325 2.89496C1.41866 1.57907 1.41174 1.52367 1.28024 1.52367C1.16259 1.52367 1.14183 1.47518 1.14183 1.24664C1.14183 1.01809 1.16259 0.969605 1.28024 0.969605C1.37252 0.969605 1.41866 1.01578 1.41866 1.10812C1.41866 1.20046 1.45787 1.23971 1.53631 1.22586C1.62627 1.21893 1.6678 1.13582 1.67472 0.948828C1.68856 0.747981 1.72316 0.692575 1.83389 0.692575C1.91002 0.692575 1.97231 0.644095 1.97231 0.588689C1.97231 0.50558 2.06227 0.484803 2.80278 0.484803V0.727204C2.80278 0.921125 2.83046 0.969605 2.94119 0.969605C3.03346 0.969605 3.0796 0.923433 3.0796 0.83109C3.0796 0.713352 3.12805 0.692575 3.35643 0.692575C3.55712 0.692575 3.62633 0.664872 3.61941 0.595615C3.60557 0.540209 3.66093 0.484803 3.73706 0.470951C3.81319 0.4571 6.31152 0.450174 14.7062 0.450174ZM10.5815 5.86611C10.6161 5.90766 10.6369 6.06003 10.6161 6.20547C10.6023 6.35784 10.5608 6.46865 10.5193 6.46173C10.4777 6.4548 10.4431 6.34399 10.4293 6.21932C10.4154 6.09466 10.4362 5.94922 10.4639 5.89381C10.4985 5.82456 10.54 5.81763 10.5815 5.86611ZM10.5815 6.97423C10.6161 7.01579 10.6369 7.16815 10.6161 7.31359C10.6023 7.46596 10.5608 7.57677 10.5193 7.56985C10.4777 7.56292 10.4431 7.45211 10.4293 7.32744C10.4154 7.20278 10.4362 7.05734 10.4639 7.00193C10.4985 6.93268 10.54 6.92575 10.5815 6.97423ZM10.5815 8.08235C10.6161 8.12391 10.6369 8.27627 10.6161 8.42171C10.6023 8.57408 10.5608 8.68489 10.5193 8.67797C10.4777 8.67104 10.4431 8.56023 10.4293 8.43556C10.4154 8.3109 10.4362 8.16546 10.4639 8.11005C10.4985 8.0408 10.54 8.03387 10.5815 8.08235ZM10.5815 9.19047C10.6161 9.23203 10.6369 9.38439 10.6161 9.52983C10.6023 9.6822 10.5608 9.79301 10.5193 9.78609C10.4777 9.77916 10.4431 9.66835 10.4293 9.54368C10.4154 9.41902 10.4362 9.27358 10.4639 9.21817C10.4985 9.14892 10.54 9.14199 10.5815 9.19047ZM10.5815 10.2986C10.6161 10.3401 10.6369 10.4925 10.6161 10.638C10.6023 10.7903 10.5608 10.9011 10.5193 10.8942C10.4777 10.8873 10.4431 10.7765 10.4293 10.6518C10.4154 10.5271 10.4362 10.3817 10.4639 10.3263C10.4985 10.257 10.54 10.2501 10.5815 10.2986ZM10.5815 11.4067C10.6161 11.4483 10.6369 11.6006 10.6161 11.7461C10.6023 11.8984 10.5608 12.0093 10.5193 12.0023C10.4777 11.9954 10.4431 11.8846 10.4293 11.7599C10.4154 11.6353 10.4362 11.4898 10.4639 11.4344C10.4985 11.3652 10.54 11.3582 10.5815 11.4067ZM10.5815 12.5148C10.6161 12.5564 10.6369 12.7088 10.6161 12.8542C10.6023 13.0066 10.5608 13.1174 10.5193 13.1104C10.4777 13.1035 10.4431 12.9927 10.4293 12.868C10.4154 12.7434 10.4362 12.5979 10.4639 12.5425C10.4985 12.4733 10.54 12.4664 10.5815 12.5148ZM41.7104 13.242C41.7381 13.2905 41.7658 13.3875 41.7658 13.4567C41.7658 13.5191 41.7519 13.5745 41.7312 13.5745C41.7104 13.5745 41.6481 13.526 41.5928 13.4706C41.5097 13.3875 41.5097 13.3459 41.572 13.2628C41.6412 13.1728 41.6689 13.1728 41.7104 13.242ZM10.5815 13.623C10.6161 13.6645 10.6369 13.8169 10.6161 13.9623C10.6023 14.1147 10.5608 14.2255 10.5193 14.2186C10.4777 14.2116 10.4431 14.1008 10.4293 13.9762C10.4154 13.8515 10.4362 13.7061 10.4639 13.6507C10.4985 13.5814 10.54 13.5745 10.5815 13.623ZM10.5815 14.7311C10.6161 14.7726 10.6369 14.925 10.6161 15.0704C10.6023 15.2228 10.5608 15.3336 10.5193 15.3267C10.4777 15.3198 10.4431 15.2089 10.4293 15.0843C10.4154 14.9596 10.4362 14.8142 10.4639 14.7588C10.4985 14.6895 10.54 14.6826 10.5815 14.7311Z" fill="white"/>
<path d="M27.8005 0.228512C27.8904 0.145403 28.0565 0.0692193 28.1673 0.048442C28.278 0.0345905 29.4268 0.0138132 30.7141 0.0068875C32.8041 -3.82541e-05 33.0532 0.0138133 33.1017 0.110774C33.1293 0.186957 33.2124 0.21466 33.33 0.200809C33.4339 0.186957 33.5031 0.193883 33.4892 0.228512C33.4754 0.256215 33.3646 0.276992 33.2539 0.276992C33.1432 0.276992 33.0463 0.311621 33.0463 0.346249C33.0463 0.387804 33.157 0.415507 33.2885 0.415507C33.42 0.415507 33.5307 0.429358 33.5307 0.450136C33.5307 0.470913 33.3231 0.727166 33.074 1.02497C32.8248 1.31585 32.5826 1.5444 32.5342 1.53055C32.4927 1.5167 32.3888 1.50978 32.3058 1.5167C32.1674 1.52363 32.1466 1.489 32.1466 1.2466C32.1466 0.983418 32.1605 0.969567 32.3542 0.969567C32.5342 0.969567 32.5549 0.990344 32.5134 1.12886C32.4719 1.2743 32.4788 1.2743 32.5826 1.16349C32.6518 1.09423 32.7003 1.01805 32.7003 0.990344C32.6933 0.955715 32.7418 0.886458 32.8041 0.831052C32.8664 0.775646 32.9079 0.664834 32.894 0.588651C32.8802 0.477839 32.8041 0.44321 32.5619 0.415507C32.3888 0.39473 31.4269 0.387804 30.4165 0.39473C29.4061 0.408581 28.4441 0.422433 28.2711 0.436284C28.0981 0.450136 27.8904 0.498616 27.8074 0.54017C27.669 0.609428 27.6482 0.602502 27.6482 0.505542C27.6482 0.436284 27.7174 0.311621 27.8005 0.228512Z" fill="white"/>
<path d="M40.1538 0.221586C42.6936 0.207734 44.5968 0.16618 44.6383 0.131551C44.6729 0.0969222 44.8944 0.0692193 45.1366 0.0692193C45.4619 0.0692193 45.5795 0.0969222 45.6072 0.173106C45.628 0.228512 45.6349 0.283918 45.628 0.290843C45.6154 0.29714 43.9612 0.320608 41.8303 0.35084L41.178 0.360101C38.742 0.387804 36.5343 0.422433 36.2644 0.429358C35.8837 0.44321 35.7799 0.429358 35.7592 0.346249C35.7453 0.256214 36.2782 0.242363 40.1538 0.221586Z" fill="white"/>
<path d="M0.865483 0.346249L1.36377 0.325472C1.64059 0.318546 4.85175 0.311621 8.49199 0.311621C12.8174 0.311621 15.1427 0.332398 15.1842 0.380878C15.2257 0.422433 15.2603 1.14271 15.2603 2.28546C15.2673 3.97534 15.2603 4.12771 15.1427 4.21082C15.0735 4.2593 14.9558 4.287 14.8797 4.28008C14.7482 4.2593 14.7413 4.19697 14.7067 0.450136L9.28786 0.457061C6.312 0.463987 3.82058 0.470913 3.75138 0.477839C3.68909 0.477839 3.63372 0.533245 3.63372 0.588651C3.63372 0.664834 3.5576 0.692537 3.3569 0.692537C3.12852 0.692537 3.08008 0.713314 3.08008 0.831052C3.08008 0.923395 3.03394 0.969567 2.94166 0.969567C2.83093 0.969567 2.80325 0.921087 2.80325 0.484764H2.38802C2.06275 0.484764 1.97278 0.505542 1.97278 0.588651C1.97278 0.644057 1.91049 0.692537 1.83437 0.692537C1.72364 0.692537 1.68903 0.747943 1.67519 0.94879C1.66827 1.13578 1.62675 1.21889 1.53678 1.22582C1.45835 1.23967 1.41913 1.20043 1.41913 1.10808C1.41913 1.01574 1.37299 0.969567 1.28072 0.969567C1.16307 0.969567 1.14231 1.01805 1.14231 1.2466C1.14231 1.47515 1.16307 1.52363 1.28072 1.52363C1.41221 1.52363 1.41913 1.56518 1.38453 4.2593H0.900086L0.879324 3.67061C0.858562 3.1304 0.865483 3.07499 0.996974 3.03344C1.12155 2.98496 1.14231 2.9157 1.14231 2.59712C1.14231 2.30624 1.12155 2.2162 1.0385 2.2162C0.983133 2.2162 0.920847 2.16772 0.900086 2.11232C0.879324 2.05691 0.865483 1.63444 0.865483 0.346249Z" fill="white"/>
<path d="M17.904 0.436284C17.7102 0.422433 17.5441 0.380878 17.5441 0.346249C17.5511 0.297769 18.4161 0.270066 22.8038 0.276992L22.8453 0.470913C22.873 0.595576 22.8569 0.674068 22.7969 0.706388C22.7415 0.727166 22.6585 0.734091 22.61 0.72024C22.5685 0.706388 22.5131 0.741017 22.4924 0.796423C22.4716 0.851829 22.3955 0.900309 22.3194 0.900309C22.2432 0.900309 22.181 0.851829 22.181 0.796423C22.181 0.741017 22.1187 0.692537 22.0425 0.692537C21.9503 0.692537 21.9041 0.738708 21.9041 0.831052C21.9041 0.923395 21.858 0.969567 21.7657 0.969567C21.6481 0.969567 21.6273 1.01805 21.6273 1.52363H21.2813C20.9422 1.52363 20.9352 1.5167 20.9352 1.31585C20.9352 1.12886 20.956 1.10808 21.1429 1.10808C21.2536 1.10808 21.3505 1.08038 21.3505 1.03882C21.3505 1.0042 21.4128 0.969567 21.4889 0.969567C21.6065 0.969567 21.6273 0.928012 21.5927 0.450136L21.0875 0.436284C20.6515 0.415507 20.5823 0.429358 20.52 0.554022C20.4785 0.630205 20.4024 0.692537 20.347 0.692537C20.2916 0.692537 20.2432 0.754869 20.2432 0.831052C20.2432 0.923395 20.197 0.969567 20.1048 0.969567C19.9871 0.969567 19.9664 1.01805 19.9664 1.52363H18.7206V1.2466C18.7206 1.09423 18.686 0.969567 18.6514 0.969567C18.6099 0.969567 18.5822 0.907235 18.5822 0.831052C18.5822 0.754869 18.5476 0.692537 18.513 0.692537C18.4715 0.692537 18.4438 0.727166 18.4438 0.761794C18.4438 0.803349 18.4092 0.831052 18.3746 0.831052C18.3331 0.831052 18.2985 0.747943 18.2846 0.644057C18.2708 0.463987 18.25 0.450136 17.904 0.436284Z" fill="white"/>
<path d="M0.706309 3.28969C0.699388 3.78835 0.685547 3.35202 0.685547 2.32009C0.685547 1.29508 0.699388 0.886458 0.706309 1.41974C0.72015 1.95302 0.72015 2.79104 0.706309 3.28969Z" fill="white"/>
<path d="M48.5139 1.2466C48.4585 1.2466 48.41 1.19812 48.41 1.14271C48.41 1.0873 48.4516 1.03882 48.4931 1.03882C48.5415 1.03882 48.6453 1.08038 48.7215 1.12886C48.853 1.22582 48.853 1.23275 48.7353 1.39204C48.673 1.48207 48.6177 1.61366 48.6177 1.68292C48.6177 1.74525 48.6038 1.80066 48.5831 1.80066C48.5623 1.80066 48.4931 1.75218 48.4239 1.68984C48.3132 1.57903 48.3132 1.56518 48.4585 1.44744C48.5485 1.37126 48.6177 1.302 48.6177 1.28123C48.6177 1.26045 48.5692 1.2466 48.5139 1.2466Z" fill="white"/>
<path d="M26.6032 1.62751L26.7832 1.40589C26.887 1.2743 26.9977 1.19812 27.06 1.22582C27.1153 1.2466 27.1569 1.32278 27.1638 1.39204C27.1638 1.47515 27.2122 1.52363 27.3022 1.52363C27.4198 1.52363 27.4406 1.57211 27.4406 1.80066C27.4406 1.95302 27.4683 2.07769 27.5098 2.07769C27.5444 2.07769 27.579 2.03613 27.579 1.99458C27.579 1.92532 27.5929 1.92532 27.6621 1.99458C27.7105 2.04306 27.8074 2.07769 27.8697 2.07769C27.9389 2.07769 27.9943 2.11232 27.9943 2.14694C27.9943 2.1885 28.0565 2.2162 28.1327 2.2162C28.2434 2.2162 28.2711 2.26468 28.2711 2.42397C28.2711 2.6179 28.2572 2.63175 27.9943 2.63175C27.7659 2.63175 27.7174 2.65252 27.7174 2.77026C27.7174 2.84645 27.6828 2.90878 27.6482 2.90878C27.6067 2.90878 27.579 2.84645 27.579 2.77026C27.579 2.69408 27.5444 2.63175 27.5098 2.63175C27.4683 2.63175 27.4406 2.50708 27.4406 2.35472C27.4406 2.20235 27.406 2.07769 27.3714 2.07769C27.3299 2.07769 27.3022 2.00843 27.3022 1.92532C27.2953 1.76603 27.2953 1.76603 27.1984 1.90454C27.1015 2.02921 27.0877 2.02921 27.0046 1.93225C26.9631 1.86991 26.8524 1.77988 26.6032 1.62751Z" fill="white"/>
<path d="M26.2157 2.49323C26.188 2.49323 26.1603 2.4032 26.1534 2.29931C26.1465 2.13309 26.1672 2.10539 26.2849 2.14002C26.361 2.1608 26.4302 2.20235 26.444 2.23698C26.4579 2.26468 26.4302 2.33394 26.3748 2.38935C26.3195 2.44475 26.2503 2.49323 26.2157 2.49323Z" fill="white"/>
<path d="M25.7797 2.59712C25.7797 2.57634 25.7935 2.52093 25.8073 2.47245C25.8212 2.41705 25.8835 2.37549 25.9388 2.37549C25.9873 2.37549 26.0357 2.43783 26.0426 2.50708C26.0519 2.59019 26.0104 2.63175 25.9181 2.63175C25.8419 2.63175 25.7797 2.6179 25.7797 2.59712Z" fill="white"/>
<path d="M51.3167 3.65676C51.2337 3.64291 51.1783 3.5875 51.1852 3.51132C51.1852 3.42821 51.2337 3.39358 51.3029 3.40743C51.3651 3.42128 51.4274 3.48361 51.4343 3.55287C51.4482 3.63598 51.4136 3.66368 51.3167 3.65676Z" fill="white"/>
<path d="M10.2083 10.7557C10.2083 7.97843 10.2291 5.35357 10.2567 4.91724C10.2844 4.41166 10.319 4.18312 10.3536 4.29393C10.3813 4.39089 10.4021 4.65407 10.409 4.88262C10.409 5.16657 10.4436 5.33279 10.5197 5.40205C10.582 5.45745 10.6305 5.55441 10.6305 5.60982C10.6305 5.66523 10.582 5.76219 10.5197 5.81759C10.4574 5.873 10.409 6.03229 10.409 6.16388C10.409 6.29547 10.4574 6.45476 10.5197 6.51017C10.582 6.56557 10.6305 6.66253 10.6305 6.71794C10.6305 6.77335 10.582 6.87031 10.5197 6.92571C10.4574 6.98112 10.409 7.14041 10.409 7.272C10.409 7.40359 10.4574 7.56288 10.5197 7.61829C10.582 7.67369 10.6305 7.77065 10.6305 7.82606C10.6305 7.88147 10.582 7.97843 10.5197 8.03383C10.4574 8.08924 10.409 8.24853 10.409 8.38012C10.409 8.51171 10.4574 8.671 10.5197 8.72641C10.582 8.78181 10.6305 8.87877 10.6305 8.93418C10.6305 8.98959 10.582 9.08655 10.5197 9.14195C10.4574 9.19736 10.409 9.35665 10.409 9.48824C10.409 9.61983 10.4574 9.77912 10.5197 9.83453C10.582 9.88993 10.6305 9.98689 10.6305 10.0423C10.6305 10.0977 10.582 10.1947 10.5197 10.2501C10.4574 10.3055 10.409 10.4648 10.409 10.5964C10.409 10.7279 10.4574 10.8872 10.5197 10.9426C10.582 10.9981 10.6305 11.095 10.6305 11.1504C10.6305 11.2058 10.582 11.3028 10.5197 11.3582C10.4574 11.4136 10.409 11.5729 10.409 11.7045C10.409 11.8361 10.4574 11.9954 10.5197 12.0508C10.582 12.1062 10.6305 12.2031 10.6305 12.2585C10.6305 12.3139 10.582 12.4109 10.5197 12.4663C10.4574 12.5217 10.409 12.681 10.409 12.8126C10.409 12.9442 10.4574 13.1035 10.5197 13.1589C10.582 13.2143 10.6305 13.3113 10.6305 13.3667C10.6305 13.4221 10.582 13.519 10.5197 13.5744C10.4574 13.6298 10.409 13.7891 10.409 13.9207C10.409 14.0523 10.4574 14.2116 10.5197 14.267C10.582 14.3224 10.6305 14.4194 10.6305 14.4748C10.6305 14.5302 10.582 14.6271 10.5197 14.6826C10.4574 14.738 10.409 14.8973 10.409 15.0288C10.409 15.1604 10.4574 15.3197 10.5197 15.3751C10.582 15.4305 10.6305 15.5344 10.6235 15.6037C10.6235 15.666 10.5889 15.7837 10.5543 15.8599C10.5128 15.9361 10.4367 15.9984 10.3813 15.9984C10.326 15.9984 10.2637 15.95 10.2429 15.8946C10.2221 15.8392 10.2083 13.526 10.2083 10.7557Z" fill="white"/>
<path d="M29.7244 4.46707C29.8005 4.44629 29.8628 4.38396 29.8628 4.32856C29.8628 4.27315 29.9113 4.22467 29.9666 4.22467C30.022 4.22467 30.0704 4.2593 30.0704 4.29393C30.0704 4.33548 30.0082 4.39781 29.932 4.43244C29.8559 4.474 29.7936 4.55018 29.7936 4.60559C29.7936 4.66099 29.7452 4.70947 29.6898 4.70947C29.6344 4.70947 29.586 4.66099 29.586 4.60559C29.586 4.55018 29.6483 4.48785 29.7244 4.46707Z" fill="white"/>
<path d="M51.8565 4.73025C51.815 4.61944 51.7665 4.46707 51.7527 4.38396C51.7389 4.26622 51.7596 4.24545 51.8427 4.28008C51.898 4.30778 51.9326 4.37011 51.9119 4.41859C51.8842 4.46707 51.898 4.48092 51.9534 4.45322C52.0088 4.41628 52.0249 4.43244 52.0018 4.5017C51.9811 4.55711 52.0018 4.64714 52.0572 4.69562C52.1056 4.73717 52.1333 4.81336 52.1126 4.84799C52.0918 4.88954 52.0434 4.91724 52.0088 4.91724C51.9672 4.91724 51.905 4.83414 51.8565 4.73025Z" fill="white"/>
<path d="M41.1296 4.96572C41.1227 4.79951 41.1434 4.64021 41.178 4.61944C41.2126 4.59173 41.2472 4.57096 41.2611 4.57096C41.268 4.57096 41.2818 4.73025 41.2818 4.91724C41.2818 5.11117 41.2472 5.26353 41.2126 5.26353C41.1711 5.26353 41.1365 5.13194 41.1296 4.96572Z" fill="white"/>
<path d="M29.15 5.26353C29.1223 5.26353 29.1016 5.1735 29.1016 5.05576C29.1016 4.88262 29.1292 4.84799 29.2746 4.84799C29.3784 4.84799 29.4407 4.88262 29.4268 4.93802C29.4199 4.99343 29.3645 5.08346 29.3092 5.15272C29.2538 5.21505 29.1846 5.27046 29.15 5.26353Z" fill="white"/>
<path d="M23.3159 5.29816C23.3228 5.26353 23.3505 5.18735 23.3851 5.13887C23.4128 5.09039 23.4682 5.06961 23.5097 5.09039C23.5443 5.11809 23.5789 5.19427 23.572 5.27046C23.5674 5.35818 23.5212 5.39743 23.4336 5.3882C23.3644 5.37434 23.309 5.33972 23.3159 5.29816Z" fill="white"/>
<path d="M41.9047 5.95611C41.9393 5.95611 41.9739 5.89378 41.9739 5.81759C41.9739 5.70678 42.0223 5.67908 42.1815 5.67908C42.3753 5.67908 42.3891 5.69293 42.3891 5.95611C42.3891 6.18466 42.4099 6.23314 42.5275 6.23314C42.6037 6.23314 42.6659 6.28162 42.6659 6.33702C42.6659 6.39243 42.6313 6.44091 42.5967 6.44091C42.5552 6.44091 42.5414 6.47554 42.5621 6.51017C42.5829 6.55172 42.486 6.56557 42.2991 6.53787C42.14 6.51709 41.967 6.48246 41.9185 6.46861C41.877 6.45476 41.8355 6.3301 41.8355 6.19851C41.8355 6.06692 41.8632 5.95611 41.9047 5.95611Z" fill="white"/>
<path d="M41.0742 6.26777C41.0742 6.17081 41.1157 6.01844 41.1572 5.92148C41.2057 5.82452 41.268 5.76911 41.2887 5.79681C41.3095 5.83144 41.3164 5.98381 41.3095 6.15003C41.2887 6.35087 41.2472 6.44091 41.178 6.44091C41.1157 6.44091 41.0742 6.37858 41.0742 6.26777Z" fill="white"/>
<path d="M27.8558 6.05307C27.8351 6.03922 27.8628 5.98381 27.9181 5.92148C27.9666 5.86607 28.0358 5.81759 28.0704 5.81759C28.105 5.81759 28.1327 5.88685 28.1327 5.97688C28.1396 6.1154 28.1465 6.1154 28.2226 6.01151C28.2711 5.94918 28.3403 5.92148 28.3749 5.94226C28.4164 5.96996 28.4441 6.02536 28.4441 6.05999C28.4441 6.10155 28.4164 6.17081 28.3887 6.21929C28.3541 6.28162 28.2918 6.27469 28.1119 6.19158C27.9943 6.12925 27.8766 6.06692 27.8558 6.05307Z" fill="white"/>
<path d="M38.9634 6.09462C38.915 6.05307 38.9288 5.99766 38.9911 5.92148C39.0395 5.86607 39.1088 5.81759 39.1434 5.81759C39.178 5.81759 39.2056 5.87992 39.2056 5.95611C39.2056 6.03229 39.2333 6.08077 39.2748 6.05999C39.3094 6.03922 39.3302 5.99766 39.3094 5.95611C39.2887 5.92148 39.3164 5.86607 39.3579 5.84529C39.4063 5.82452 39.4755 5.83144 39.5032 5.85915C39.5378 5.89378 39.5309 5.99074 39.4894 6.08077C39.4271 6.19851 39.3717 6.22621 39.2195 6.19158C39.1157 6.17081 38.998 6.12925 38.9634 6.09462Z" fill="white"/>
<path d="M27.3576 6.66253C27.3506 6.59328 27.3714 6.51017 27.406 6.48939C27.4406 6.46169 27.5237 6.44091 27.5929 6.44091C27.6759 6.44091 27.7244 6.50324 27.7451 6.63483C27.759 6.73872 27.7728 6.82875 27.7659 6.83568C27.759 6.8426 27.669 6.82875 27.5583 6.8149C27.4406 6.79412 27.3645 6.73872 27.3576 6.66253Z" fill="white"/>
<path d="M52.3133 6.98112C52.2787 6.67638 52.2925 6.6002 52.3963 6.53094C52.4655 6.48246 52.5347 6.44091 52.5416 6.44091C52.5555 6.44091 52.5624 6.48939 52.5624 6.5448C52.5624 6.60713 52.5209 6.63483 52.4586 6.61405C52.3825 6.58635 52.3548 6.63483 52.3548 6.7872C52.3548 6.90494 52.3825 6.99497 52.424 6.99497C52.4586 6.99497 52.4932 6.96727 52.4932 6.92571C52.4932 6.89108 52.5416 6.87031 52.597 6.89108C52.6524 6.91186 52.7008 6.96034 52.7008 6.99497C52.7008 7.03652 52.6385 7.12656 52.5624 7.20274C52.4863 7.27893 52.4102 7.34126 52.3894 7.34126C52.3686 7.34126 52.334 7.17504 52.3133 6.98112Z" fill="white"/>
<path d="M17.5095 6.71794C17.4888 6.68331 17.5303 6.62098 17.5926 6.57942C17.6618 6.5448 17.7864 6.51017 17.8694 6.51017C17.9594 6.51017 18.0286 6.5448 18.0286 6.57942C18.0286 6.62098 18.0909 6.64868 18.167 6.64868C18.2777 6.64868 18.3054 6.69716 18.3054 6.85645C18.3054 6.99497 18.2708 7.06423 18.2016 7.06423C18.1462 7.06423 18.084 7.0019 18.0632 6.92571C18.0355 6.82183 17.9732 6.7872 17.7864 6.7872C17.6549 6.7872 17.5303 6.75949 17.5095 6.71794Z" fill="white"/>
<path d="M27.3576 7.33433C27.3506 7.272 27.3714 7.20274 27.406 7.18196C27.4406 7.15426 27.5029 7.13348 27.5583 7.13348C27.6067 7.13348 27.6482 7.17504 27.6482 7.22352C27.6413 7.26507 27.7105 7.35511 27.7936 7.41051C27.8835 7.47285 27.932 7.54903 27.9043 7.60444C27.8766 7.64599 27.8005 7.68754 27.7313 7.68754C27.669 7.68754 27.5583 7.63214 27.4891 7.56288C27.4198 7.50055 27.3645 7.39666 27.3576 7.33433Z" fill="white"/>
<path d="M45.3442 7.82606C45.2819 7.82606 45.2266 7.77758 45.2266 7.72217C45.2266 7.63906 45.3165 7.61829 45.6072 7.61829C45.8148 7.61829 45.9878 7.63906 45.9878 7.67369C45.9878 7.7014 45.8702 7.74295 45.7318 7.77065C45.5864 7.79836 45.4134 7.82606 45.3442 7.82606Z" fill="white"/>
<path d="M46.6661 8.30394C46.6591 8.20698 46.6799 8.10309 46.7145 8.08231C46.7491 8.05461 46.7837 8.04076 46.7975 8.05461C46.8114 8.06153 46.8391 8.1585 46.8529 8.27623C46.8737 8.42167 46.8529 8.48401 46.7837 8.48401C46.7214 8.48401 46.673 8.40782 46.6661 8.30394Z" fill="white"/>
<path d="M17.6133 8.34549C17.6895 8.32471 17.7518 8.27623 17.7587 8.23468C17.7587 8.19312 17.814 8.17235 17.8763 8.1862C17.9594 8.20005 18.0009 8.29008 18.0078 8.47015C18.0286 8.67793 18.0078 8.72641 17.904 8.72641C17.8417 8.72641 17.7172 8.71256 17.6272 8.69178C17.5303 8.671 17.4749 8.60867 17.4749 8.51863C17.4749 8.43553 17.5303 8.36627 17.6133 8.34549Z" fill="white"/>
<path d="M52.4586 9.28047C52.3755 9.28047 52.3548 9.19736 52.3617 8.92033C52.3686 8.6433 52.3825 8.59482 52.4171 8.72641C52.4448 8.82337 52.4932 8.98266 52.514 9.09347C52.5486 9.23199 52.5347 9.28047 52.4586 9.28047Z" fill="white"/>
<path d="M28.9493 9.36358C28.9424 9.29432 28.9631 9.21121 28.9977 9.19043C29.0323 9.16273 29.0808 9.14195 29.1154 9.14195C29.1431 9.14195 29.2123 9.21121 29.2676 9.30124C29.323 9.38435 29.3576 9.48131 29.3369 9.52287C29.323 9.56442 29.3784 9.61983 29.4614 9.66138C29.5514 9.70294 29.6206 9.79297 29.6206 9.86916C29.6206 9.97997 29.5791 10.0007 29.4476 9.98689C29.3507 9.97304 29.24 9.93149 29.2054 9.89686C29.1638 9.86223 29.0323 9.83453 28.9078 9.83453C28.7348 9.83453 28.6863 9.80682 28.6863 9.69601C28.6863 9.6129 28.7417 9.54365 28.8247 9.52287C28.9078 9.50209 28.9562 9.43976 28.9493 9.36358Z" fill="white"/>
<path d="M46.3685 9.83453C46.3477 9.79297 46.3685 9.70294 46.4031 9.62675C46.4446 9.55057 46.493 9.48824 46.5069 9.48824C46.5276 9.48824 46.5899 9.53672 46.6453 9.59213C46.7007 9.64753 46.8252 9.69601 46.9221 9.69601C47.019 9.69601 47.0951 9.72371 47.0951 9.76527C47.0951 9.80682 47.0467 9.83453 46.9913 9.83453C46.936 9.83453 46.8391 9.84838 46.7837 9.86916C46.7214 9.88993 46.6799 9.86223 46.6799 9.7999C46.6799 9.74449 46.6453 9.69601 46.6107 9.69601C46.5692 9.69601 46.5553 9.74449 46.5761 9.7999C46.5968 9.86223 46.5692 9.90378 46.5069 9.90378C46.4515 9.90378 46.3892 9.87608 46.3685 9.83453Z" fill="white"/>
<path d="M17.6133 10.5617C17.6895 10.541 17.7518 10.4925 17.7587 10.4509C17.7587 10.4094 17.814 10.3886 17.8763 10.4024C17.9594 10.4163 18.0009 10.5063 18.0078 10.6864C18.0286 10.8942 18.0078 10.9426 17.904 10.9426C17.8417 10.9426 17.7172 10.9288 17.6272 10.908C17.5303 10.8872 17.4749 10.8249 17.4749 10.7349C17.4749 10.6518 17.5303 10.5825 17.6133 10.5617Z" fill="white"/>
<path d="M45.3996 10.9426C45.3788 10.9011 45.4134 10.8457 45.4757 10.8111C45.5449 10.7764 45.621 10.7626 45.6556 10.7764C45.6972 10.7972 45.7248 10.8595 45.7179 10.9149C45.711 10.9704 45.6487 11.0119 45.5726 11.0119C45.4965 11.0119 45.4203 10.9842 45.3996 10.9426Z" fill="white"/>
<path d="M30.0704 10.9426C30.1466 10.9426 30.2019 10.9149 30.195 10.8872C30.1881 10.8526 30.2296 10.8249 30.2919 10.8249C30.3473 10.8249 30.3957 10.8388 30.4026 10.8526C30.4095 10.8595 30.3819 10.9426 30.3403 11.0327C30.2919 11.1158 30.2227 11.2128 30.1812 11.2405C30.1396 11.2751 30.1673 11.282 30.2573 11.2612C30.3819 11.2266 30.4165 11.2474 30.4165 11.3582C30.4165 11.469 30.368 11.4967 30.1742 11.4967C29.9389 11.4967 29.932 11.4898 29.932 11.2197C29.932 10.9911 29.9528 10.9426 30.0704 10.9426Z" fill="white"/>
<path d="M24.3333 11.1366C24.2571 11.0881 24.2156 11.005 24.2364 10.9634C24.2502 10.9149 24.3194 10.8734 24.3817 10.8734C24.4509 10.8734 24.5547 10.9288 24.6239 10.9981C24.6931 11.0604 24.7485 11.1712 24.7416 11.2405C24.7416 11.3028 24.6931 11.372 24.6378 11.3928C24.5824 11.4136 24.4994 11.4136 24.4647 11.3928C24.4232 11.372 24.4094 11.3305 24.4301 11.2889C24.4509 11.2474 24.4025 11.1781 24.3333 11.1366Z" fill="white"/>
<path d="M51.5243 11.379C51.5243 11.3097 51.5935 11.2197 51.6766 11.1781C51.7596 11.1435 51.8565 11.1227 51.8911 11.1366C51.9257 11.1504 51.9534 11.2058 51.9465 11.2612C51.9396 11.3166 51.9603 11.3582 51.9949 11.3582C52.0226 11.3582 52.0088 11.4136 51.9672 11.4829C51.9257 11.5452 51.8911 11.6491 51.8911 11.7045C51.898 11.7599 51.8288 11.9261 51.7458 12.0715C51.6627 12.2101 51.5797 12.3278 51.5589 12.3278C51.5382 12.3278 51.4413 12.2862 51.3305 12.2447C51.2267 12.1962 51.1022 12.12 51.0537 12.0715C51.0122 12.0231 50.9707 11.8707 50.9707 11.7391C50.9707 11.5036 50.9776 11.4967 51.2475 11.4967C51.462 11.4967 51.5243 11.469 51.5243 11.379Z" fill="white"/>
<path d="M30.4718 11.656C30.4649 11.5937 30.5203 11.4829 30.5964 11.4067C30.7279 11.282 30.7279 11.282 30.894 11.4759C31.0393 11.6491 31.0462 11.6768 30.9424 11.7391C30.8386 11.8014 30.8386 11.8153 30.9494 11.9123C31.0532 12.0092 31.0601 12.0023 31.0186 11.8984C30.9701 11.7807 30.977 11.7807 31.1501 11.8984C31.2815 11.9815 31.3023 12.03 31.2331 12.0646C31.1847 12.0923 31.0878 12.12 31.0186 12.12C30.9563 12.12 30.8386 12.0438 30.7625 11.9469C30.6864 11.8499 30.5895 11.7737 30.5549 11.7737C30.5134 11.7737 30.4788 11.7183 30.4718 11.656Z" fill="white"/>
<path d="M25.136 12.2932C24.9561 12.0577 24.9561 12.0438 25.0668 11.9053L25.1914 11.7599L25.2537 11.9261C25.2814 12.0161 25.3367 12.1408 25.3713 12.2101C25.406 12.2724 25.4336 12.3763 25.4336 12.4317C25.4336 12.4871 25.4821 12.5356 25.5374 12.5356C25.5928 12.5356 25.6897 12.6395 25.7451 12.7641C25.8073 12.8819 25.8489 12.9927 25.8489 13.0065C25.8489 13.0134 25.8004 13.0134 25.7381 13.0065C25.6828 12.9927 25.579 12.8957 25.5167 12.778C25.4544 12.6602 25.3852 12.5633 25.3644 12.5563C25.3437 12.5494 25.2468 12.4317 25.136 12.2932Z" fill="white"/>
<path d="M42.7974 12.5841C42.7974 12.3763 42.839 12.2378 42.9358 12.1339C43.0189 12.0508 43.1365 11.9815 43.1988 11.9815C43.268 11.9815 43.4203 12.0023 43.5449 12.0369C43.7525 12.0854 43.7732 12.1062 43.7732 12.3486C43.7732 12.5563 43.7456 12.6048 43.6279 12.6048C43.5356 12.6048 43.4895 12.651 43.4895 12.7433C43.4895 12.8611 43.448 12.8819 43.2127 12.8819C42.9843 12.8819 42.9358 12.9096 42.9358 13.0204C42.9358 13.1127 42.8897 13.1589 42.7974 13.1589C42.7213 13.1589 42.6452 13.2212 42.6244 13.2974C42.6106 13.3736 42.5483 13.4359 42.486 13.4359C42.4306 13.4359 42.3822 13.4844 42.3822 13.5398C42.3822 13.5952 42.3545 13.6437 42.313 13.6437C42.2784 13.6437 42.2438 13.5952 42.2438 13.5398C42.2438 13.4844 42.223 13.429 42.1884 13.4221C42.1538 13.4082 42.1123 13.145 42.0985 12.8265C42.0777 12.3278 42.0915 12.2378 42.1953 12.1824C42.2991 12.127 42.313 12.1477 42.2784 12.3278C42.2507 12.494 42.2715 12.5425 42.3822 12.5702C42.4652 12.591 42.5206 12.6672 42.5206 12.7433C42.5206 12.8357 42.5667 12.8819 42.659 12.8819C42.7767 12.8819 42.7974 12.8403 42.7974 12.5841Z" fill="white"/>
<path d="M17.6064 12.778C17.6826 12.7572 17.7518 12.7087 17.7518 12.6672C17.7587 12.6325 17.814 12.6048 17.8763 12.6187C17.9525 12.6325 17.994 12.7226 18.0078 12.9026C18.0217 13.1104 18.0009 13.1589 17.904 13.1589C17.8348 13.1589 17.7102 13.145 17.6272 13.1243C17.5303 13.1035 17.468 13.0412 17.468 12.9511C17.468 12.8749 17.5303 12.7987 17.6064 12.778Z" fill="white"/>
<path d="M41.7386 13.332C41.6832 13.1797 41.6486 13.0204 41.6694 12.9719C41.6901 12.9234 41.7524 12.8819 41.8009 12.8819C41.8562 12.8819 41.8978 12.9165 41.8978 12.9511C41.8978 12.9927 41.8701 13.0342 41.8285 13.055C41.7939 13.0758 41.7801 13.2074 41.8355 13.6091L41.7386 13.332Z" fill="white"/>
<path d="M25.9458 13.332C25.8904 13.3113 25.8627 13.2558 25.8835 13.1935C25.9112 13.1381 25.9873 13.0896 26.0565 13.0896C26.1326 13.0896 26.2503 13.1658 26.3264 13.2628C26.4187 13.3782 26.534 13.4359 26.6724 13.4359C26.8593 13.4359 26.88 13.4636 26.88 13.6437C26.88 13.7822 26.8454 13.8515 26.7762 13.8515C26.7209 13.8515 26.6724 13.803 26.6724 13.7476C26.6724 13.6645 26.6517 13.6575 26.5548 13.7268C26.4856 13.7684 26.3818 13.7822 26.3125 13.7614C26.2433 13.7337 26.1603 13.6368 26.1188 13.5398C26.0842 13.4428 26.008 13.3528 25.9458 13.332Z" fill="white"/>
<path d="M41.2126 14.2324C41.2541 14.0454 41.3233 13.8445 41.3718 13.7961C41.4341 13.7199 41.4687 13.7268 41.5448 13.8307C41.614 13.9138 41.6486 13.9276 41.6694 13.8722C41.6832 13.8238 41.7247 13.7822 41.7593 13.7822C41.8009 13.7822 41.8285 13.893 41.8285 14.0246C41.8285 14.2116 41.8009 14.267 41.7109 14.267C41.6417 14.2739 41.5379 14.3086 41.4687 14.357C41.4064 14.4055 41.351 14.4956 41.351 14.5648C41.351 14.6271 41.3164 14.6964 41.2749 14.7172C41.2403 14.738 41.1919 14.7172 41.1711 14.6687C41.1503 14.6202 41.1711 14.4263 41.2126 14.2324Z" fill="white"/>
<path d="M26.8662 14.551C26.6793 14.4124 26.6793 14.4055 26.7901 14.1978C26.8524 14.0869 26.9631 13.99 27.0323 13.99C27.1015 13.99 27.1569 14.0246 27.1569 14.0592C27.1569 14.1008 27.1292 14.1285 27.0877 14.1285C27.0531 14.1285 27.0046 14.1839 26.9838 14.2532C26.97 14.3155 26.9838 14.4124 27.0185 14.4609C27.06 14.5094 27.0807 14.5787 27.0738 14.6202C27.0669 14.6618 26.9769 14.6341 26.8662 14.551Z" fill="white"/>
<path d="M42.9912 14.2878C43.0397 14.2393 43.0743 14.1493 43.0743 14.0939C43.0743 14.0246 43.1504 13.99 43.4964 13.99L43.4895 15.9984H43.0743C42.8459 15.9984 42.6659 15.9777 42.6729 15.95V15.7768C42.6659 15.7006 42.6037 15.6522 42.5206 15.6522C42.4445 15.6522 42.3822 15.6245 42.3822 15.5829C42.3822 15.5483 42.4998 15.5136 42.6313 15.5136C42.7697 15.5136 42.922 15.4652 42.9774 15.4098C43.0327 15.3544 43.0743 15.1951 43.0743 15.0635C43.0743 14.9319 43.0466 14.8211 43.0051 14.8211C42.9704 14.8211 42.9358 14.7587 42.9358 14.6826C42.9358 14.5925 42.8874 14.5371 42.7836 14.5233C42.6313 14.5025 42.6313 14.4956 42.7628 14.4402C42.839 14.4055 42.9428 14.3363 42.9912 14.2878Z" fill="white"/>
<path d="M47.7803 14.8211C47.8725 14.8211 47.9187 14.7749 47.9187 14.6826C47.9187 14.5787 47.9671 14.544 48.1263 14.544C48.2924 14.544 48.3339 14.5787 48.3339 14.6826C48.3339 14.7587 48.3685 14.8211 48.4031 14.8211C48.4446 14.8211 48.4931 14.8695 48.5069 14.925C48.5346 15.0011 48.4308 15.0842 48.1609 15.202C47.9533 15.2989 47.7526 15.3613 47.7111 15.3405C47.6765 15.3197 47.6419 15.1951 47.6419 15.0635C47.6419 14.8695 47.6695 14.8211 47.7803 14.8211Z" fill="white"/>
<path d="M17.6064 14.9942C17.6826 14.9734 17.7518 14.925 17.7518 14.8834C17.7587 14.8488 17.814 14.8211 17.8763 14.8349C17.9525 14.8488 17.994 14.9388 18.0078 15.1189C18.0217 15.3266 18.0009 15.3751 17.904 15.3751C17.8348 15.3751 17.7102 15.3613 17.6272 15.3405C17.5303 15.3197 17.468 15.2574 17.468 15.1674C17.468 15.0912 17.5303 15.015 17.6064 14.9942Z" fill="white"/>
<path d="M41.1296 15.6383C41.0396 15.569 41.0327 15.5206 41.095 15.4236C41.1365 15.3544 41.1919 15.3197 41.2195 15.3544C41.2472 15.3821 41.2887 15.5067 41.3095 15.6175C41.3372 15.7353 41.3233 15.8738 41.2887 15.9292C41.2426 15.9984 41.178 16.0146 41.095 15.9777C40.9704 15.9292 40.9704 15.9223 41.1019 15.8253C41.2334 15.7283 41.2334 15.7145 41.1296 15.6383Z" fill="white"/>
<path d="M46.2162 15.6383C46.1955 15.5483 46.1954 15.4444 46.2231 15.3959C46.2439 15.3474 46.3269 15.3059 46.4031 15.3059C46.4792 15.3059 46.5899 15.3959 46.6522 15.4998C46.7422 15.6522 46.7422 15.6937 46.6661 15.7422C46.6176 15.7699 46.5 15.7907 46.4169 15.7907C46.3154 15.7907 46.2485 15.7399 46.2162 15.6383Z" fill="white"/>
<path d="M5.16318 15.756C5.15626 15.6452 5.16318 15.5067 5.19086 15.4582C5.21162 15.4098 5.26007 15.389 5.28775 15.4167C5.32235 15.4375 5.34311 15.569 5.33619 15.6937C5.32927 15.8253 5.35696 15.943 5.39156 15.9638C5.43308 15.9846 5.39848 15.9915 5.32235 15.9777C5.22546 15.9707 5.18394 15.9015 5.16318 15.756Z" fill="white"/>
<path d="M33.2124 15.9569C33.2539 15.943 33.2747 15.8045 33.2608 15.6522C33.2401 15.4513 33.2608 15.3751 33.33 15.3751C33.3785 15.3682 33.4685 15.4236 33.5238 15.4859C33.6207 15.5829 33.6207 15.6037 33.5238 15.666C33.4477 15.7214 33.4615 15.7283 33.5792 15.6937C33.7107 15.6591 33.7314 15.6799 33.7314 15.8253C33.7314 15.9846 33.7107 15.9984 33.4408 15.9915C33.2816 15.9915 33.1778 15.9777 33.2124 15.9569Z" fill="white"/>
<path fill-rule="evenodd" clip-rule="evenodd" d="M61.7672 0.0762196C62.0302 0.0969969 62.3762 0.187032 62.5977 0.290918C62.8053 0.387878 63.1167 0.588725 63.2828 0.734166C63.4558 0.893458 63.6634 1.17741 63.7811 1.41982C63.9402 1.7661 63.9749 1.92539 63.9818 2.37557C63.9818 2.81189 63.9472 2.97118 63.8018 3.26899C63.7049 3.46984 63.5112 3.75379 63.3658 3.89923C63.2274 4.04467 62.9783 4.2386 62.8053 4.32863C62.6323 4.41174 62.307 4.5364 62.0786 4.60566C61.8018 4.68184 61.5111 4.70955 61.2135 4.68877C60.9644 4.67492 60.653 4.62644 60.5215 4.59181C60.39 4.55718 60.1201 4.45329 59.9332 4.36326C59.7394 4.2663 59.4834 4.10008 59.3519 3.98234C59.2135 3.8646 59.0128 3.55987 58.8813 3.26899C58.7083 2.895 58.6529 2.67338 58.6529 2.38942C58.6529 2.1678 58.7152 1.84229 58.8052 1.60681C58.8951 1.37133 59.082 1.07353 59.2758 0.865755C59.4834 0.651057 59.7671 0.443284 60.0439 0.311695C60.3139 0.187032 60.653 0.0900711 60.9021 0.0692939C61.1305 0.0485166 61.518 0.0554424 61.7672 0.0762196ZM60.5422 1.71762C60.4177 1.86999 60.3831 1.99465 60.3831 2.35479C60.3761 2.70108 60.4107 2.84652 60.5215 2.99889C60.5976 3.10277 60.7568 3.23436 60.8675 3.28977C60.9782 3.34517 61.2135 3.39365 61.3865 3.39365C61.6495 3.39365 61.7395 3.3521 61.9748 3.13048C62.1893 2.92963 62.2655 2.80497 62.3001 2.56256C62.3277 2.34787 62.307 2.15394 62.2309 1.93925C62.1686 1.7661 62.044 1.57218 61.9471 1.50292C61.8502 1.44059 61.6218 1.37133 61.435 1.34363C61.2066 1.32285 61.0474 1.34363 60.9021 1.41982C60.7914 1.47522 60.6253 1.61374 60.5422 1.71762ZM67.4075 0.0692939C67.6497 0.0900711 67.9957 0.187032 68.2379 0.297844C68.4663 0.408656 68.757 0.588725 68.8816 0.713389C69.0131 0.838052 69.1791 1.02505 69.2622 1.14279C69.3452 1.2536 69.4629 1.50292 69.5321 1.69685C69.6013 1.88384 69.6567 2.18165 69.6567 2.35479C69.6567 2.52794 69.6013 2.81882 69.5321 3.01274C69.4629 3.19973 69.3176 3.49754 69.2068 3.66376C69.0823 3.85075 68.847 4.06545 68.6186 4.20397C68.411 4.32863 68.0372 4.49485 67.7881 4.57103C67.539 4.64721 67.1722 4.70955 66.9715 4.70955C66.7777 4.70955 66.4455 4.66799 66.2448 4.61259C66.051 4.56411 65.7258 4.43944 65.5389 4.34248C65.3451 4.24552 65.0821 4.04467 64.9437 3.89923C64.7984 3.75379 64.6046 3.46984 64.5077 3.26899C64.3624 2.97118 64.3278 2.81189 64.3278 2.35479C64.3278 1.9531 64.3624 1.71762 64.4662 1.48907C64.5423 1.31593 64.7569 1.01812 64.9507 0.831126C65.1375 0.637205 65.4766 0.40173 65.6912 0.297844C65.9472 0.17318 66.2587 0.0900711 66.5424 0.0692939C66.7915 0.0485166 67.1791 0.0485166 67.4075 0.0692939ZM66.3486 1.51678C66.2587 1.57911 66.1272 1.75918 66.051 1.91847C65.9818 2.08469 65.9195 2.28553 65.9195 2.36864C65.9195 2.45868 65.9818 2.6526 66.058 2.80497C66.1341 2.95733 66.2933 3.15125 66.4178 3.23436C66.5632 3.33825 66.75 3.39365 66.9369 3.39365C67.103 3.39365 67.3313 3.34517 67.4421 3.28977C67.5528 3.23436 67.712 3.08892 67.7881 2.97811C67.885 2.83267 67.9265 2.65952 67.9265 2.36864C67.9265 2.07084 67.885 1.91847 67.7673 1.75225C67.6843 1.63451 67.5597 1.50292 67.4905 1.46137C67.4282 1.41982 67.2414 1.37133 67.0753 1.35748C66.9161 1.33671 66.7223 1.34363 66.6462 1.36441C66.5701 1.38519 66.4386 1.45444 66.3486 1.51678ZM56.4106 0.0692939C58.0647 0.0692939 58.3899 0.0831454 58.4799 0.17318C58.5491 0.242438 58.5837 0.422507 58.5837 0.72724C58.5837 1.04582 58.5491 1.20512 58.473 1.2813C58.3968 1.35748 58.21 1.38519 57.1996 1.38519V2.94348C57.1996 4.2663 57.1857 4.5087 57.0958 4.5364C57.0404 4.55718 56.729 4.57103 56.4037 4.57103C55.9746 4.57103 55.7878 4.54333 55.7116 4.46714C55.6286 4.38404 55.6078 4.10701 55.6078 1.38519H55.0196C54.5905 1.38519 54.4037 1.35748 54.3275 1.2813C54.2583 1.21204 54.2214 1.02966 54.2168 0.734166C54.2168 0.40173 54.2445 0.256289 54.3275 0.180106C54.4244 0.0831454 54.7151 0.0692939 56.4106 0.0692939ZM70.9231 0.0692939C71.2761 0.0692939 71.5391 0.103923 71.6083 0.152403C71.719 0.235512 71.7329 0.415581 71.7675 3.35903L73.8436 3.42828L73.8644 3.94771C73.8782 4.30785 73.8575 4.481 73.7952 4.51563C73.7467 4.54333 72.9509 4.57103 72.0235 4.57103C70.6256 4.57103 70.3349 4.55718 70.2449 4.46714C70.155 4.37711 70.1411 4.03775 70.1342 2.32709C70.1342 0.519468 70.1411 0.277066 70.2449 0.180106C70.328 0.0969969 70.5079 0.0692939 70.9231 0.0692939ZM55.4141 5.74841C55.8639 5.74841 56.0508 5.77611 56.1269 5.85229C56.203 5.92848 56.2307 6.1224 56.2307 7.3067L57.7186 5.74841H58.4245C58.819 5.74841 59.1858 5.76226 59.2412 5.78304C59.2965 5.80381 59.345 5.85922 59.345 5.9077C59.345 5.94926 58.9574 6.37865 58.4799 6.85653C58.0024 7.33441 57.6148 7.75688 57.6148 7.7915C57.6217 7.82613 57.7186 7.97157 57.8432 8.11009C57.9678 8.2486 58.2031 8.53949 58.3761 8.76111C58.5491 8.97581 58.8052 9.30132 58.9574 9.48139C59.1027 9.65453 59.2688 9.88308 59.3173 9.99389C59.4073 10.167 59.4003 10.1809 59.255 10.2155C59.172 10.2363 58.7982 10.2501 57.7532 10.2501L57.4626 9.98697C57.3103 9.84845 57.0542 9.55757 56.8951 9.3498C56.7359 9.14203 56.5906 8.94118 56.5629 8.89962C56.5352 8.85807 56.466 8.87885 56.3691 8.96888C56.2515 9.08662 56.2238 9.19051 56.2307 9.57142C56.2307 9.91078 56.203 10.0701 56.12 10.1463C56.0438 10.2224 55.8501 10.2501 55.3933 10.2501C55.0542 10.2501 54.7289 10.2363 54.6736 10.2155C54.5836 10.1878 54.5697 9.87616 54.5559 8.03391C54.549 5.99081 54.549 5.89385 54.6805 5.82459C54.7497 5.78304 55.0819 5.74841 55.4141 5.74841ZM60.8329 5.74841C61.262 5.74841 61.4488 5.77611 61.525 5.85229C61.6149 5.94233 61.6288 6.27477 61.6288 7.99928C61.6288 9.76534 61.6149 10.0562 61.518 10.1463C61.4419 10.2224 61.2481 10.2501 60.7914 10.2501C60.3346 10.2501 60.1478 10.2224 60.0716 10.1463C59.9817 10.0562 59.9678 9.72379 59.9678 8.03391C59.9678 6.11547 59.9747 6.01851 60.1062 5.88692C60.2239 5.76919 60.3346 5.74841 60.8329 5.74841ZM64.1617 5.74841C65.8157 5.74841 66.141 5.76226 66.231 5.85229C66.3002 5.92155 66.3348 6.10162 66.3348 6.40635C66.3348 6.72494 66.3002 6.88423 66.224 6.96041C66.1479 7.0366 65.9611 7.0643 64.9507 7.0643V8.62259C64.9507 9.94541 64.9368 10.1878 64.8468 10.2155C64.7915 10.2363 64.4801 10.2501 64.1548 10.2501C63.8295 10.2501 63.5181 10.2363 63.4627 10.2155C63.3728 10.1878 63.3589 9.94541 63.3589 7.0643H62.7707C62.3416 7.0643 62.1547 7.0366 62.0786 6.96041C62.0094 6.89116 61.9725 6.70878 61.9679 6.41328C61.9679 6.08084 61.9956 5.9354 62.0786 5.85922C62.1755 5.76226 62.4662 5.74841 64.1617 5.74841ZM55.9885 11.4552C56.639 11.4691 57.338 11.5106 57.5456 11.5453C57.7532 11.5868 58.0785 11.6838 58.2723 11.7669C58.4591 11.85 58.7567 12.0508 58.9228 12.2101C59.0889 12.3694 59.2965 12.6672 59.3865 12.8612C59.5111 13.1451 59.5526 13.346 59.5526 13.7477C59.5526 14.1216 59.5111 14.3571 59.4073 14.5926C59.3311 14.7796 59.1512 15.0428 59.0128 15.1882C58.8744 15.3336 58.6321 15.5206 58.4799 15.5968C58.3276 15.673 58.0647 15.7838 57.8916 15.8323C57.6771 15.9016 57.1581 15.9293 56.1753 15.9293C55.4071 15.9293 54.7289 15.9154 54.6736 15.8946C54.5836 15.8669 54.5697 15.5553 54.5559 13.713C54.549 11.6699 54.549 11.573 54.6805 11.4968C54.7635 11.4552 55.241 11.4344 55.9885 11.4552ZM56.2307 14.7519C56.7913 14.7519 57.075 14.7103 57.2203 14.6618C57.3657 14.6203 57.5594 14.5026 57.6425 14.4056C57.7255 14.3086 57.8294 14.1078 57.8709 13.9554C57.9262 13.7546 57.9262 13.623 57.8778 13.4706C57.8363 13.3529 57.7532 13.1867 57.6909 13.0966C57.6287 13.0066 57.4764 12.8889 57.3518 12.8335C57.2342 12.785 56.9297 12.7434 56.6805 12.7434H56.2307V14.7519ZM62.0163 11.4275C63.4835 11.4275 63.788 11.4414 63.878 11.5314C63.9472 11.6007 63.9818 11.7807 63.9818 12.0855C63.9818 12.4041 63.9472 12.5633 63.871 12.6395C63.788 12.7226 63.5527 12.7434 61.698 12.7434V13.0897H62.5977C63.3036 13.0897 63.5181 13.1105 63.6011 13.1936C63.6703 13.2628 63.7049 13.4291 63.7049 13.6784C63.7049 13.9346 63.6703 14.0939 63.5942 14.1632C63.5112 14.2463 63.2966 14.2671 61.698 14.2671V14.7519H62.7361C63.3036 14.7519 63.8226 14.7657 63.878 14.7865C63.961 14.8142 63.9818 14.9389 63.9818 15.3406C63.9818 15.7423 63.961 15.8669 63.878 15.8946C63.8226 15.9154 62.9783 15.9293 62.0094 15.9293C60.5353 15.9293 60.2308 15.9154 60.1408 15.8254C60.0509 15.7353 60.037 15.396 60.0301 13.6853C60.0301 11.8777 60.037 11.6353 60.1408 11.5383C60.2377 11.4414 60.5076 11.4275 62.0163 11.4275ZM65.9057 11.4483C66.5424 11.4622 67.2137 11.5106 67.4075 11.5453C67.5943 11.5868 67.8642 11.6699 67.9957 11.7392C68.1272 11.8015 68.3418 11.9539 68.4663 12.0785C68.5978 12.1963 68.757 12.411 68.8331 12.5495C68.9162 12.7157 68.9646 12.9581 68.9646 13.1936C68.9646 13.4291 68.9162 13.6715 68.8331 13.8308C68.757 13.9762 68.5978 14.1909 68.4663 14.3086C68.3418 14.4333 68.1065 14.5926 67.9404 14.6757C67.7327 14.7796 67.4421 14.835 66.1964 14.925V15.3198C66.1964 15.5968 66.1618 15.7561 66.0856 15.8254C66.0095 15.9016 65.8088 15.9293 65.3244 15.9293C64.8399 15.9293 64.6462 15.9016 64.57 15.8254C64.4801 15.7353 64.4662 15.4029 64.4662 13.713C64.4662 11.7738 64.4731 11.6976 64.6115 11.5591C64.743 11.4275 64.8122 11.4206 65.9057 11.4483ZM66.1964 13.6438C66.8331 13.6438 67.0476 13.6091 67.1306 13.5468C67.2275 13.4775 67.2691 13.3667 67.2691 13.2005C67.2691 13.0389 67.2229 12.9235 67.1306 12.8542C67.0476 12.785 66.84 12.7503 66.5908 12.7434H66.1964V13.6438ZM71.9197 11.4344C72.5979 11.4275 72.6602 11.4414 73.1654 11.6769C73.463 11.8084 73.7952 12.0024 73.9059 12.1062C74.0097 12.2101 74.1758 12.411 74.2658 12.5495C74.3558 12.6949 74.4803 12.9581 74.5426 13.1382C74.6118 13.346 74.6464 13.6161 74.6257 13.8515C74.6118 14.1078 74.5288 14.3848 74.3627 14.7103C74.2312 14.9735 74.0097 15.2782 73.8782 15.396C73.7467 15.5137 73.463 15.6869 73.2554 15.7838C72.9024 15.95 72.7986 15.9639 71.9405 15.9639C71.0269 15.9639 70.9993 15.957 70.591 15.7423C70.3626 15.6245 70.0442 15.3891 69.885 15.2228C69.7259 15.0635 69.5321 14.7796 69.456 14.5926C69.3522 14.3571 69.3106 14.1147 69.3106 13.7269C69.3106 13.3875 69.3452 13.0897 69.4214 12.9166C69.4837 12.7642 69.6359 12.5149 69.7605 12.3625C69.8781 12.2101 70.1065 12.0024 70.2518 11.8985C70.3972 11.7946 70.674 11.6491 70.8678 11.573C71.1238 11.476 71.4007 11.4414 71.9197 11.4344ZM71.0962 13.1659C71.0339 13.2975 70.9577 13.4914 70.9301 13.6091C70.8955 13.7615 70.9301 13.9139 71.0477 14.1563C71.1377 14.3433 71.2969 14.551 71.4007 14.6272C71.5252 14.7034 71.719 14.7519 71.9405 14.7519C72.1712 14.7519 72.3557 14.7057 72.4941 14.6134C72.6118 14.5372 72.7502 14.3779 72.8055 14.2671C72.8609 14.1493 72.9094 13.8862 72.9094 13.6784C72.9094 13.3321 72.8817 13.2698 72.6464 13.0204C72.3972 12.7503 72.3765 12.7365 71.9751 12.7434C71.7467 12.7434 71.4837 12.7919 71.3868 12.8404C71.2899 12.8889 71.1584 13.0412 71.0962 13.1659Z" fill="white"/>
<path d="M36.9562 0.0970895L36.4372 0.0624608C36.1535 0.0416835 37.8698 0.027832 40.2643 0.027832C43.1087 0.0347578 44.6035 0.055535 44.6035 0.104015C44.6035 0.152496 43.1087 0.173273 40.2643 0.180199C37.8698 0.180199 36.1535 0.166347 36.9562 0.0970895Z" fill="white"/>
<path d="M0.747636 2.251C0.747636 1.26062 0.761477 0.4226 0.78916 0.381045C0.809922 0.339491 0.837604 0.671927 0.844525 1.10825C0.858366 1.54457 0.879128 1.97397 0.899889 2.05708C0.920651 2.14711 0.982937 2.21637 1.0383 2.21637C1.12135 2.21637 1.14211 2.3064 1.14211 2.59729C1.14211 2.9228 1.12135 2.98513 1.0037 3.01283C0.879128 3.04746 0.865286 3.10287 0.865286 3.63615C0.865286 4.11402 0.844525 4.22484 0.761477 4.22484C0.699192 4.22484 0.67843 4.19021 0.699192 4.14173C0.726874 4.09325 0.747636 3.24138 0.747636 2.251Z" fill="white"/>
<path d="M48.0638 1.00436C48.1399 1.02514 48.2022 1.00436 48.2022 0.969734C48.2022 0.92818 48.2161 0.900477 48.2368 0.900477C48.2576 0.900477 48.3199 0.914328 48.3752 0.935105C48.4375 0.955883 48.4652 1.02514 48.4445 1.10825C48.4214 1.20059 48.4445 1.24676 48.5137 1.24676C48.569 1.24676 48.6175 1.26754 48.6175 1.29524C48.6105 1.32987 48.5621 1.38528 48.4929 1.43376C48.4306 1.48224 48.3337 1.52379 48.2922 1.52379C48.2438 1.52379 48.1884 1.46146 48.1676 1.38528C48.1469 1.3091 48.0846 1.24676 48.0292 1.24676C47.9739 1.24676 47.9254 1.18443 47.9254 1.10825C47.9254 1.00436 47.96 0.97666 48.0638 1.00436Z" fill="white"/>
<path d="M22.6444 1.6069C22.6168 1.5792 22.596 1.42683 22.596 1.26062C22.596 1.10132 22.6098 0.969734 22.6306 0.969734C22.6514 0.969734 22.7206 0.990511 22.7828 1.01129C22.8728 1.04592 22.9005 1.1221 22.8867 1.32295C22.8797 1.46839 22.8313 1.6069 22.7828 1.62075C22.7413 1.64153 22.6721 1.63461 22.6444 1.6069Z" fill="white"/>
<path d="M26.4231 1.8493C26.43 1.80775 26.4646 1.74542 26.5061 1.71772C26.5477 1.69001 26.603 1.66231 26.6445 1.66231C26.6861 1.66923 26.776 1.71079 26.8522 1.7662C26.9283 1.82853 26.9491 1.87008 26.9075 1.87008C26.8591 1.87008 26.7553 1.83545 26.6791 1.80082C26.5684 1.74542 26.5477 1.75234 26.5753 1.83545C26.5961 1.89778 26.5684 1.93934 26.5061 1.93934C26.4508 1.93934 26.4092 1.89778 26.4231 1.8493Z" fill="white"/>
<path d="M22.6444 2.71502C22.6168 2.68732 22.596 2.53495 22.596 2.36874C22.596 2.20944 22.6098 2.07785 22.6306 2.07785C22.6514 2.07785 22.7206 2.09863 22.7828 2.11941C22.8728 2.15404 22.9005 2.23022 22.8867 2.43107C22.8797 2.57651 22.8313 2.71502 22.7898 2.72887C22.7413 2.74965 22.6721 2.74273 22.6444 2.71502Z" fill="white"/>
<path d="M25.9871 2.38951C25.9456 2.41029 25.9456 2.37566 25.9871 2.28563C26.0286 2.20944 26.084 2.14711 26.1186 2.14711C26.1532 2.14711 26.1739 2.25792 26.167 2.38951C26.167 2.5211 26.1393 2.63191 26.1117 2.63191C26.0771 2.63191 26.0563 2.56958 26.0563 2.4934C26.0563 2.41722 26.0286 2.36874 25.9871 2.38951Z" fill="white"/>
<path d="M25.4473 3.06131C25.3712 3.01976 25.3781 2.99205 25.468 2.88817C25.5303 2.82584 25.5995 2.77043 25.6134 2.77043C25.6341 2.77043 25.6618 2.81891 25.6826 2.87432C25.6964 2.92972 25.6687 3.0059 25.6272 3.04053C25.5788 3.08209 25.4957 3.08901 25.4473 3.06131Z" fill="white"/>
<path d="M22.6444 3.82314C22.6168 3.79544 22.596 3.64307 22.596 3.47686C22.596 3.31756 22.6098 3.18597 22.6306 3.18597C22.6514 3.18597 22.7206 3.20675 22.7828 3.22753C22.8728 3.26216 22.9005 3.33834 22.8867 3.53919C22.8797 3.68463 22.8313 3.82314 22.7898 3.83699C22.7413 3.85777 22.6721 3.85085 22.6444 3.82314Z" fill="white"/>
<path d="M24.3953 4.23869C24.3538 4.16251 24.3538 4.09325 24.4023 4.03784C24.4369 3.99629 24.513 3.97551 24.5684 3.99629C24.6237 4.01706 24.6653 4.1071 24.6722 4.19713C24.6722 4.30102 24.6306 4.36335 24.5684 4.36335C24.513 4.36335 24.4369 4.30795 24.3953 4.23869Z" fill="white"/>
<path d="M22.6306 4.91741C22.6098 4.91741 22.596 4.7789 22.596 4.60575C22.596 4.43261 22.6098 4.29409 22.6306 4.29409C22.6514 4.29409 22.7206 4.31487 22.7828 4.33565C22.8728 4.36335 22.9005 4.43954 22.8867 4.61268C22.8797 4.75119 22.8313 4.86201 22.769 4.88278C22.7136 4.90356 22.6514 4.91741 22.6306 4.91741Z" fill="white"/>
<path d="M40.8525 4.50879C40.8456 4.43261 40.8871 4.35643 40.9356 4.34257C40.991 4.3218 41.0463 4.30102 41.0602 4.30102C41.0671 4.29409 41.1294 4.34257 41.1986 4.40491C41.3093 4.50879 41.3093 4.51572 41.1986 4.62653C41.1294 4.70271 41.0394 4.72349 40.9702 4.68886C40.9148 4.66116 40.8595 4.57805 40.8525 4.50879Z" fill="white"/>
<path d="M52.4238 6.99514C52.3892 6.99514 52.3546 6.89818 52.3615 6.78736C52.3615 6.59344 52.3754 6.57959 52.4999 6.64885C52.5761 6.6904 52.6383 6.76659 52.6383 6.82199C52.6314 6.8774 52.5968 6.91203 52.5622 6.89125C52.5276 6.87047 52.493 6.89125 52.493 6.92588C52.493 6.96051 52.4584 6.99514 52.4238 6.99514Z" fill="white"/>
<path d="M52.4584 7.51457C52.3684 7.42453 52.3684 7.39683 52.4722 7.27217C52.5345 7.19598 52.6176 7.14058 52.6591 7.1475C52.6937 7.16136 52.7352 7.25139 52.7491 7.3622C52.7629 7.47994 52.7352 7.56305 52.666 7.58383C52.6107 7.6046 52.5138 7.56997 52.4584 7.51457Z" fill="white"/>
<path d="M17.6339 9.12134C17.5509 9.11211 17.5024 9.03131 17.4886 8.87894C17.4747 8.7612 17.4886 8.65732 17.5232 8.65732C17.5509 8.65732 17.6201 8.69195 17.6685 8.74043C17.717 8.78891 17.7516 8.89972 17.7516 8.98975C17.7516 9.09364 17.717 9.13519 17.6339 9.12134Z" fill="white"/>
<path d="M28.6515 9.17675C28.5616 9.08671 28.5616 9.05901 28.6654 8.93435C28.7276 8.85816 28.8107 8.79583 28.8384 8.79583C28.8661 8.79583 28.9214 8.85816 28.9629 8.93435C29.0045 9.01053 29.0252 9.07979 29.0183 9.09364C29.0045 9.10056 28.9422 9.14904 28.8799 9.19753C28.7761 9.26678 28.7346 9.25986 28.6515 9.17675Z" fill="white"/>
<path d="M52.4584 9.80007C52.3892 9.77929 52.3546 9.6754 52.3546 9.52304C52.3546 9.35682 52.3892 9.28063 52.4584 9.28063C52.5138 9.28063 52.583 9.33604 52.6037 9.4053C52.6314 9.46763 52.6314 9.59229 52.6037 9.68233C52.5761 9.77929 52.5207 9.82084 52.4584 9.80007Z" fill="white"/>
<path d="M45.8354 10.735C45.8285 10.7004 45.8838 10.645 45.953 10.6035C46.043 10.5619 46.0984 10.5619 46.133 10.6173C46.1607 10.6658 46.1607 10.742 46.1191 10.7904C46.0845 10.832 46.0084 10.8597 45.953 10.8389C45.8977 10.8182 45.8423 10.7766 45.8354 10.735Z" fill="white"/>
<path d="M17.6339 11.3376C17.5509 11.3283 17.5024 11.2475 17.4886 11.0952C17.4747 10.9774 17.4886 10.8736 17.5232 10.8736C17.5509 10.8736 17.6201 10.9082 17.6685 10.9567C17.717 11.0051 17.7516 11.116 17.7516 11.206C17.7516 11.3099 17.717 11.3514 17.6339 11.3376Z" fill="white"/>
<path d="M30.2225 11.1991C30.2917 11.1367 30.3471 11.0536 30.3471 11.0121C30.3471 10.9705 30.3748 10.9428 30.4163 10.9428C30.4578 10.9428 30.5339 11.019 30.5893 11.116C30.6723 11.2545 30.6793 11.3099 30.6031 11.393C30.5616 11.4553 30.4993 11.5038 30.4647 11.4969C30.437 11.4969 30.4163 11.4345 30.4163 11.3584C30.4163 11.2475 30.3886 11.2268 30.2571 11.2683C30.1118 11.3099 30.1118 11.3099 30.2225 11.1991Z" fill="white"/>
<path d="M43.8215 11.2891C43.7592 11.296 43.7592 11.2683 43.8284 11.1921C43.8838 11.1298 43.953 11.1021 43.9945 11.1229C44.036 11.1437 44.0637 11.2337 44.0568 11.3307C44.0499 11.4207 44.0153 11.4969 43.9807 11.4969C43.9461 11.4969 43.9115 11.4484 43.9115 11.393C43.9115 11.3376 43.8699 11.2891 43.8215 11.2891Z" fill="white"/>
<path d="M24.7206 11.7462C24.7137 11.7116 24.7691 11.6423 24.8452 11.5938C24.9213 11.5454 24.9905 11.4969 24.9974 11.4969C25.0113 11.4969 25.0736 11.5454 25.1359 11.6077C25.2535 11.7116 25.2535 11.7254 25.1082 11.8639C24.9698 12.0025 24.9421 12.0025 24.8452 11.9124C24.7829 11.857 24.7275 11.7808 24.7206 11.7462Z" fill="white"/>
<path d="M41.8491 12.8959C41.7799 12.8543 41.7799 12.8058 41.8422 12.6604C41.8837 12.5496 41.9598 12.4665 42.0014 12.4665C42.0498 12.4665 42.0706 12.6535 42.0637 13.0344C42.0637 13.353 42.036 13.6646 42.0152 13.7339C41.9806 13.8239 41.9252 13.8447 41.7522 13.8101C41.6277 13.7824 41.4823 13.7408 41.4339 13.72C41.3716 13.6854 41.3716 13.6439 41.4616 13.54C41.5308 13.443 41.5792 13.4292 41.6 13.4915C41.6138 13.533 41.6761 13.5746 41.7315 13.5746C41.7868 13.5746 41.8491 13.5261 41.8699 13.4707C41.8906 13.4153 41.8699 13.3183 41.8353 13.2629C41.7868 13.1937 41.7938 13.1244 41.856 13.0482C41.9252 12.9651 41.9183 12.9305 41.8491 12.8959Z" fill="white"/>
<path d="M17.627 13.5538C17.5486 13.5446 17.5024 13.4638 17.4886 13.3114C17.4747 13.1937 17.4886 13.0898 17.5232 13.0898C17.5509 13.0898 17.6201 13.1244 17.6685 13.1729C17.717 13.2214 17.7516 13.3322 17.7516 13.4222C17.7516 13.5261 17.717 13.5677 17.627 13.5538Z" fill="white"/>
<path d="M26.4715 14.0456C26.34 13.817 26.34 13.817 26.4784 13.7408C26.5823 13.6923 26.6307 13.6923 26.6515 13.7408C26.6653 13.7824 26.7414 13.8378 26.8176 13.8724C26.9491 13.9209 26.949 13.9278 26.8314 14.1217C26.7691 14.2395 26.693 14.3157 26.6584 14.2949C26.6307 14.281 26.5477 14.1633 26.4715 14.0456Z" fill="white"/>
<path d="M41.074 15.0983C41.074 14.9805 41.0878 14.8489 41.1017 14.8005C41.1155 14.7451 41.1778 14.7035 41.2332 14.7035C41.2955 14.7035 41.3301 14.7866 41.337 14.939C41.3439 15.0636 41.337 15.216 41.3162 15.2714C41.2955 15.3268 41.2332 15.3614 41.1778 15.3407C41.1155 15.3199 41.074 15.2229 41.074 15.0983Z" fill="white"/>
<path d="M17.5439 15.964C17.5024 15.9432 17.4747 15.7908 17.4747 15.6177C17.4747 15.4446 17.5024 15.306 17.5439 15.306C17.5786 15.306 17.6616 15.3822 17.717 15.4792C17.7723 15.5761 17.8692 15.6523 17.9246 15.6523C17.9799 15.6523 18.0284 15.6939 18.0284 15.7354C18.0284 15.7839 17.9384 15.867 17.8208 15.9086C17.71 15.9571 17.5786 15.9848 17.5439 15.964Z" fill="white"/>
<path d="M33.579 15.7008C33.4475 15.7354 33.4475 15.7216 33.6344 15.5484L33.842 15.3614L33.925 15.5415C34.0011 15.6939 33.9942 15.7354 33.8904 15.8324C33.8212 15.8947 33.8143 15.9155 33.8766 15.8809C33.9458 15.8393 33.9665 15.8532 33.925 15.9086C33.8973 15.9571 33.842 15.9986 33.8074 15.9986C33.7658 15.9986 33.7382 15.9224 33.7382 15.8255C33.7382 15.68 33.7174 15.6593 33.579 15.7008Z" fill="white"/>
<path d="M18.8448 0.740921C18.8379 0.609332 18.8656 0.484668 18.8933 0.456965C18.9279 0.429262 19.1424 0.415411 19.3777 0.429262C19.7929 0.450039 19.7929 0.450039 19.8068 0.671663C19.8206 0.796327 19.786 0.948693 19.7307 1.0041C19.6753 1.05951 19.5161 1.10799 19.3846 1.10799C19.2462 1.10799 19.1355 1.07336 19.1355 1.03873C19.1355 0.997174 19.0732 0.969471 18.9971 0.969471C18.8863 0.969471 18.8587 0.92099 18.8448 0.740921Z" fill="white"/>
<path d="M17.4811 1.59997C17.4742 1.35757 17.4811 1.11517 17.5019 1.06669C17.5226 1.01128 17.5711 0.969727 17.6126 0.969727C17.6472 0.969727 17.7579 1.04591 17.8548 1.14287C18.0002 1.28831 18.0278 1.38527 18.0278 2.07785L17.5088 2.04322L17.4811 1.59997Z" fill="white"/>
<path d="M35.7654 3.39374C35.7584 2.92279 35.7654 2.49339 35.7792 2.44491C35.8 2.39643 35.8553 2.35488 35.9176 2.35488C35.973 2.35488 36.0214 2.41721 36.0214 2.49339C36.0214 2.58573 36.0676 2.63191 36.1598 2.63191C36.2913 2.63191 36.2982 2.68039 36.2982 3.32448C36.2982 3.96858 36.2913 4.01706 36.1598 4.01706C36.0676 4.01706 36.0214 4.06323 36.0214 4.15557C36.0214 4.24792 35.9822 4.28716 35.9038 4.27331C35.793 4.25946 35.7792 4.15557 35.7654 3.39374Z" fill="white"/>
<path d="M22.3186 3.11671C22.2079 3.11671 22.1802 3.06823 22.1802 2.90894C22.1802 2.74964 22.2079 2.70116 22.3186 2.70116C22.4293 2.70116 22.457 2.74964 22.457 2.90894C22.457 3.06823 22.4293 3.11671 22.3186 3.11671Z" fill="white"/>
<path d="M17.5019 3.48377C17.4811 3.41452 17.4742 3.31756 17.5019 3.276C17.5226 3.22752 17.6472 3.18597 17.7856 3.18597C17.9171 3.18597 18.0278 3.2206 18.0278 3.25522C18.0278 3.29678 18.0901 3.32448 18.1663 3.32448C18.277 3.32448 18.3047 3.37296 18.3047 3.53225C18.3047 3.67077 18.2701 3.74003 18.2009 3.74003C18.1455 3.74003 18.0832 3.6777 18.0624 3.60151C18.0417 3.5184 17.9725 3.463 17.8894 3.463C17.8133 3.463 17.751 3.49763 17.751 3.53225C17.751 3.57381 17.7026 3.60151 17.6472 3.60151C17.5918 3.60151 17.5226 3.54611 17.5019 3.48377Z" fill="white"/>
<path d="M25.3637 3.58766C25.3637 3.5184 25.4052 3.40067 25.4467 3.32448C25.4952 3.2483 25.5851 3.19289 25.6405 3.19982C25.7236 3.2206 25.7443 3.37296 25.7789 4.84815H24.9484V4.57112C24.9484 4.37027 24.9208 4.29409 24.8446 4.29409C24.7893 4.29409 24.7408 4.23176 24.7408 4.15557C24.7408 4.07939 24.7201 3.96165 24.6855 3.89932C24.6439 3.80236 24.6647 3.78851 24.817 3.82314C24.9138 3.84391 25.0799 3.83006 25.1837 3.78158C25.2876 3.74003 25.3637 3.64999 25.3637 3.58766Z" fill="white"/>
<path d="M22.3186 4.22483C22.2079 4.22483 22.1802 4.17635 22.1802 4.01706C22.1802 3.85776 22.2079 3.80928 22.3186 3.80928C22.4293 3.80928 22.457 3.85776 22.457 4.01706C22.457 4.17635 22.4293 4.22483 22.3186 4.22483Z" fill="white"/>
<path d="M17.495 4.59189C17.4673 4.50879 17.5019 4.43953 17.5849 4.38412C17.6541 4.33564 17.7856 4.29409 17.8687 4.29409C17.9586 4.29409 18.0278 4.32872 18.0278 4.36334C18.0278 4.4049 18.0901 4.4326 18.1663 4.4326C18.277 4.4326 18.3047 4.48108 18.3047 4.64037C18.3047 4.77889 18.2701 4.84815 18.2009 4.84815C18.1455 4.84815 18.0832 4.78582 18.0624 4.70963C18.0417 4.62652 17.9725 4.57112 17.8894 4.57112C17.8133 4.57112 17.751 4.60575 17.751 4.64037C17.751 4.68193 17.7026 4.70963 17.6472 4.70963C17.5918 4.70963 17.5226 4.65423 17.495 4.59189Z" fill="white"/>
<path d="M35.7584 5.19443C35.7446 5.09747 35.7515 4.97974 35.7723 4.93818C35.793 4.8897 35.8553 4.84815 35.9176 4.84815C35.9937 4.84815 36.0214 4.92433 36.0214 5.12518C36.0214 5.3468 36.0007 5.40221 35.8968 5.38143C35.8276 5.3745 35.7723 5.29139 35.7584 5.19443Z" fill="white"/>
<path d="M17.495 5.70001C17.4673 5.61691 17.5019 5.54765 17.5849 5.49224C17.6541 5.44376 17.7856 5.40221 17.8687 5.40221C17.9586 5.40221 18.0278 5.43684 18.0278 5.47146C18.0278 5.51302 18.0901 5.54072 18.1663 5.54072C18.277 5.54072 18.3047 5.5892 18.3047 5.74849C18.3047 5.88701 18.2701 5.95627 18.2009 5.95627C18.1455 5.95627 18.0832 5.89394 18.0624 5.81775C18.0417 5.73464 17.9725 5.67924 17.8894 5.67924C17.8133 5.67924 17.751 5.71387 17.751 5.74849C17.751 5.79005 17.7026 5.81775 17.6472 5.81775C17.5918 5.81775 17.5226 5.76235 17.495 5.70001Z" fill="white"/>
<path d="M35.7584 6.30255C35.7446 6.20559 35.7515 6.08786 35.7723 6.0463C35.793 5.99782 35.8553 5.95627 35.9176 5.95627C35.9937 5.95627 36.0214 6.03245 36.0214 6.2333C36.0214 6.45492 36.0007 6.51033 35.8968 6.48955C35.8276 6.48262 35.7723 6.39952 35.7584 6.30255Z" fill="white"/>
<path d="M35.7584 7.41067C35.7446 7.31371 35.7515 7.19598 35.7723 7.15442C35.793 7.10594 35.8553 7.06439 35.9176 7.06439C35.9937 7.06439 36.0214 7.14057 36.0214 7.34142C36.0214 7.56304 36.0007 7.61845 35.8968 7.59767C35.8276 7.59074 35.7723 7.50764 35.7584 7.41067Z" fill="white"/>
<path d="M35.7584 8.51879C35.7446 8.42183 35.7515 8.3041 35.7723 8.26254C35.793 8.21406 35.8553 8.17251 35.9176 8.17251C35.9937 8.17251 36.0214 8.24869 36.0214 8.44954C36.0214 8.67116 36.0007 8.72657 35.8968 8.70579C35.8276 8.69886 35.7723 8.61576 35.7584 8.51879Z" fill="white"/>
<path d="M35.7584 9.62691C35.7446 9.52995 35.7515 9.41222 35.7723 9.37066C35.793 9.32218 35.8553 9.28063 35.9176 9.28063C35.9937 9.28063 36.0214 9.35681 36.0214 9.55766C36.0214 9.77928 36.0007 9.83469 35.8968 9.81391C35.8276 9.80698 35.7723 9.72388 35.7584 9.62691Z" fill="white"/>
<path d="M49.0322 14.4749C48.9976 14.4749 48.9629 14.4126 48.9629 14.3364C48.9629 14.2325 49.0114 14.1979 49.136 14.1979C49.2467 14.1979 49.309 14.2395 49.309 14.3018C49.309 14.3572 49.2605 14.4195 49.2052 14.4403C49.1498 14.4611 49.0668 14.4749 49.0322 14.4749Z" fill="white"/>
<path d="M42.0423 14.8212C42.0769 14.8212 42.1254 14.7589 42.1392 14.6827C42.16 14.6065 42.2223 14.5442 42.2776 14.5442C42.3399 14.5442 42.3884 14.5927 42.3884 14.6481C42.3884 14.7035 42.3261 14.7658 42.25 14.7866C42.1392 14.8143 42.1115 14.8766 42.1115 15.0983C42.1115 15.2506 42.0769 15.3753 42.0423 15.3753C42.0077 15.3753 41.9731 15.2506 41.9731 15.0983C41.9731 14.9459 42.0077 14.8212 42.0423 14.8212Z" fill="white"/>
<path d="M17.5031 7.90947C17.4823 7.84713 17.4823 7.75017 17.51 7.70169C17.5377 7.64629 17.593 7.61858 17.6346 7.63244C17.683 7.65321 17.7245 7.75017 17.7384 7.84713C17.7453 7.9718 17.7176 8.03413 17.6484 8.03413C17.593 8.03413 17.5238 7.97872 17.5031 7.90947Z" fill="white"/>
<path d="M17.5031 10.1257C17.4823 10.0634 17.4823 9.96641 17.51 9.91793C17.5377 9.86253 17.593 9.83482 17.6346 9.84868C17.683 9.86945 17.7245 9.96641 17.7315 10.0634C17.7453 10.188 17.7176 10.2504 17.6484 10.2504C17.593 10.2504 17.5238 10.195 17.5031 10.1257Z" fill="white"/>
<path d="M43.2062 11.497C42.9432 11.497 42.8671 11.4762 42.9432 11.4277C42.9986 11.3931 43.1647 11.3585 43.3031 11.3585C43.4484 11.3585 43.5661 11.3862 43.5661 11.4277C43.5661 11.4693 43.4 11.497 43.2062 11.497Z" fill="white"/>
<path d="M17.5031 12.3419C17.4823 12.2796 17.4823 12.1827 17.51 12.1342C17.5377 12.0788 17.593 12.0511 17.6346 12.0649C17.683 12.0857 17.7245 12.1827 17.7315 12.2796C17.7453 12.4043 17.7176 12.4666 17.6484 12.4666C17.593 12.4666 17.5238 12.4112 17.5031 12.3419Z" fill="white"/>
<path d="M17.5031 14.5582C17.4823 14.4959 17.4823 14.3989 17.51 14.3504C17.5377 14.295 17.593 14.2673 17.6346 14.2812C17.683 14.3019 17.7245 14.3989 17.7315 14.4959C17.7453 14.6205 17.7176 14.6829 17.6484 14.6829C17.593 14.6829 17.5238 14.6274 17.5031 14.5582Z" fill="white"/>
</svg>
