<svg width="48" height="48" viewBox="0 0 48 48" fill="none" xmlns="http://www.w3.org/2000/svg">
<path fill-rule="evenodd" clip-rule="evenodd" d="M11.6492 7.61215C14.8708 6.05304 18.8639 6.60601 21.5378 9.29656C24.0617 11.8363 24.6491 15.5302 23.4199 18.6445L29.2899 24.562C32.4167 23.2565 36.1552 23.8465 38.7153 26.4225C41.2616 28.9847 41.8875 32.7333 40.6009 35.8775L39.8867 37.6228L34.9863 32.692L33.7803 32.6352L32.7965 33.6251L32.8326 34.4973L37.9281 39.6245L36.3508 40.3879C33.1291 41.947 29.1361 41.394 26.4622 38.7035C23.9832 36.2091 23.3575 32.5953 24.5128 29.5125L18.5543 23.5059C15.4616 24.7377 11.8022 24.1239 9.28465 21.5908C6.73831 19.0286 6.11242 15.2799 7.39908 12.1357L8.11328 10.3904L13.0136 15.3213L14.2169 15.3779L15.2035 14.3777L15.1673 13.5027L10.0718 8.37551L11.6492 7.61215ZM14.529 9.3139L17.625 12.4292L17.7464 15.3599L15.2134 17.9276L11.9254 17.7728L9.25966 15.0905C9.16381 16.7931 9.76418 18.5267 11.0579 19.8285C13.0045 21.7872 15.9214 22.1329 18.239 20.9009L19.059 20.4649L27.515 28.9891L27.1145 29.7913C25.9503 32.1231 26.3203 35.0141 28.2354 36.9412C29.6597 38.3744 31.6142 38.9559 33.4709 38.6861L30.3749 35.5709L30.2535 32.6374L32.7893 30.0858L36.0746 30.2404L38.7403 32.9227C38.8361 31.2201 38.2358 29.4865 36.942 28.1848C34.9632 26.1936 31.979 25.8678 29.6362 27.1677L28.8088 27.6268L20.3938 19.1437L20.8172 18.3335C22.0506 15.9731 21.7089 13.0153 19.7645 11.0588C18.3402 9.62565 16.3858 9.04415 14.529 9.3139Z" fill="#0D5257"/>
</svg>
