<svg width="26" height="19" viewBox="0 0 26 19" fill="none" xmlns="http://www.w3.org/2000/svg">
<g clip-path="url(#clip0)">
<path d="M25.8184 17.9313C25.8184 18.525 25.3422 19.0594 24.6875 19.0594H2.00888C1.41364 19.0594 0.87793 18.5844 0.87793 17.9313V1.06875C0.87793 0.475 1.35412 0 2.00888 0H24.6875C25.2827 0 25.8184 0.475 25.8184 1.12812V17.9313Z" fill="#A6BFBF"/>
<path d="M10.9374 6.35312L8.31836 12.5875H6.59217L5.28265 7.6C5.22312 7.30313 5.1636 7.18437 4.9255 7.06562C4.50884 6.82812 3.9136 6.65 3.31836 6.53125L3.37788 6.35312H6.11598C6.47312 6.35312 6.77074 6.59063 6.88979 7.00625L7.54455 10.6281L9.21122 6.35312H10.9374ZM17.6636 10.5687C17.6636 8.90625 15.4017 8.84688 15.4017 8.075C15.4017 7.8375 15.6398 7.6 16.116 7.54062C16.3541 7.48125 17.0088 7.48125 17.7231 7.8375L18.0207 6.53125C17.6041 6.4125 17.1279 6.23438 16.4731 6.23438C14.866 6.23438 13.735 7.06563 13.735 8.3125C13.735 9.20312 14.5684 9.7375 15.1636 10.0344C15.8184 10.3312 15.9969 10.5094 15.9969 10.8063C15.9969 11.2219 15.5207 11.4 15.0445 11.4C14.2112 11.4 13.735 11.1625 13.3779 10.9844L13.0803 12.35C13.4374 12.5281 14.1517 12.6469 14.866 12.7062C16.5922 12.7656 17.6636 11.875 17.6636 10.5687ZM21.9493 12.6469H23.4374L22.1279 6.4125H20.7588C20.4612 6.4125 20.1636 6.59063 20.0445 6.8875L17.6041 12.7062H19.3303L19.6874 11.7562H21.7112L21.9493 12.6469ZM20.1041 10.3906L20.9374 8.01562L21.4136 10.3906H20.1041ZM13.2588 6.35312L11.8898 12.5875H10.2826L11.6517 6.35312H13.2588Z" fill="#0D5257"/>
</g>
<defs>
<clipPath id="clip0">
<rect width="25" height="19" fill="white" transform="translate(0.87793)"/>
</clipPath>
</defs>
</svg>
