<svg width="32" height="32" viewBox="0 0 32 32" fill="none" xmlns="http://www.w3.org/2000/svg">
<path fill-rule="evenodd" clip-rule="evenodd" d="M5.70689 4.30264C5.63884 4.09846 5.44777 3.96073 5.23254 3.96073L4.23248 3.96073C4.03025 3.96074 3.84793 4.08256 3.77054 4.26939C3.69315 4.45623 3.73593 4.67129 3.87892 4.81429L5.37891 6.31429C5.54287 6.47825 5.79806 6.50797 5.99532 6.38607C6.19257 6.26416 6.28013 6.02263 6.20681 5.80264L5.70689 4.30264ZM13 20.7124C13 20.023 12.6449 19.3821 12.0603 19.0166C10.2182 17.8649 9.00002 15.8239 9.00002 13.5C9.00002 9.91015 11.9102 7 15.5 7C19.0899 7 22 9.91015 22 13.5C22 15.8239 20.7819 17.8649 18.9397 19.0166C18.3551 19.3821 18 20.023 18 20.7124V22.538C17.3327 22.665 16.4679 22.75 15.5 22.75C14.5322 22.75 13.6674 22.665 13 22.538V20.7124ZM11 24C13 25 18 25 20 24V20.7124C22.4022 19.2105 24 16.5419 24 13.5C24 8.80558 20.1944 5 15.5 5C10.8056 5 7.00002 8.80558 7.00002 13.5C7.00002 16.5419 8.59787 19.2105 11 20.7124V24ZM12.4472 26.1055C11.9532 25.8586 11.3526 26.0588 11.1056 26.5528C10.8586 27.0467 11.0588 27.6474 11.5528 27.8944C12.7199 28.478 14.1298 28.75 15.5 28.75C16.8702 28.75 18.2801 28.478 19.4472 27.8944C19.9412 27.6474 20.1414 27.0467 19.8944 26.5528C19.6474 26.0588 19.0468 25.8586 18.5528 26.1055C17.7199 26.522 16.6298 26.75 15.5 26.75C14.3702 26.75 13.2801 26.522 12.4472 26.1055ZM25.5638 4.30264C25.6318 4.09846 25.8229 3.96073 26.0381 3.96073L27.0382 3.96073C27.2404 3.96074 27.4227 4.08256 27.5001 4.26939C27.5775 4.45623 27.5347 4.67129 27.3918 4.81429L25.8918 6.31429C25.7278 6.47825 25.4726 6.50797 25.2754 6.38607C25.0781 6.26416 24.9905 6.02263 25.0639 5.80264L25.5638 4.30264ZM3.11555 16.6897C2.92457 16.789 2.81854 16.9993 2.85232 17.2119L3.00929 18.1996C3.04103 18.3993 3.18995 18.5602 3.38662 18.6073C3.58329 18.6544 3.78897 18.5784 3.90775 18.4148L5.15374 16.6979C5.28994 16.5103 5.27924 16.2536 5.12788 16.0779C4.97653 15.9022 4.72425 15.8537 4.5185 15.9606L3.11555 16.6897ZM28.1551 16.6897C28.3461 16.789 28.4521 16.9993 28.4184 17.2119L28.2614 18.1996C28.2296 18.3993 28.0807 18.5602 27.8841 18.6073C27.6874 18.6544 27.4817 18.5784 27.3629 18.4148L26.1169 16.6979C25.9807 16.5103 25.9914 16.2536 26.1428 16.0779C26.2941 15.9022 26.5464 15.8537 26.7522 15.9606L28.1551 16.6897ZM2.0856 9.51791C1.93251 9.46347 1.76252 9.4868 1.62977 9.58048C1.49702 9.67416 1.41807 9.8265 1.41806 9.98898L1.41797 11.989C1.41796 12.1515 1.49691 12.3038 1.62966 12.3975C1.76241 12.4912 1.93241 12.5145 2.0855 12.4601L4.8975 11.4601C5.09682 11.3892 5.22996 11.2005 5.22996 10.989C5.22996 10.7774 5.09682 10.5888 4.8975 10.5179L2.0856 9.51791ZM29.1851 9.51791C29.3382 9.46347 29.5082 9.4868 29.6409 9.58048C29.7737 9.67416 29.8526 9.8265 29.8526 9.98898L29.8527 11.989C29.8527 12.1515 29.7738 12.3038 29.641 12.3975C29.5083 12.4912 29.3383 12.5145 29.1852 12.4601L26.3732 11.4601C26.1739 11.3892 26.0407 11.2005 26.0407 10.989C26.0407 10.7774 26.1739 10.5888 26.3732 10.5179L29.1851 9.51791Z" fill="#222222"/>
</svg>
