<svg width="66" height="18" viewBox="0 0 66 18" fill="none" xmlns="http://www.w3.org/2000/svg">
<path d="M65.8602 13.5935H62.6135V11.9517C62.6135 11.8406 62.4692 11.8045 62.42 11.9029C61.3452 14.0259 57.436 14.4069 56.8523 11.9475C56.0168 8.42736 60.413 8.63007 62.6135 8.64773C62.6135 8.64689 62.725 6.89231 61.5862 6.89231C60.4474 6.89231 60.4261 7.98493 60.3138 8.37689H57.1548C57.0351 5.35979 59.7858 4.70455 62.1495 4.72558C64.6288 4.74829 65.8324 6.21857 65.8627 8.67885C65.8824 10.3174 65.8824 11.9533 65.8602 13.5935ZM62.6307 9.47624C62.0052 9.56371 61.155 9.64194 60.877 10.3207C60.709 10.7312 60.7393 11.399 61.2542 11.4714C62.3471 11.6253 62.5766 10.3283 62.6299 9.47624H62.6307Z" fill="white"/>
<path d="M33.7755 9.47485H27.8167C27.8109 10.0813 27.8347 11.237 28.3857 11.6046C29.2056 12.1513 29.7385 10.787 29.7614 10.1032H33.6476C33.2623 14.5847 26.4122 14.9648 24.8807 11.2168C23.1467 6.97419 27.0403 3.69718 31.0306 4.83859C34.2216 5.7512 33.7764 9.47485 33.7764 9.47485H33.7755ZM29.8254 8.3755C29.868 6.13896 28.1512 6.46868 27.8839 8.3755H29.8254Z" fill="white"/>
<path d="M24.01 4.94092V7.03615C24.01 7.56101 23.0483 8.90344 20.1656 11.198C20.091 11.2569 20.1615 11.4016 20.2509 11.3705C21.5569 10.9221 22.6474 10.3468 24.0026 10.1853V13.5961H16.377V11.7069C16.377 10.3544 20.3525 7.40877 20.3935 7.30952C20.4583 7.15223 20.164 7.17662 20.0935 7.20858C19.0432 7.68297 17.8019 8.27428 16.6442 8.35167V4.94092H24.0092H24.01Z" fill="white"/>
<path d="M6.62434 16.1556C7.23019 16.1556 7.72133 15.6518 7.72133 15.0302C7.72133 14.4087 7.23019 13.9048 6.62434 13.9048C6.01849 13.9048 5.52734 14.4087 5.52734 15.0302C5.52734 15.6518 6.01849 16.1556 6.62434 16.1556Z" fill="white"/>
<path d="M12.7885 8.21151C11.0438 6.63104 8.63417 7.94487 5.18577 10.6987C4.40115 11.3253 3.37385 12.2035 3.24267 12.0731C3.11149 11.9427 3.41812 10.9536 5.57685 8.71871C7.71591 6.50403 10.351 4.44917 9.65409 2.71562C9.42125 2.13609 8.90309 1.62385 8.27096 1.69871C7.51996 1.79375 7.04033 2.49441 6.53611 3.00076C4.48724 5.0573 1.19544 5.15824 0.742864 5.33908C0.290293 5.51992 -0.053235 6.02375 0.0672868 6.53936C0.228802 7.23497 0.745324 7.48899 1.1856 7.47132C2.53265 7.41917 4.26833 6.84385 4.26997 6.87329C2.96637 8.28048 0.975709 10.1158 1.02654 12.2195C1.10033 13.5493 2.14485 14.8505 3.54192 14.4139C4.41837 14.1566 5.16937 13.5526 5.86135 12.9739C10.0894 9.43534 10.8888 9.60777 10.9667 9.69609C11.0446 9.78441 11.1069 10.1814 8.93916 11.8864C8.65794 12.1076 7.15593 12.8309 7.96187 14.0186C8.23735 14.424 8.83832 14.6175 9.28925 14.3694C10.7806 13.5484 14.7521 10.157 12.7975 8.21992L12.7901 8.21235L12.7885 8.21151ZM4.04204 10.4447C4.04778 10.4371 4.0486 10.4363 4.04204 10.4447V10.4447Z" fill="white"/>
<path d="M34.8535 2.29395H38.3896V13.6188H34.8535V2.29395Z" fill="white"/>
<path d="M41.6818 13.1722C40.9562 12.7853 40.3897 12.2427 39.983 11.5455C39.5764 10.8482 39.373 10.0533 39.373 9.1592C39.373 8.26509 39.5764 7.48789 39.983 6.79144C40.3897 6.09415 40.9554 5.55247 41.6818 5.16471C42.4074 4.7778 43.2289 4.5835 44.1472 4.5835C45.0654 4.5835 45.9034 4.77695 46.6298 5.16471C47.3554 5.55163 47.9219 6.09415 48.3286 6.79144C48.7352 7.48873 48.9385 8.2777 48.9385 9.1592C48.9385 10.0407 48.7352 10.8482 48.3286 11.5455C47.9219 12.2427 47.3586 12.7844 46.6388 13.1722C45.9189 13.5591 45.0941 13.7534 44.1652 13.7534C43.2363 13.7534 42.4082 13.5599 41.6826 13.1722H41.6818ZM44.7564 10.9113C44.9416 10.4108 45.0351 9.74967 45.0351 8.92705C45.0351 8.2121 44.9507 7.65527 44.7826 7.25574C44.6137 6.85705 44.3735 6.65686 44.0595 6.65686C43.711 6.65686 43.4437 6.90415 43.2584 7.39873C43.0723 7.89331 42.9797 8.55191 42.9797 9.37368C42.9797 10.0886 43.0641 10.6488 43.2322 11.0534C43.4003 11.4588 43.6413 11.6607 43.9553 11.6607C44.3038 11.6607 44.5711 11.4109 44.7564 10.9104V10.9113Z" fill="white"/>
<path d="M52.9357 4.92945L52.9537 7.10964H53.1455C53.3079 6.27609 53.6334 5.65954 54.1212 5.26001C54.609 4.86132 55.1198 4.66113 55.6544 4.66113C56.0143 4.66113 56.4037 4.73852 56.8219 4.89328L56.334 8.1459C55.8815 7.88431 55.3174 7.7531 54.6443 7.7531C54.1794 7.7531 53.831 7.95244 53.5989 8.35197C53.3661 8.75151 53.2505 9.3916 53.2505 10.2731V13.5795H49.9407L49.9316 4.92945H52.9365H52.9357Z" fill="white"/>
</svg>
