<?xml version="1.0" encoding="UTF-8"?>
<svg id="Layer_1" xmlns="http://www.w3.org/2000/svg" viewBox="0 0 581.02 527.66">
  <defs>
    <style>
      .cls-1 {
        fill: #fff;
      }
    </style>
  </defs>
  <g id="CkGTrI.tif">
    <g>
      <path class="cls-1" d="M191.04,42.48c-.07.22-.13.43-.2.65,2.42,1.2,4.88,2.33,7.24,3.63,8.14,4.47,16.24,9,24.36,13.49,8.86,4.9,17.73,9.79,26.6,14.68,7.08,3.9,14.18,7.75,21.26,11.67,9.98,5.53,19.94,11.11,29.92,16.63,6.78,3.75,13.6,7.41,20.38,11.16,6.71,3.71,13.36,7.52,20.07,11.24,6.78,3.75,13.59,7.45,20.39,11.17,6.63,3.63,13.27,7.25,19.89,10.91,6.83,3.79,13.63,7.65,20.46,11.43,6.98,3.87,14.02,7.63,20.97,11.54,5.42,3.05,10.75,6.25,16.12,9.38.66.39,1.34.76,2.02,1.12,4.27,2.24,8.57,4.44,12.79,6.76.43.24.77,1.29.62,1.81-.53,1.87-1.21,3.71-1.96,5.5-2.95,7.05-5.97,14.06-8.92,21.11-3.12,7.45-6.16,14.92-9.27,22.37-3.09,7.39-6.25,14.75-9.36,22.14-2.99,7.11-5.93,14.25-8.9,21.37-3.1,7.43-6.2,14.86-9.33,22.28-3.13,7.41-6.33,14.79-9.43,22.22-3.04,7.27-5.98,14.6-9.01,21.87-3.07,7.35-6.21,14.67-9.32,22.01-3.07,7.26-6.16,14.51-9.21,21.78-3.08,7.36-6.05,14.77-9.17,22.11-4.13,9.72-8.38,19.39-12.55,29.1-1.75,4.07-3.44,8.16-5.11,12.26-.9,2.2-1.7,4.45-2.79,7.32,7.21-2.63,13.82-5.11,20.48-7.46,7.16-2.53,14.37-4.92,21.54-7.4,6.84-2.37,13.66-4.79,20.49-7.18,7.08-2.47,14.13-5.01,21.24-7.39,10.69-3.57,21.44-6.96,32.11-10.58,4.9-1.66,8.78-4.96,10.84-9.64,3.52-7.99,6.46-16.23,9.75-24.32,2.97-7.31,6.09-14.56,9.16-21.83,3.17-7.51,6.39-14.99,9.53-22.52,3-7.2,5.89-14.44,8.89-21.64,4.63-11.13,9.3-22.25,13.97-33.36,3-7.13,6.06-14.24,9.05-21.38,3.12-7.45,6.16-14.94,9.28-22.4,3.08-7.36,6.21-14.7,9.32-22.04,3.11-7.35,6.26-14.68,9.35-22.04,3.03-7.22,5.98-14.47,9.01-21.68,3.19-7.59,6.21-15.27,9.76-22.69,2.02-4.22,4.96-8,7.65-12.24-5.13-2.77-10.67-5.7-16.15-8.73-9.89-5.46-19.75-11-29.63-16.48-6.92-3.83-13.87-7.61-20.78-11.44-10.06-5.58-20.09-11.21-30.14-16.79-6.93-3.84-13.9-7.61-20.82-11.46-6.68-3.71-13.31-7.52-19.99-11.22-6.62-3.66-13.31-7.2-19.92-10.88-7.87-4.38-15.66-8.91-23.53-13.29-5.79-3.22-11.66-6.29-17.49-9.46-6.73-3.65-13.46-7.3-20.15-11.01-7.06-3.92-14.09-7.91-21.13-11.88-5.64-3.18-11.25-6.42-16.92-9.56-1.7-.94-3.51-1.68-5.3-2.45-4.05-1.74-7.49.05-11.23,1.52-7.45,2.93-15.13,5.29-22.72,7.89-6.54,2.24-13.08,4.46-19.61,6.71-7.01,2.42-14.02,4.86-21.03,7.3-7.09,2.47-14.16,4.98-21.26,7.43-7.34,2.53-14.7,5.01-22.05,7.5-3.38,1.15-6.77,2.28-10.16,3.42ZM.19,106.73c-.06.24-.12.49-.19.73,6.58,3.51,13.2,6.96,19.73,10.56,7.45,4.11,14.81,8.39,22.25,12.52,6.16,3.42,12.39,6.72,18.59,10.09,6.73,3.66,13.48,7.31,20.18,11.03,7.2,4,14.34,8.12,21.55,12.12,6.17,3.42,12.4,6.71,18.59,10.09,7.16,3.91,14.3,7.83,21.43,11.78,6.46,3.58,12.88,7.23,19.33,10.81,7.07,3.92,14.17,7.77,21.24,11.69,6.61,3.67,13.19,7.41,19.8,11.07,6.77,3.75,13.57,7.44,20.36,11.15,6.94,3.8,13.9,7.54,20.8,11.41,4.89,2.74,9.69,5.65,14.55,8.46,1.6.93,3.22,1.8,4.94,2.76,0,.06.08.34-.01.56-2.82,6.93-5.65,13.86-8.48,20.78-2.22,5.42-4.43,10.83-6.68,16.24-3.43,8.24-6.88,16.47-10.32,24.71-2.68,6.41-5.33,12.83-8.04,19.23-3.28,7.75-6.63,15.47-9.88,23.23-2.92,6.97-5.71,13.99-8.62,20.96-4.82,11.52-9.7,23.01-14.55,34.51-2.9,6.88-5.81,13.75-8.68,20.64-3.07,7.37-6.09,14.76-9.17,22.13-3.04,7.27-6.13,14.52-9.21,21.77-3.17,7.48-6.34,14.97-9.54,22.44-2.68,6.27-5.44,12.51-8.08,18.8-1.14,2.71-2.06,5.51-3.22,8.65,1.46-.66,2.62-1.27,3.84-1.71,6.99-2.49,14-4.94,21-7.39,7.08-2.48,14.17-4.95,21.26-7.39,6.94-2.39,13.89-4.74,20.82-7.13,6.84-2.36,13.66-4.81,20.51-7.14,8.32-2.84,16.59-5.84,25.02-8.32,7.47-2.2,12.67-6.24,15.34-13.85,2.64-7.52,6.13-14.74,9.19-22.12,3.03-7.29,5.95-14.63,8.98-21.92,4.64-11.15,9.33-22.28,14-33.41,3.02-7.2,6.08-14.38,9.09-21.58,3.08-7.38,6.09-14.79,9.17-22.17,3.08-7.36,6.21-14.7,9.32-22.05,3.08-7.27,6.18-14.54,9.23-21.82,3.09-7.38,6.1-14.79,9.19-22.17,3.09-7.37,6.22-14.73,9.37-22.08,2.69-6.27,5.43-12.52,8.15-18.78,1.7-3.91,3.47-7.79,5.11-11.73,3.13-7.49,4.91-15.64,10.76-21.8.84-.89,1.54-1.9,2.44-3.02-1.41-.7-2.65-1.24-3.83-1.91-6.8-3.83-13.56-7.74-20.37-11.54-6.76-3.77-13.58-7.45-20.38-11.17-6.79-3.72-13.59-7.42-20.35-11.18-6.84-3.8-13.62-7.7-20.46-11.5-6.69-3.72-13.44-7.33-20.12-11.06-7.58-4.23-15.08-8.6-22.67-12.82-5.86-3.26-11.81-6.35-17.7-9.57-7.4-4.04-14.78-8.1-22.16-12.19-6.12-3.39-12.2-6.84-18.33-10.22-7.01-3.87-14.06-7.67-21.06-11.56-5.81-3.23-11.54-6.58-17.35-9.82-4.16-2.32-8.39-4.53-12.57-6.82-7.3-3.99-14.62-7.95-21.87-12.04-3.54-2-6.71-3.08-11-1.23-6.88,2.95-14.17,4.92-21.28,7.35-6.7,2.29-13.38,4.62-20.07,6.95-7.16,2.49-14.31,5.03-21.48,7.5-7.26,2.5-14.55,4.91-21.82,7.4-9.04,3.11-18.06,6.28-27.1,9.38-2.81.97-5.67,1.8-8.51,2.69Z"/>
      <path d="M191.04,42.48c3.39-1.14,6.78-2.27,10.16-3.42,7.35-2.49,14.71-4.97,22.05-7.5,7.1-2.45,14.17-4.96,21.26-7.43,7.01-2.44,14.01-4.88,21.03-7.3,6.53-2.25,13.07-4.47,19.61-6.71,7.59-2.6,15.26-4.96,22.72-7.89,3.74-1.47,7.18-3.26,11.23-1.52,1.79.77,3.6,1.51,5.3,2.45,5.66,3.14,11.28,6.38,16.92,9.56,7.04,3.97,14.06,7.96,21.13,11.88,6.69,3.71,13.42,7.36,20.15,11.01,5.82,3.16,11.7,6.23,17.49,9.46,7.87,4.38,15.66,8.91,23.53,13.29,6.61,3.68,13.3,7.22,19.92,10.88,6.69,3.7,13.31,7.51,19.99,11.22,6.92,3.85,13.89,7.61,20.82,11.46,10.06,5.58,20.09,11.21,30.14,16.79,6.91,3.84,13.87,7.61,20.78,11.44,9.88,5.48,19.74,11.02,29.63,16.48,5.48,3.03,11.01,5.96,16.15,8.73-2.69,4.24-5.63,8.02-7.65,12.24-3.55,7.42-6.57,15.1-9.76,22.69-3.03,7.22-5.98,14.47-9.01,21.68-3.09,7.36-6.23,14.69-9.35,22.04-3.11,7.34-6.24,14.68-9.32,22.04-3.12,7.46-6.16,14.94-9.28,22.4-2.99,7.14-6.05,14.24-9.05,21.38-4.67,11.11-9.34,22.23-13.97,33.36-3,7.2-5.89,14.44-8.89,21.64-3.14,7.52-6.36,15.01-9.53,22.52-3.07,7.27-6.18,14.52-9.16,21.83-3.29,8.09-6.23,16.33-9.75,24.32-2.06,4.68-5.94,7.98-10.84,9.64-10.67,3.62-21.42,7-32.11,10.58-7.11,2.38-14.16,4.92-21.24,7.39-6.83,2.39-13.65,4.81-20.49,7.18-7.18,2.48-14.38,4.87-21.54,7.4-6.66,2.35-13.28,4.83-20.48,7.46,1.09-2.87,1.89-5.11,2.79-7.32,1.67-4.1,3.36-8.19,5.11-12.26,4.17-9.71,8.41-19.38,12.55-29.1,3.12-7.34,6.09-14.75,9.17-22.11,3.04-7.27,6.13-14.52,9.21-21.78,3.11-7.34,6.25-14.66,9.32-22.01,3.04-7.28,5.97-14.6,9.01-21.87,3.1-7.42,6.31-14.8,9.43-22.22,3.13-7.42,6.23-14.85,9.33-22.28,2.97-7.12,5.92-14.25,8.9-21.37,3.1-7.39,6.26-14.75,9.36-22.14,3.12-7.45,6.16-14.92,9.27-22.37,2.95-7.05,5.97-14.06,8.92-21.11.75-1.8,1.44-3.63,1.96-5.5.15-.52-.19-1.57-.62-1.81-4.23-2.32-8.52-4.52-12.79-6.76-.68-.36-1.35-.73-2.02-1.12-5.37-3.13-10.7-6.34-16.12-9.38-6.95-3.91-13.99-7.67-20.97-11.54-6.83-3.79-13.63-7.65-20.46-11.43-6.61-3.66-13.26-7.28-19.89-10.91-6.8-3.72-13.61-7.41-20.39-11.17-6.71-3.72-13.36-7.52-20.07-11.24-6.78-3.75-13.6-7.41-20.38-11.16-9.99-5.52-19.94-11.1-29.92-16.63-7.07-3.91-14.18-7.77-21.26-11.67-8.87-4.88-17.74-9.78-26.6-14.68-8.12-4.49-16.22-9.03-24.36-13.49-2.37-1.3-4.82-2.42-7.24-3.63.07-.22.13-.43.2-.65Z"/>
      <path d="M.19,106.73c2.84-.89,5.7-1.73,8.51-2.69,9.04-3.1,18.06-6.28,27.1-9.38,7.26-2.5,14.56-4.9,21.82-7.4,7.17-2.47,14.32-5.01,21.48-7.5,6.69-2.33,13.37-4.66,20.07-6.95,7.11-2.43,14.4-4.39,21.28-7.35,4.29-1.84,7.46-.76,11,1.23,7.25,4.09,14.57,8.04,21.87,12.04,4.18,2.29,8.41,4.49,12.57,6.82,5.8,3.24,11.54,6.59,17.35,9.82,7,3.89,14.05,7.69,21.06,11.56,6.12,3.38,12.21,6.83,18.33,10.22,7.38,4.08,14.76,8.15,22.16,12.19,5.89,3.21,11.84,6.31,17.7,9.57,7.59,4.22,15.09,8.59,22.67,12.82,6.68,3.73,13.43,7.34,20.12,11.06,6.84,3.8,13.62,7.7,20.46,11.5,6.76,3.76,13.57,7.46,20.35,11.18,6.79,3.72,13.61,7.4,20.38,11.17,6.82,3.8,13.58,7.7,20.37,11.54,1.17.66,2.41,1.21,3.83,1.91-.9,1.12-1.6,2.13-2.44,3.02-5.85,6.16-7.63,14.3-10.76,21.8-1.64,3.94-3.41,7.82-5.11,11.73-2.72,6.26-5.46,12.51-8.15,18.78-3.15,7.35-6.28,14.71-9.37,22.08-3.09,7.38-6.1,14.79-9.19,22.17-3.05,7.29-6.15,14.55-9.23,21.82-3.11,7.35-6.25,14.69-9.32,22.05-3.09,7.38-6.1,14.79-9.17,22.17-3.01,7.2-6.06,14.39-9.09,21.58-4.68,11.13-9.36,22.26-14,33.41-3.03,7.29-5.96,14.63-8.98,21.92-3.06,7.37-6.55,14.6-9.19,22.12-2.67,7.62-7.87,11.65-15.34,13.85-8.43,2.48-16.7,5.48-25.02,8.32-6.85,2.34-13.67,4.78-20.51,7.14-6.93,2.4-13.89,4.74-20.82,7.13-7.09,2.45-14.18,4.92-21.26,7.39-7.01,2.45-14.01,4.9-21,7.39-1.22.43-2.38,1.05-3.84,1.71,1.16-3.15,2.09-5.94,3.22-8.65,2.64-6.29,5.4-12.53,8.08-18.8,3.2-7.47,6.36-14.96,9.54-22.44,3.08-7.25,6.17-14.5,9.21-21.77,3.08-7.36,6.09-14.76,9.17-22.13,2.87-6.89,5.78-13.76,8.68-20.64,4.85-11.5,9.73-23,14.55-34.51,2.92-6.97,5.7-14,8.62-20.96,3.25-7.76,6.6-15.48,9.88-23.23,2.7-6.4,5.36-12.82,8.04-19.23,3.44-8.23,6.89-16.46,10.32-24.71,2.25-5.4,4.46-10.82,6.68-16.24,2.84-6.92,5.67-13.85,8.48-20.78.09-.22.01-.5.01-.56-1.72-.96-3.34-1.83-4.94-2.76-4.85-2.82-9.65-5.72-14.55-8.46-6.9-3.86-13.87-7.61-20.8-11.41-6.79-3.72-13.59-7.41-20.36-11.15-6.62-3.66-13.19-7.4-19.8-11.07-7.07-3.92-14.17-7.77-21.24-11.69-6.46-3.58-12.88-7.23-19.33-10.81-7.13-3.95-14.28-7.87-21.43-11.78-6.19-3.38-12.42-6.67-18.59-10.09-7.21-3.99-14.34-8.12-21.55-12.12-6.7-3.72-13.44-7.37-20.18-11.03-6.19-3.37-12.42-6.67-18.59-10.09-7.44-4.13-14.8-8.41-22.25-12.52-6.53-3.6-13.15-7.04-19.73-10.56.06-.24.12-.49.19-.73Z"/>
    </g>
  </g>
</svg>